<svg xmlns="http://www.w3.org/2000/svg" xmlns:xlink="http://www.w3.org/1999/xlink" width="500" zoomAndPan="magnify" viewBox="0 0 375 374.999991" height="500" preserveAspectRatio="xMidYMid meet" version="1.0"><defs><g/><clipPath id="dbc8184a86"><path d="M 234 139 L 290 139 L 290 187 L 234 187 Z M 234 139 " clip-rule="nonzero"/></clipPath><clipPath id="e566fb33a0"><path d="M 240.191406 137.511719 L 292.140625 149.203125 L 283.417969 187.980469 L 231.464844 176.292969 Z M 240.191406 137.511719 " clip-rule="nonzero"/></clipPath><clipPath id="0e151b4e90"><path d="M 240.191406 137.511719 L 292.140625 149.203125 L 283.417969 187.980469 L 231.464844 176.292969 Z M 240.191406 137.511719 " clip-rule="nonzero"/></clipPath><clipPath id="0164125807"><path d="M 54.9375 113.363281 L 77.4375 113.363281 L 77.4375 143.359375 L 54.9375 143.359375 Z M 54.9375 113.363281 " clip-rule="nonzero"/></clipPath></defs><g clip-path="url(#dbc8184a86)"><g clip-path="url(#e566fb33a0)"><g clip-path="url(#0e151b4e90)"><path fill="#c25c61" d="M 258.039062 161.722656 C 256.351562 163.527344 254.671875 165.28125 253.003906 166.984375 C 252.660156 167.335938 252.316406 167.683594 251.972656 168.023438 C 250.078125 169.898438 248.160156 171.703125 246.15625 173.300781 C 245.296875 173.988281 244.417969 174.621094 243.511719 175.203125 C 242.621094 175.777344 241.710938 176.273438 240.777344 176.699219 C 239.9375 177.082031 239.179688 177.34375 238.496094 177.484375 C 238.292969 177.527344 238.078125 177.535156 237.855469 177.507812 C 237.820312 177.503906 237.808594 177.484375 237.8125 177.449219 L 238.636719 171.820312 C 238.644531 171.785156 238.632812 171.757812 238.605469 171.734375 C 236.792969 170.378906 235.492188 168.664062 234.699219 166.59375 C 234.515625 166.105469 234.367188 165.53125 234.285156 165 C 234.277344 164.941406 234.300781 164.90625 234.363281 164.902344 C 234.511719 164.890625 234.652344 164.878906 234.785156 164.859375 C 239.886719 164.148438 244.824219 163.289062 249.59375 162.285156 C 251.363281 161.914062 253.296875 161.453125 255.402344 160.902344 C 256.1875 160.695312 256.996094 160.441406 257.804688 160.207031 C 257.832031 160.199219 257.84375 160.179688 257.839844 160.152344 L 257.792969 159.910156 C 257.789062 159.886719 257.773438 159.875 257.75 159.882812 C 257.535156 159.933594 257.320312 159.976562 257.109375 160.011719 C 255.019531 160.359375 252.816406 160.625 250.507812 160.8125 C 247.824219 161.03125 245.136719 161.09375 242.449219 161 C 240.890625 160.941406 239.246094 160.804688 237.519531 160.585938 C 237.433594 160.574219 237.371094 160.5625 237.324219 160.484375 C 236.917969 159.792969 236.660156 159.039062 236.554688 158.222656 C 236.386719 156.925781 236.464844 155.683594 236.644531 154.335938 C 236.871094 152.621094 237.269531 150.953125 237.839844 149.335938 C 238.664062 146.992188 239.660156 144.84375 241.023438 142.792969 C 241.519531 142.042969 242.066406 141.363281 242.667969 140.746094 C 243.652344 139.734375 244.773438 139.0625 246.1875 139.109375 C 247.410156 139.148438 248.632812 139.75 249.640625 140.464844 C 251.089844 141.484375 252.382812 142.765625 253.535156 144.136719 C 254.554688 145.355469 255.523438 146.695312 256.441406 148.15625 C 257.621094 150.035156 258.679688 152.011719 259.613281 154.085938 C 259.628906 154.121094 259.652344 154.128906 259.6875 154.105469 C 259.746094 154.058594 259.777344 153.996094 259.84375 153.953125 C 260.675781 153.421875 261.558594 153.5 262.390625 154.011719 C 262.902344 154.328125 263.375 154.558594 264 154.574219 C 264.242188 154.582031 264.476562 154.574219 264.714844 154.546875 C 265.648438 154.449219 266.472656 154.683594 267.023438 155.460938 C 267.089844 155.550781 267.121094 155.644531 267.164062 155.742188 C 267.175781 155.773438 267.195312 155.777344 267.21875 155.753906 C 267.324219 155.648438 267.4375 155.550781 267.550781 155.453125 C 269.503906 153.835938 271.5 152.410156 273.542969 151.179688 C 274.925781 150.347656 276.351562 149.625 277.828125 149.007812 C 279.101562 148.472656 280.363281 148.082031 281.609375 147.832031 C 282.726562 147.605469 283.925781 147.523438 285 147.769531 C 287.046875 148.242188 287.914062 149.945312 288.402344 151.820312 C 288.707031 153 288.898438 154.269531 288.976562 155.621094 C 289.183594 159.414062 288.738281 163.320312 287.414062 166.882812 C 287.117188 167.679688 286.742188 168.445312 286.285156 169.1875 C 285.796875 169.988281 285.175781 170.628906 284.433594 171.109375 C 284.386719 171.140625 284.339844 171.144531 284.292969 171.128906 C 282.8125 170.667969 281.355469 170.125 279.917969 169.503906 C 277.445312 168.4375 274.996094 167.203125 272.566406 165.792969 C 270.507812 164.601562 268.441406 163.320312 266.53125 161.949219 C 266.46875 161.902344 266.421875 161.859375 266.386719 161.816406 C 266.355469 161.78125 266.324219 161.78125 266.292969 161.816406 L 266.171875 161.96875 C 266.136719 162.007812 266.140625 162.042969 266.179688 162.078125 C 268.652344 164.328125 271.28125 166.445312 274.042969 168.515625 C 277.4375 171.0625 280.859375 173.492188 284.304688 175.808594 C 284.601562 176.007812 284.910156 176.207031 285.234375 176.402344 C 285.277344 176.425781 285.28125 176.457031 285.253906 176.496094 C 285.113281 176.679688 284.992188 176.867188 284.839844 177.042969 C 283.523438 178.546875 281.914062 179.636719 280 180.300781 C 279.488281 180.480469 278.96875 180.613281 278.441406 180.703125 C 278.421875 180.707031 278.410156 180.714844 278.402344 180.738281 L 276.742188 186.238281 C 276.726562 186.28125 276.699219 186.292969 276.65625 186.273438 C 276.195312 186.050781 275.804688 185.777344 275.441406 185.421875 C 274.621094 184.613281 273.878906 183.726562 273.207031 182.753906 C 272.210938 181.316406 271.328125 179.757812 270.554688 178.074219 C 268.402344 173.394531 266.792969 168.359375 265.214844 163.34375 C 265.203125 163.300781 265.179688 163.296875 265.148438 163.324219 C 265 163.449219 264.832031 163.53125 264.636719 163.5625 C 264.148438 163.644531 263.691406 163.589844 263.265625 163.40625 C 263.042969 163.304688 262.789062 163.171875 262.507812 163.007812 C 261.796875 162.582031 261.121094 162.582031 260.332031 162.648438 C 259.5 162.71875 258.535156 162.488281 258.082031 161.730469 C 258.070312 161.710938 258.054688 161.707031 258.039062 161.722656 Z M 258.039062 161.722656 " fill-opacity="1" fill-rule="nonzero"/></g></g></g><g fill="#c25c61" fill-opacity="1"><g transform="translate(83.073376, 166.140896)"><g><path d="M 22.90625 0.5 C 21.019531 0.5 19.375 0.078125 17.96875 -0.765625 C 16.5625 -1.609375 15.453125 -2.753906 14.640625 -4.203125 C 13.828125 -5.648438 13.363281 -7.257812 13.25 -9.03125 C 13.1875 -10.125 13.195312 -11.03125 13.28125 -11.75 C 13.375 -12.46875 13.488281 -13.128906 13.625 -13.734375 C 13.769531 -14.335938 13.867188 -15.003906 13.921875 -15.734375 L 13.578125 -15.984375 C 13.328125 -15.785156 13.046875 -15.6875 12.734375 -15.6875 C 12.171875 -15.6875 11.734375 -15.84375 11.421875 -16.15625 C 11.117188 -16.46875 10.96875 -16.863281 10.96875 -17.34375 C 10.96875 -17.789062 11.117188 -18.160156 11.421875 -18.453125 C 11.734375 -18.753906 12.160156 -18.90625 12.703125 -18.90625 C 13.117188 -18.90625 13.550781 -18.738281 14 -18.40625 C 14.457031 -18.082031 14.710938 -17.597656 14.765625 -16.953125 C 15.742188 -16.671875 16.753906 -16.695312 17.796875 -17.03125 C 18.835938 -17.375 19.71875 -17.972656 20.4375 -18.828125 C 21.15625 -19.691406 21.515625 -20.753906 21.515625 -22.015625 C 21.515625 -23.222656 21.265625 -24.328125 20.765625 -25.328125 C 20.273438 -26.328125 19.484375 -27.128906 18.390625 -27.734375 C 17.296875 -28.335938 15.832031 -28.640625 14 -28.640625 L 7.671875 -28.640625 L 7.671875 -10.796875 C 7.671875 -8.015625 7.832031 -5.75 8.15625 -4 C 8.476562 -2.257812 8.828125 -1.09375 9.203125 -0.5 L 9.203125 0 L 1.3125 0 L 1.3125 -0.5 C 2.125 -1.769531 2.53125 -5.203125 2.53125 -10.796875 L 2.53125 -18.6875 C 2.53125 -21.53125 2.421875 -23.816406 2.203125 -25.546875 C 1.992188 -27.273438 1.695312 -28.4375 1.3125 -29.03125 L 1.3125 -29.53125 L 15.953125 -29.53125 C 19.429688 -29.53125 21.960938 -28.832031 23.546875 -27.4375 C 25.140625 -26.050781 25.9375 -24.316406 25.9375 -22.234375 C 25.9375 -20.859375 25.597656 -19.65625 24.921875 -18.625 C 24.253906 -17.59375 23.378906 -16.78125 22.296875 -16.1875 C 21.210938 -15.601562 20.054688 -15.269531 18.828125 -15.1875 C 17.609375 -15.101562 16.460938 -15.300781 15.390625 -15.78125 L 15.140625 -15.53125 C 15.484375 -13.976562 15.882812 -12.441406 16.34375 -10.921875 C 16.8125 -9.398438 17.394531 -8.035156 18.09375 -6.828125 C 18.800781 -5.617188 19.660156 -4.648438 20.671875 -3.921875 C 21.679688 -3.191406 22.90625 -2.828125 24.34375 -2.828125 C 25.382812 -2.828125 26.328125 -3.066406 27.171875 -3.546875 C 28.015625 -4.023438 28.6875 -4.675781 29.1875 -5.5 C 29.695312 -6.332031 29.953125 -7.269531 29.953125 -8.3125 C 29.953125 -9.6875 29.570312 -10.84375 28.8125 -11.78125 C 28.050781 -12.726562 27.007812 -13.203125 25.6875 -13.203125 C 24.644531 -13.203125 23.828125 -12.84375 23.234375 -12.125 C 22.648438 -11.40625 22.359375 -10.640625 22.359375 -9.828125 C 22.359375 -8.953125 22.601562 -8.269531 23.09375 -7.78125 C 23.582031 -7.289062 24.238281 -7.144531 25.0625 -7.34375 L 25.09375 -6.921875 C 24.957031 -6.835938 24.769531 -6.773438 24.53125 -6.734375 C 24.289062 -6.691406 24.054688 -6.671875 23.828125 -6.671875 C 22.898438 -6.671875 22.054688 -7.039062 21.296875 -7.78125 C 20.546875 -8.53125 20.171875 -9.46875 20.171875 -10.59375 C 20.171875 -11.820312 20.613281 -12.914062 21.5 -13.875 C 22.382812 -14.832031 23.554688 -15.3125 25.015625 -15.3125 C 26.171875 -15.3125 27.210938 -15.007812 28.140625 -14.40625 C 29.066406 -13.800781 29.800781 -12.945312 30.34375 -11.84375 C 30.894531 -10.75 31.171875 -9.488281 31.171875 -8.0625 C 31.171875 -6.375 30.796875 -4.890625 30.046875 -3.609375 C 29.304688 -2.328125 28.3125 -1.320312 27.0625 -0.59375 C 25.8125 0.132812 24.425781 0.5 22.90625 0.5 Z M 22.90625 0.5 "/></g></g></g><g fill="#c25c61" fill-opacity="1"><g transform="translate(114.967176, 166.140896)"><g><path d="M 4.6875 -26.78125 C 3.894531 -26.78125 3.203125 -27.0625 2.609375 -27.625 C 2.023438 -28.1875 1.734375 -28.863281 1.734375 -29.65625 C 1.734375 -30.46875 2.023438 -31.148438 2.609375 -31.703125 C 3.203125 -32.253906 3.894531 -32.53125 4.6875 -32.53125 C 5.5 -32.53125 6.195312 -32.253906 6.78125 -31.703125 C 7.375 -31.148438 7.671875 -30.46875 7.671875 -29.65625 C 7.671875 -28.863281 7.375 -28.1875 6.78125 -27.625 C 6.195312 -27.0625 5.5 -26.78125 4.6875 -26.78125 Z M 1.6875 0 L 1.6875 -0.5 C 2.019531 -1.09375 2.285156 -2.242188 2.484375 -3.953125 C 2.679688 -5.671875 2.78125 -7.925781 2.78125 -10.71875 L 2.78125 -14.96875 C 2.75 -17.132812 2.617188 -18.703125 2.390625 -19.671875 C 2.171875 -20.648438 1.910156 -21.304688 1.609375 -21.640625 L 1.609375 -22.0625 C 2.535156 -22.113281 3.46875 -22.273438 4.40625 -22.546875 C 5.351562 -22.816406 6.132812 -23.21875 6.75 -23.75 L 7.21875 -23.75 L 7.21875 -10.71875 C 7.21875 -5.113281 7.582031 -1.707031 8.3125 -0.5 L 8.3125 0 Z M 1.6875 0 "/></g></g></g><g fill="#c25c61" fill-opacity="1"><g transform="translate(124.585946, 166.140896)"><g><path d="M 15.4375 0.5 C 12.820312 0.5 10.410156 0.015625 8.203125 -0.953125 C 5.992188 -1.921875 4.101562 -3.234375 2.53125 -4.890625 L 2.53125 -21.9375 C 2.53125 -24.351562 2.398438 -26.070312 2.140625 -27.09375 C 1.890625 -28.125 1.613281 -28.820312 1.3125 -29.1875 L 1.3125 -29.609375 C 2.238281 -29.671875 3.171875 -29.832031 4.109375 -30.09375 C 5.054688 -30.363281 5.835938 -30.765625 6.453125 -31.296875 L 6.921875 -31.296875 L 6.921875 -16.703125 L 7.296875 -16.703125 C 8.003906 -18.953125 9.125 -20.675781 10.65625 -21.875 C 12.1875 -23.070312 14.132812 -23.671875 16.5 -23.671875 C 18.519531 -23.671875 20.269531 -23.140625 21.75 -22.078125 C 23.226562 -21.023438 24.363281 -19.59375 25.15625 -17.78125 C 25.957031 -15.96875 26.359375 -13.90625 26.359375 -11.59375 C 26.359375 -9.257812 25.863281 -7.175781 24.875 -5.34375 C 23.894531 -3.519531 22.582031 -2.085938 20.9375 -1.046875 C 19.300781 -0.015625 17.46875 0.5 15.4375 0.5 Z M 14.390625 -0.46875 C 15.796875 -0.46875 17.0625 -0.898438 18.1875 -1.765625 C 19.3125 -2.640625 20.203125 -3.867188 20.859375 -5.453125 C 21.523438 -7.046875 21.859375 -8.910156 21.859375 -11.046875 C 21.859375 -13.191406 21.578125 -15.0625 21.015625 -16.65625 C 20.453125 -18.257812 19.65625 -19.503906 18.625 -20.390625 C 17.59375 -21.273438 16.375 -21.71875 14.96875 -21.71875 C 13.144531 -21.71875 11.632812 -21.035156 10.4375 -19.671875 C 9.238281 -18.316406 8.351562 -16.46875 7.78125 -14.125 C 7.207031 -11.789062 6.921875 -9.164062 6.921875 -6.25 C 7.398438 -4.863281 8.082031 -3.742188 8.96875 -2.890625 C 9.851562 -2.035156 10.785156 -1.414062 11.765625 -1.03125 C 12.753906 -0.65625 13.628906 -0.46875 14.390625 -0.46875 Z M 14.390625 -0.46875 "/></g></g></g><g fill="#c25c61" fill-opacity="1"><g transform="translate(152.007865, 166.140896)"><g><path d="M 15.4375 0.5 C 12.820312 0.5 10.410156 0.015625 8.203125 -0.953125 C 5.992188 -1.921875 4.101562 -3.234375 2.53125 -4.890625 L 2.53125 -21.9375 C 2.53125 -24.351562 2.398438 -26.070312 2.140625 -27.09375 C 1.890625 -28.125 1.613281 -28.820312 1.3125 -29.1875 L 1.3125 -29.609375 C 2.238281 -29.671875 3.171875 -29.832031 4.109375 -30.09375 C 5.054688 -30.363281 5.835938 -30.765625 6.453125 -31.296875 L 6.921875 -31.296875 L 6.921875 -16.703125 L 7.296875 -16.703125 C 8.003906 -18.953125 9.125 -20.675781 10.65625 -21.875 C 12.1875 -23.070312 14.132812 -23.671875 16.5 -23.671875 C 18.519531 -23.671875 20.269531 -23.140625 21.75 -22.078125 C 23.226562 -21.023438 24.363281 -19.59375 25.15625 -17.78125 C 25.957031 -15.96875 26.359375 -13.90625 26.359375 -11.59375 C 26.359375 -9.257812 25.863281 -7.175781 24.875 -5.34375 C 23.894531 -3.519531 22.582031 -2.085938 20.9375 -1.046875 C 19.300781 -0.015625 17.46875 0.5 15.4375 0.5 Z M 14.390625 -0.46875 C 15.796875 -0.46875 17.0625 -0.898438 18.1875 -1.765625 C 19.3125 -2.640625 20.203125 -3.867188 20.859375 -5.453125 C 21.523438 -7.046875 21.859375 -8.910156 21.859375 -11.046875 C 21.859375 -13.191406 21.578125 -15.0625 21.015625 -16.65625 C 20.453125 -18.257812 19.65625 -19.503906 18.625 -20.390625 C 17.59375 -21.273438 16.375 -21.71875 14.96875 -21.71875 C 13.144531 -21.71875 11.632812 -21.035156 10.4375 -19.671875 C 9.238281 -18.316406 8.351562 -16.46875 7.78125 -14.125 C 7.207031 -11.789062 6.921875 -9.164062 6.921875 -6.25 C 7.398438 -4.863281 8.082031 -3.742188 8.96875 -2.890625 C 9.851562 -2.035156 10.785156 -1.414062 11.765625 -1.03125 C 12.753906 -0.65625 13.628906 -0.46875 14.390625 -0.46875 Z M 14.390625 -0.46875 "/></g></g></g><g fill="#c25c61" fill-opacity="1"><g transform="translate(179.429784, 166.140896)"><g><path d="M 13.578125 0.5 C 11.222656 0.5 9.101562 -0.015625 7.21875 -1.046875 C 5.332031 -2.085938 3.835938 -3.519531 2.734375 -5.34375 C 1.640625 -7.175781 1.09375 -9.257812 1.09375 -11.59375 C 1.09375 -13.9375 1.640625 -16.019531 2.734375 -17.84375 C 3.835938 -19.675781 5.332031 -21.109375 7.21875 -22.140625 C 9.101562 -23.179688 11.222656 -23.703125 13.578125 -23.703125 C 15.972656 -23.703125 18.101562 -23.179688 19.96875 -22.140625 C 21.84375 -21.109375 23.320312 -19.675781 24.40625 -17.84375 C 25.488281 -16.019531 26.03125 -13.9375 26.03125 -11.59375 C 26.03125 -9.257812 25.488281 -7.175781 24.40625 -5.34375 C 23.320312 -3.519531 21.84375 -2.085938 19.96875 -1.046875 C 18.101562 -0.015625 15.972656 0.5 13.578125 0.5 Z M 13.578125 -0.421875 C 15.097656 -0.421875 16.460938 -0.875 17.671875 -1.78125 C 18.878906 -2.695312 19.832031 -3.992188 20.53125 -5.671875 C 21.238281 -7.347656 21.59375 -9.320312 21.59375 -11.59375 C 21.59375 -13.875 21.238281 -15.847656 20.53125 -17.515625 C 19.832031 -19.191406 18.878906 -20.488281 17.671875 -21.40625 C 16.460938 -22.320312 15.097656 -22.78125 13.578125 -22.78125 C 12.066406 -22.78125 10.703125 -22.320312 9.484375 -21.40625 C 8.273438 -20.488281 7.316406 -19.191406 6.609375 -17.515625 C 5.910156 -15.847656 5.5625 -13.875 5.5625 -11.59375 C 5.5625 -9.320312 5.910156 -7.347656 6.609375 -5.671875 C 7.316406 -3.992188 8.273438 -2.695312 9.484375 -1.78125 C 10.703125 -0.875 12.066406 -0.421875 13.578125 -0.421875 Z M 13.578125 -0.421875 "/></g></g></g><g fill="#c25c61" fill-opacity="1"><g transform="translate(206.556388, 166.140896)"><g><path d="M 1.4375 0 L 1.4375 -0.5 C 1.769531 -1.09375 2.035156 -2.253906 2.234375 -3.984375 C 2.429688 -5.710938 2.53125 -7.96875 2.53125 -10.75 L 2.53125 -14.421875 C 2.53125 -16.847656 2.398438 -18.570312 2.140625 -19.59375 C 1.890625 -20.625 1.613281 -21.320312 1.3125 -21.6875 L 1.3125 -22.109375 C 2.257812 -22.160156 3.195312 -22.3125 4.125 -22.5625 C 5.0625 -22.820312 5.835938 -23.21875 6.453125 -23.75 L 6.921875 -23.75 L 6.921875 -18.640625 L 7.34375 -18.640625 C 7.957031 -20.222656 8.96875 -21.460938 10.375 -22.359375 C 11.78125 -23.253906 13.425781 -23.703125 15.3125 -23.703125 C 17.164062 -23.703125 18.78125 -23.265625 20.15625 -22.390625 C 21.539062 -21.523438 22.613281 -20.359375 23.375 -18.890625 C 24.132812 -17.429688 24.515625 -15.816406 24.515625 -14.046875 L 24.515625 -10.71875 C 24.515625 -5.144531 24.894531 -1.738281 25.65625 -0.5 L 25.65625 0 L 18.984375 0 L 18.984375 -0.5 C 19.742188 -1.738281 20.125 -5.144531 20.125 -10.71875 L 20.125 -14.390625 C 20.125 -15.710938 19.847656 -16.898438 19.296875 -17.953125 C 18.753906 -19.003906 17.984375 -19.847656 16.984375 -20.484375 C 15.984375 -21.117188 14.820312 -21.4375 13.5 -21.4375 C 12.175781 -21.4375 11.019531 -21.125 10.03125 -20.5 C 9.050781 -19.882812 8.285156 -19.039062 7.734375 -17.96875 C 7.191406 -16.90625 6.921875 -15.710938 6.921875 -14.390625 L 6.921875 -10.71875 C 6.921875 -5.144531 7.300781 -1.738281 8.0625 -0.5 L 8.0625 0 Z M 1.4375 0 "/></g></g></g><g fill="#c25c61" fill-opacity="1"><g transform="translate(233.483526, 166.140896)"><g/></g></g><g fill="#c25c61" fill-opacity="1"><g transform="translate(83.073376, 203.640894)"><g><path d="M 16.53125 0.5 C 14.476562 0.5 12.695312 0.0546875 11.1875 -0.828125 C 9.6875 -1.710938 8.65625 -3.023438 8.09375 -4.765625 L 7.71875 -4.765625 L 7.71875 0 L 1.3125 0 L 1.3125 -0.5 C 1.695312 -1.09375 2.003906 -2.269531 2.234375 -4.03125 C 2.460938 -5.789062 2.578125 -8.078125 2.578125 -10.890625 L 2.578125 -18.609375 C 2.578125 -21.441406 2.460938 -23.738281 2.234375 -25.5 C 2.003906 -27.257812 1.695312 -28.4375 1.3125 -29.03125 L 1.3125 -29.53125 L 16.109375 -29.53125 C 18.359375 -29.53125 20.03125 -29.09375 21.125 -28.21875 C 22.226562 -27.351562 22.78125 -26.257812 22.78125 -24.9375 C 22.78125 -24.007812 22.46875 -23.226562 21.84375 -22.59375 C 21.226562 -21.957031 20.414062 -21.476562 19.40625 -21.15625 C 18.394531 -20.832031 17.296875 -20.671875 16.109375 -20.671875 L 15.390625 -20.671875 L 15.390625 -20.203125 L 16.078125 -20.203125 C 18.429688 -20.203125 20.519531 -19.773438 22.34375 -18.921875 C 24.175781 -18.066406 25.613281 -16.878906 26.65625 -15.359375 C 27.695312 -13.835938 28.21875 -12.09375 28.21875 -10.125 C 28.21875 -8.125 27.773438 -6.320312 26.890625 -4.71875 C 26.003906 -3.113281 24.695312 -1.84375 22.96875 -0.90625 C 21.238281 0.03125 19.09375 0.5 16.53125 0.5 Z M 7.71875 -20.875 L 12.3125 -20.875 C 14 -20.875 15.300781 -21.25 16.21875 -22 C 17.132812 -22.75 17.59375 -23.6875 17.59375 -24.8125 C 17.59375 -25.820312 17.289062 -26.710938 16.6875 -27.484375 C 16.082031 -28.253906 15.101562 -28.640625 13.75 -28.640625 L 7.71875 -28.640625 Z M 15.78125 -0.421875 C 17.1875 -0.421875 18.453125 -0.757812 19.578125 -1.4375 C 20.703125 -2.113281 21.597656 -3.097656 22.265625 -4.390625 C 22.941406 -5.679688 23.28125 -7.238281 23.28125 -9.0625 C 23.28125 -10.382812 23.066406 -11.6875 22.640625 -12.96875 C 22.222656 -14.25 21.597656 -15.414062 20.765625 -16.46875 C 19.941406 -17.53125 18.9375 -18.367188 17.75 -18.984375 C 16.570312 -19.597656 15.222656 -19.90625 13.703125 -19.90625 L 7.71875 -19.90625 L 7.71875 -10.25 L 8.0625 -10.25 C 8.363281 -11.488281 8.9375 -12.46875 9.78125 -13.1875 C 10.625 -13.90625 11.597656 -14.265625 12.703125 -14.265625 C 13.765625 -14.265625 14.644531 -14.003906 15.34375 -13.484375 C 16.050781 -12.960938 16.582031 -12.300781 16.9375 -11.5 C 17.289062 -10.695312 17.46875 -9.84375 17.46875 -8.9375 C 17.46875 -8.601562 17.425781 -8.1875 17.34375 -7.6875 C 17.257812 -7.195312 17.144531 -6.859375 17 -6.671875 L 16.53125 -6.671875 C 16.613281 -7.398438 16.539062 -8.144531 16.3125 -8.90625 C 16.09375 -9.664062 15.703125 -10.3125 15.140625 -10.84375 C 14.578125 -11.375 13.816406 -11.640625 12.859375 -11.640625 C 11.734375 -11.640625 10.804688 -11.175781 10.078125 -10.25 C 9.347656 -9.320312 8.984375 -8.054688 8.984375 -6.453125 C 8.984375 -5.378906 9.269531 -4.382812 9.84375 -3.46875 C 10.425781 -2.5625 11.226562 -1.828125 12.25 -1.265625 C 13.28125 -0.703125 14.457031 -0.421875 15.78125 -0.421875 Z M 15.78125 -0.421875 "/></g></g></g><g fill="#c25c61" fill-opacity="1"><g transform="translate(112.351549, 203.640894)"><g><path d="M 13.578125 0.5 C 11.222656 0.5 9.101562 -0.015625 7.21875 -1.046875 C 5.332031 -2.085938 3.835938 -3.519531 2.734375 -5.34375 C 1.640625 -7.175781 1.09375 -9.257812 1.09375 -11.59375 C 1.09375 -13.9375 1.640625 -16.019531 2.734375 -17.84375 C 3.835938 -19.675781 5.332031 -21.109375 7.21875 -22.140625 C 9.101562 -23.179688 11.222656 -23.703125 13.578125 -23.703125 C 15.972656 -23.703125 18.101562 -23.179688 19.96875 -22.140625 C 21.84375 -21.109375 23.320312 -19.675781 24.40625 -17.84375 C 25.488281 -16.019531 26.03125 -13.9375 26.03125 -11.59375 C 26.03125 -9.257812 25.488281 -7.175781 24.40625 -5.34375 C 23.320312 -3.519531 21.84375 -2.085938 19.96875 -1.046875 C 18.101562 -0.015625 15.972656 0.5 13.578125 0.5 Z M 13.578125 -0.421875 C 15.097656 -0.421875 16.460938 -0.875 17.671875 -1.78125 C 18.878906 -2.695312 19.832031 -3.992188 20.53125 -5.671875 C 21.238281 -7.347656 21.59375 -9.320312 21.59375 -11.59375 C 21.59375 -13.875 21.238281 -15.847656 20.53125 -17.515625 C 19.832031 -19.191406 18.878906 -20.488281 17.671875 -21.40625 C 16.460938 -22.320312 15.097656 -22.78125 13.578125 -22.78125 C 12.066406 -22.78125 10.703125 -22.320312 9.484375 -21.40625 C 8.273438 -20.488281 7.316406 -19.191406 6.609375 -17.515625 C 5.910156 -15.847656 5.5625 -13.875 5.5625 -11.59375 C 5.5625 -9.320312 5.910156 -7.347656 6.609375 -5.671875 C 7.316406 -3.992188 8.273438 -2.695312 9.484375 -1.78125 C 10.703125 -0.875 12.066406 -0.421875 13.578125 -0.421875 Z M 13.578125 -0.421875 "/></g></g></g><g fill="#c25c61" fill-opacity="1"><g transform="translate(139.478153, 203.640894)"><g><path d="M 1.3125 -0.046875 L 1.3125 -0.546875 C 2.175781 -1.109375 3.238281 -2.148438 4.5 -3.671875 C 5.769531 -5.191406 7.320312 -7.316406 9.15625 -10.046875 L 10.625 -12.015625 L 9.828125 -13.15625 C 8.898438 -14.425781 7.992188 -15.710938 7.109375 -17.015625 C 6.222656 -18.328125 5.382812 -19.492188 4.59375 -20.515625 C 3.8125 -21.546875 3.066406 -22.257812 2.359375 -22.65625 L 2.359375 -23.203125 L 9.875 -23.203125 L 9.875 -22.703125 C 9.894531 -22.140625 10.242188 -21.164062 10.921875 -19.78125 C 11.597656 -18.40625 12.710938 -16.492188 14.265625 -14.046875 L 14.71875 -14.046875 C 16.238281 -16.410156 17.347656 -18.273438 18.046875 -19.640625 C 18.753906 -21.003906 19.09375 -22.023438 19.0625 -22.703125 L 19.0625 -23.203125 L 22.78125 -23.203125 L 22.78125 -22.703125 C 21.90625 -22.140625 20.898438 -21.109375 19.765625 -19.609375 C 18.628906 -18.117188 17.144531 -16.148438 15.3125 -13.703125 L 14.890625 -13.125 L 16.953125 -10.046875 C 17.910156 -8.773438 18.851562 -7.476562 19.78125 -6.15625 C 20.707031 -4.832031 21.578125 -3.65625 22.390625 -2.625 C 23.210938 -1.601562 23.929688 -0.894531 24.546875 -0.5 L 24.546875 0 L 17 0 L 17 -0.5 C 17 -0.894531 16.820312 -1.5 16.46875 -2.3125 C 16.125 -3.132812 15.535156 -4.253906 14.703125 -5.671875 C 13.867188 -7.085938 12.722656 -8.910156 11.265625 -11.140625 L 10.84375 -11.140625 C 9.375 -8.941406 8.222656 -7.128906 7.390625 -5.703125 C 6.566406 -4.285156 5.984375 -3.171875 5.640625 -2.359375 C 5.304688 -1.546875 5.128906 -0.941406 5.109375 -0.546875 L 5.109375 -0.046875 Z M 1.3125 -0.046875 "/></g></g></g><g clip-path="url(#0164125807)"><path fill="#fbc943" d="M 66.1875 113.363281 C 67.703125 113.363281 66.304688 122.394531 68.914062 125.875 C 70.789062 128.375 77.4375 127.453125 77.4375 128.363281 C 77.4375 129.269531 70.308594 128.191406 68.4375 130.691406 C 65.824219 134.171875 67.359375 143.359375 66.1875 143.359375 C 65.019531 143.359375 66.523438 134.007812 63.910156 130.527344 C 62.035156 128.03125 54.9375 129.273438 54.9375 128.363281 C 54.9375 127.449219 61.898438 128.375 63.769531 125.875 C 66.382812 122.394531 64.671875 113.363281 66.1875 113.363281 Z M 66.1875 113.363281 " fill-opacity="1" fill-rule="evenodd"/></g></svg>