<svg xmlns="http://www.w3.org/2000/svg" xmlns:xlink="http://www.w3.org/1999/xlink" width="500" zoomAndPan="magnify" viewBox="0 0 375 374.999991" height="500" preserveAspectRatio="xMidYMid meet" version="1.0"><defs><g/><clipPath id="cfd4bad0bb"><path d="M 234 139 L 290 139 L 290 187 L 234 187 Z M 234 139 " clip-rule="nonzero"/></clipPath><clipPath id="46255f2da4"><path d="M 240.191406 138.0625 L 292.140625 149.753906 L 283.417969 188.535156 L 231.464844 176.84375 Z M 240.191406 138.0625 " clip-rule="nonzero"/></clipPath><clipPath id="824238f2cf"><path d="M 240.191406 138.0625 L 292.140625 149.753906 L 283.417969 188.535156 L 231.464844 176.84375 Z M 240.191406 138.0625 " clip-rule="nonzero"/></clipPath><clipPath id="6573496aaa"><path d="M 54.9375 113.363281 L 77.4375 113.363281 L 77.4375 143.359375 L 54.9375 143.359375 Z M 54.9375 113.363281 " clip-rule="nonzero"/></clipPath></defs><g clip-path="url(#cfd4bad0bb)"><g clip-path="url(#46255f2da4)"><g clip-path="url(#824238f2cf)"><path fill="#c25c61" d="M 258.039062 162.273438 C 256.351562 164.078125 254.671875 165.832031 253.003906 167.535156 C 252.660156 167.886719 252.316406 168.234375 251.972656 168.574219 C 250.078125 170.449219 248.160156 172.253906 246.15625 173.851562 C 245.296875 174.539062 244.417969 175.171875 243.511719 175.753906 C 242.621094 176.328125 241.710938 176.824219 240.777344 177.25 C 239.9375 177.632812 239.179688 177.894531 238.496094 178.035156 C 238.292969 178.078125 238.078125 178.085938 237.855469 178.058594 C 237.820312 178.054688 237.808594 178.035156 237.8125 178 L 238.636719 172.371094 C 238.644531 172.335938 238.632812 172.308594 238.605469 172.285156 C 236.792969 170.929688 235.492188 169.214844 234.699219 167.144531 C 234.515625 166.65625 234.367188 166.082031 234.285156 165.550781 C 234.277344 165.492188 234.300781 165.457031 234.363281 165.453125 C 234.511719 165.441406 234.652344 165.429688 234.785156 165.410156 C 239.886719 164.699219 244.824219 163.839844 249.59375 162.835938 C 251.363281 162.464844 253.296875 162.003906 255.402344 161.453125 C 256.1875 161.246094 256.996094 160.992188 257.804688 160.757812 C 257.832031 160.75 257.84375 160.730469 257.839844 160.703125 L 257.792969 160.460938 C 257.789062 160.4375 257.773438 160.425781 257.75 160.433594 C 257.535156 160.484375 257.320312 160.527344 257.109375 160.5625 C 255.019531 160.910156 252.816406 161.175781 250.507812 161.363281 C 247.824219 161.582031 245.136719 161.644531 242.449219 161.550781 C 240.890625 161.492188 239.246094 161.355469 237.519531 161.136719 C 237.433594 161.125 237.371094 161.113281 237.324219 161.035156 C 236.917969 160.34375 236.660156 159.589844 236.554688 158.773438 C 236.386719 157.476562 236.464844 156.234375 236.644531 154.886719 C 236.871094 153.171875 237.269531 151.503906 237.839844 149.886719 C 238.664062 147.542969 239.660156 145.394531 241.023438 143.34375 C 241.519531 142.59375 242.066406 141.914062 242.667969 141.296875 C 243.652344 140.285156 244.773438 139.613281 246.1875 139.660156 C 247.410156 139.699219 248.632812 140.300781 249.640625 141.015625 C 251.089844 142.035156 252.382812 143.316406 253.535156 144.6875 C 254.554688 145.90625 255.523438 147.246094 256.441406 148.707031 C 257.621094 150.585938 258.679688 152.5625 259.613281 154.636719 C 259.628906 154.671875 259.652344 154.679688 259.6875 154.65625 C 259.746094 154.609375 259.777344 154.546875 259.84375 154.503906 C 260.675781 153.972656 261.558594 154.050781 262.390625 154.5625 C 262.902344 154.878906 263.375 155.109375 264 155.125 C 264.242188 155.132812 264.476562 155.125 264.714844 155.097656 C 265.648438 155 266.472656 155.234375 267.023438 156.011719 C 267.089844 156.101562 267.121094 156.195312 267.164062 156.292969 C 267.175781 156.324219 267.195312 156.328125 267.21875 156.304688 C 267.324219 156.199219 267.4375 156.101562 267.550781 156.003906 C 269.503906 154.386719 271.5 152.960938 273.542969 151.730469 C 274.925781 150.898438 276.351562 150.175781 277.828125 149.558594 C 279.101562 149.023438 280.363281 148.632812 281.609375 148.382812 C 282.726562 148.15625 283.925781 148.074219 285 148.320312 C 287.046875 148.792969 287.914062 150.496094 288.402344 152.371094 C 288.707031 153.550781 288.898438 154.820312 288.976562 156.171875 C 289.183594 159.964844 288.738281 163.871094 287.414062 167.433594 C 287.117188 168.230469 286.742188 168.996094 286.285156 169.738281 C 285.796875 170.539062 285.175781 171.179688 284.433594 171.660156 C 284.386719 171.691406 284.339844 171.695312 284.292969 171.679688 C 282.8125 171.21875 281.355469 170.675781 279.917969 170.054688 C 277.445312 168.988281 274.996094 167.753906 272.566406 166.34375 C 270.507812 165.152344 268.441406 163.871094 266.53125 162.5 C 266.46875 162.453125 266.421875 162.410156 266.386719 162.367188 C 266.355469 162.332031 266.324219 162.332031 266.292969 162.367188 L 266.171875 162.519531 C 266.136719 162.558594 266.140625 162.59375 266.179688 162.628906 C 268.652344 164.878906 271.28125 166.996094 274.042969 169.066406 C 277.4375 171.613281 280.859375 174.042969 284.304688 176.359375 C 284.601562 176.558594 284.910156 176.757812 285.234375 176.953125 C 285.277344 176.976562 285.28125 177.007812 285.253906 177.046875 C 285.113281 177.230469 284.992188 177.417969 284.839844 177.59375 C 283.523438 179.097656 281.914062 180.1875 280 180.851562 C 279.488281 181.03125 278.96875 181.164062 278.441406 181.253906 C 278.421875 181.257812 278.410156 181.269531 278.402344 181.289062 L 276.742188 186.789062 C 276.726562 186.832031 276.699219 186.84375 276.65625 186.824219 C 276.195312 186.601562 275.804688 186.328125 275.441406 185.972656 C 274.621094 185.164062 273.878906 184.277344 273.207031 183.304688 C 272.210938 181.867188 271.328125 180.308594 270.554688 178.625 C 268.402344 173.945312 266.792969 168.910156 265.214844 163.894531 C 265.203125 163.851562 265.179688 163.847656 265.148438 163.875 C 265 164 264.832031 164.082031 264.636719 164.113281 C 264.148438 164.195312 263.691406 164.140625 263.265625 163.957031 C 263.042969 163.855469 262.789062 163.722656 262.507812 163.558594 C 261.796875 163.132812 261.121094 163.132812 260.332031 163.199219 C 259.5 163.269531 258.535156 163.039062 258.082031 162.28125 C 258.070312 162.261719 258.054688 162.257812 258.039062 162.273438 Z M 258.039062 162.273438 " fill-opacity="1" fill-rule="nonzero"/></g></g></g><g fill="#c25c61" fill-opacity="1"><g transform="translate(83.073376, 166.541708)"><g><path d="M 22.359375 0.5 C 20.523438 0.5 18.921875 0.0859375 17.546875 -0.734375 C 16.171875 -1.566406 15.082031 -2.6875 14.28125 -4.09375 C 13.488281 -5.507812 13.039062 -7.082031 12.9375 -8.8125 C 12.875 -9.882812 12.882812 -10.769531 12.96875 -11.46875 C 13.050781 -12.164062 13.160156 -12.8125 13.296875 -13.40625 C 13.441406 -14 13.539062 -14.648438 13.59375 -15.359375 L 13.265625 -15.609375 C 13.015625 -15.421875 12.738281 -15.328125 12.4375 -15.328125 C 11.882812 -15.328125 11.457031 -15.476562 11.15625 -15.78125 C 10.851562 -16.082031 10.703125 -16.460938 10.703125 -16.921875 C 10.703125 -17.367188 10.851562 -17.734375 11.15625 -18.015625 C 11.457031 -18.304688 11.867188 -18.453125 12.390625 -18.453125 C 12.804688 -18.453125 13.234375 -18.289062 13.671875 -17.96875 C 14.109375 -17.65625 14.359375 -17.1875 14.421875 -16.5625 C 15.378906 -16.28125 16.363281 -16.304688 17.375 -16.640625 C 18.394531 -16.972656 19.253906 -17.554688 19.953125 -18.390625 C 20.648438 -19.222656 21 -20.257812 21 -21.5 C 21 -22.675781 20.757812 -23.75 20.28125 -24.71875 C 19.800781 -25.695312 19.023438 -26.484375 17.953125 -27.078125 C 16.878906 -27.671875 15.453125 -27.96875 13.671875 -27.96875 L 7.5 -27.96875 L 7.5 -10.546875 C 7.5 -7.828125 7.65625 -5.613281 7.96875 -3.90625 C 8.28125 -2.207031 8.617188 -1.070312 8.984375 -0.5 L 8.984375 0 L 1.28125 0 L 1.28125 -0.5 C 2.070312 -1.726562 2.46875 -5.078125 2.46875 -10.546875 L 2.46875 -18.25 C 2.46875 -21.019531 2.363281 -23.25 2.15625 -24.9375 C 1.957031 -26.625 1.664062 -27.757812 1.28125 -28.34375 L 1.28125 -28.828125 L 15.5625 -28.828125 C 18.96875 -28.828125 21.445312 -28.144531 23 -26.78125 C 24.550781 -25.425781 25.328125 -23.734375 25.328125 -21.703125 C 25.328125 -20.359375 25 -19.1875 24.34375 -18.1875 C 23.6875 -17.1875 22.828125 -16.394531 21.765625 -15.8125 C 20.710938 -15.238281 19.585938 -14.910156 18.390625 -14.828125 C 17.191406 -14.742188 16.070312 -14.9375 15.03125 -15.40625 L 14.78125 -15.15625 C 15.113281 -13.644531 15.503906 -12.144531 15.953125 -10.65625 C 16.410156 -9.175781 16.984375 -7.847656 17.671875 -6.671875 C 18.359375 -5.492188 19.195312 -4.546875 20.1875 -3.828125 C 21.175781 -3.117188 22.367188 -2.765625 23.765625 -2.765625 C 24.785156 -2.765625 25.707031 -2.992188 26.53125 -3.453125 C 27.351562 -3.921875 28.007812 -4.5625 28.5 -5.375 C 29 -6.1875 29.25 -7.097656 29.25 -8.109375 C 29.25 -9.453125 28.875 -10.582031 28.125 -11.5 C 27.382812 -12.425781 26.367188 -12.890625 25.078125 -12.890625 C 24.066406 -12.890625 23.269531 -12.539062 22.6875 -11.84375 C 22.113281 -11.144531 21.828125 -10.394531 21.828125 -9.59375 C 21.828125 -8.738281 22.066406 -8.070312 22.546875 -7.59375 C 23.023438 -7.113281 23.664062 -6.972656 24.46875 -7.171875 L 24.5 -6.75 C 24.363281 -6.664062 24.175781 -6.601562 23.9375 -6.5625 C 23.707031 -6.519531 23.484375 -6.5 23.265625 -6.5 C 22.359375 -6.5 21.535156 -6.863281 20.796875 -7.59375 C 20.054688 -8.320312 19.6875 -9.238281 19.6875 -10.34375 C 19.6875 -11.550781 20.117188 -12.617188 20.984375 -13.546875 C 21.847656 -14.484375 22.992188 -14.953125 24.421875 -14.953125 C 25.546875 -14.953125 26.5625 -14.65625 27.46875 -14.0625 C 28.375 -13.476562 29.09375 -12.648438 29.625 -11.578125 C 30.164062 -10.503906 30.4375 -9.265625 30.4375 -7.859375 C 30.4375 -6.210938 30.070312 -4.765625 29.34375 -3.515625 C 28.613281 -2.265625 27.640625 -1.28125 26.421875 -0.5625 C 25.203125 0.144531 23.847656 0.5 22.359375 0.5 Z M 22.359375 0.5 "/></g></g></g><g fill="#c25c61" fill-opacity="1"><g transform="translate(114.205286, 166.541708)"><g><path d="M 4.578125 -26.15625 C 3.804688 -26.15625 3.128906 -26.425781 2.546875 -26.96875 C 1.972656 -27.519531 1.6875 -28.179688 1.6875 -28.953125 C 1.6875 -29.753906 1.972656 -30.421875 2.546875 -30.953125 C 3.128906 -31.484375 3.804688 -31.75 4.578125 -31.75 C 5.367188 -31.75 6.050781 -31.484375 6.625 -30.953125 C 7.207031 -30.421875 7.5 -29.753906 7.5 -28.953125 C 7.5 -28.179688 7.207031 -27.519531 6.625 -26.96875 C 6.050781 -26.425781 5.367188 -26.15625 4.578125 -26.15625 Z M 1.640625 0 L 1.640625 -0.5 C 1.972656 -1.070312 2.234375 -2.195312 2.421875 -3.875 C 2.617188 -5.550781 2.71875 -7.75 2.71875 -10.46875 L 2.71875 -14.625 C 2.6875 -16.738281 2.5625 -18.269531 2.34375 -19.21875 C 2.125 -20.164062 1.863281 -20.800781 1.5625 -21.125 L 1.5625 -21.546875 C 2.46875 -21.597656 3.378906 -21.753906 4.296875 -22.015625 C 5.222656 -22.273438 5.988281 -22.664062 6.59375 -23.1875 L 7.046875 -23.1875 L 7.046875 -10.46875 C 7.046875 -5 7.398438 -1.675781 8.109375 -0.5 L 8.109375 0 Z M 1.640625 0 "/></g></g></g><g fill="#c25c61" fill-opacity="1"><g transform="translate(123.59427, 166.541708)"><g><path d="M 15.078125 0.5 C 12.523438 0.5 10.171875 0.0234375 8.015625 -0.921875 C 5.859375 -1.867188 4.007812 -3.15625 2.46875 -4.78125 L 2.46875 -21.421875 C 2.46875 -23.773438 2.34375 -25.453125 2.09375 -26.453125 C 1.851562 -27.460938 1.582031 -28.144531 1.28125 -28.5 L 1.28125 -28.90625 C 2.1875 -28.96875 3.097656 -29.128906 4.015625 -29.390625 C 4.929688 -29.648438 5.691406 -30.039062 6.296875 -30.5625 L 6.75 -30.5625 L 6.75 -16.3125 L 7.125 -16.3125 C 7.8125 -18.507812 8.898438 -20.191406 10.390625 -21.359375 C 11.890625 -22.523438 13.796875 -23.109375 16.109375 -23.109375 C 18.078125 -23.109375 19.78125 -22.59375 21.21875 -21.5625 C 22.664062 -20.53125 23.78125 -19.128906 24.5625 -17.359375 C 25.351562 -15.585938 25.75 -13.578125 25.75 -11.328125 C 25.75 -9.046875 25.265625 -7.007812 24.296875 -5.21875 C 23.335938 -3.4375 22.054688 -2.035156 20.453125 -1.015625 C 18.847656 -0.00390625 17.054688 0.5 15.078125 0.5 Z M 14.046875 -0.453125 C 15.421875 -0.453125 16.65625 -0.875 17.75 -1.71875 C 18.851562 -2.570312 19.722656 -3.773438 20.359375 -5.328125 C 21.003906 -6.878906 21.328125 -8.703125 21.328125 -10.796875 C 21.328125 -12.878906 21.050781 -14.703125 20.5 -16.265625 C 19.957031 -17.828125 19.1875 -19.039062 18.1875 -19.90625 C 17.1875 -20.78125 16 -21.21875 14.625 -21.21875 C 12.832031 -21.21875 11.351562 -20.550781 10.1875 -19.21875 C 9.019531 -17.882812 8.15625 -16.078125 7.59375 -13.796875 C 7.03125 -11.515625 6.75 -8.945312 6.75 -6.09375 C 7.21875 -4.75 7.882812 -3.65625 8.75 -2.8125 C 9.613281 -1.976562 10.523438 -1.375 11.484375 -1 C 12.453125 -0.632812 13.304688 -0.453125 14.046875 -0.453125 Z M 14.046875 -0.453125 "/></g></g></g><g fill="#c25c61" fill-opacity="1"><g transform="translate(150.361118, 166.541708)"><g><path d="M 15.078125 0.5 C 12.523438 0.5 10.171875 0.0234375 8.015625 -0.921875 C 5.859375 -1.867188 4.007812 -3.15625 2.46875 -4.78125 L 2.46875 -21.421875 C 2.46875 -23.773438 2.34375 -25.453125 2.09375 -26.453125 C 1.851562 -27.460938 1.582031 -28.144531 1.28125 -28.5 L 1.28125 -28.90625 C 2.1875 -28.96875 3.097656 -29.128906 4.015625 -29.390625 C 4.929688 -29.648438 5.691406 -30.039062 6.296875 -30.5625 L 6.75 -30.5625 L 6.75 -16.3125 L 7.125 -16.3125 C 7.8125 -18.507812 8.898438 -20.191406 10.390625 -21.359375 C 11.890625 -22.523438 13.796875 -23.109375 16.109375 -23.109375 C 18.078125 -23.109375 19.78125 -22.59375 21.21875 -21.5625 C 22.664062 -20.53125 23.78125 -19.128906 24.5625 -17.359375 C 25.351562 -15.585938 25.75 -13.578125 25.75 -11.328125 C 25.75 -9.046875 25.265625 -7.007812 24.296875 -5.21875 C 23.335938 -3.4375 22.054688 -2.035156 20.453125 -1.015625 C 18.847656 -0.00390625 17.054688 0.5 15.078125 0.5 Z M 14.046875 -0.453125 C 15.421875 -0.453125 16.65625 -0.875 17.75 -1.71875 C 18.851562 -2.570312 19.722656 -3.773438 20.359375 -5.328125 C 21.003906 -6.878906 21.328125 -8.703125 21.328125 -10.796875 C 21.328125 -12.878906 21.050781 -14.703125 20.5 -16.265625 C 19.957031 -17.828125 19.1875 -19.039062 18.1875 -19.90625 C 17.1875 -20.78125 16 -21.21875 14.625 -21.21875 C 12.832031 -21.21875 11.351562 -20.550781 10.1875 -19.21875 C 9.019531 -17.882812 8.15625 -16.078125 7.59375 -13.796875 C 7.03125 -11.515625 6.75 -8.945312 6.75 -6.09375 C 7.21875 -4.75 7.882812 -3.65625 8.75 -2.8125 C 9.613281 -1.976562 10.523438 -1.375 11.484375 -1 C 12.453125 -0.632812 13.304688 -0.453125 14.046875 -0.453125 Z M 14.046875 -0.453125 "/></g></g></g><g fill="#c25c61" fill-opacity="1"><g transform="translate(177.127966, 166.541708)"><g><path d="M 13.265625 0.5 C 10.953125 0.5 8.875 -0.00390625 7.03125 -1.015625 C 5.195312 -2.035156 3.742188 -3.4375 2.671875 -5.21875 C 1.609375 -7.007812 1.078125 -9.046875 1.078125 -11.328125 C 1.078125 -13.609375 1.609375 -15.640625 2.671875 -17.421875 C 3.742188 -19.203125 5.195312 -20.597656 7.03125 -21.609375 C 8.875 -22.628906 10.953125 -23.140625 13.265625 -23.140625 C 15.597656 -23.140625 17.675781 -22.628906 19.5 -21.609375 C 21.320312 -20.597656 22.757812 -19.203125 23.8125 -17.421875 C 24.875 -15.640625 25.40625 -13.609375 25.40625 -11.328125 C 25.40625 -9.046875 24.875 -7.007812 23.8125 -5.21875 C 22.757812 -3.4375 21.320312 -2.035156 19.5 -1.015625 C 17.675781 -0.00390625 15.597656 0.5 13.265625 0.5 Z M 13.265625 -0.40625 C 14.742188 -0.40625 16.070312 -0.851562 17.25 -1.75 C 18.4375 -2.644531 19.375 -3.90625 20.0625 -5.53125 C 20.75 -7.164062 21.09375 -9.097656 21.09375 -11.328125 C 21.09375 -13.546875 20.75 -15.472656 20.0625 -17.109375 C 19.375 -18.742188 18.4375 -20.003906 17.25 -20.890625 C 16.070312 -21.785156 14.742188 -22.234375 13.265625 -22.234375 C 11.773438 -22.234375 10.441406 -21.785156 9.265625 -20.890625 C 8.085938 -20.003906 7.15625 -18.742188 6.46875 -17.109375 C 5.78125 -15.472656 5.4375 -13.546875 5.4375 -11.328125 C 5.4375 -9.097656 5.78125 -7.164062 6.46875 -5.53125 C 7.15625 -3.90625 8.085938 -2.644531 9.265625 -1.75 C 10.441406 -0.851562 11.773438 -0.40625 13.265625 -0.40625 Z M 13.265625 -0.40625 "/></g></g></g><g fill="#c25c61" fill-opacity="1"><g transform="translate(203.60656, 166.541708)"><g><path d="M 1.40625 0 L 1.40625 -0.5 C 1.726562 -1.070312 1.984375 -2.203125 2.171875 -3.890625 C 2.367188 -5.578125 2.46875 -7.78125 2.46875 -10.5 L 2.46875 -14.09375 C 2.46875 -16.445312 2.34375 -18.125 2.09375 -19.125 C 1.851562 -20.132812 1.582031 -20.816406 1.28125 -21.171875 L 1.28125 -21.578125 C 2.207031 -21.640625 3.125 -21.789062 4.03125 -22.03125 C 4.9375 -22.28125 5.691406 -22.664062 6.296875 -23.1875 L 6.75 -23.1875 L 6.75 -18.203125 L 7.171875 -18.203125 C 7.773438 -19.742188 8.757812 -20.953125 10.125 -21.828125 C 11.5 -22.703125 13.109375 -23.140625 14.953125 -23.140625 C 16.765625 -23.140625 18.34375 -22.710938 19.6875 -21.859375 C 21.03125 -21.015625 22.070312 -19.878906 22.8125 -18.453125 C 23.5625 -17.023438 23.9375 -15.445312 23.9375 -13.71875 L 23.9375 -10.46875 C 23.9375 -5.03125 24.304688 -1.707031 25.046875 -0.5 L 25.046875 0 L 18.53125 0 L 18.53125 -0.5 C 19.269531 -1.707031 19.640625 -5.03125 19.640625 -10.46875 L 19.640625 -14.046875 C 19.640625 -15.335938 19.375 -16.492188 18.84375 -17.515625 C 18.3125 -18.546875 17.554688 -19.367188 16.578125 -19.984375 C 15.597656 -20.609375 14.46875 -20.921875 13.1875 -20.921875 C 11.894531 -20.921875 10.765625 -20.617188 9.796875 -20.015625 C 8.835938 -19.410156 8.085938 -18.585938 7.546875 -17.546875 C 7.015625 -16.503906 6.75 -15.335938 6.75 -14.046875 L 6.75 -10.46875 C 6.75 -5.03125 7.117188 -1.707031 7.859375 -0.5 L 7.859375 0 Z M 1.40625 0 "/></g></g></g><g fill="#c25c61" fill-opacity="1"><g transform="translate(229.885866, 166.541708)"><g/></g></g><g fill="#c25c61" fill-opacity="1"><g transform="translate(83.073376, 203.291706)"><g><path d="M 16.140625 0.5 C 14.140625 0.5 12.40625 0.0664062 10.9375 -0.796875 C 9.46875 -1.660156 8.457031 -2.945312 7.90625 -4.65625 L 7.53125 -4.65625 L 7.53125 0 L 1.28125 0 L 1.28125 -0.5 C 1.664062 -1.070312 1.96875 -2.210938 2.1875 -3.921875 C 2.40625 -5.640625 2.515625 -7.875 2.515625 -10.625 L 2.515625 -18.15625 C 2.515625 -20.9375 2.40625 -23.179688 2.1875 -24.890625 C 1.96875 -26.609375 1.664062 -27.757812 1.28125 -28.34375 L 1.28125 -28.828125 L 15.734375 -28.828125 C 17.929688 -28.828125 19.5625 -28.398438 20.625 -27.546875 C 21.695312 -26.703125 22.234375 -25.632812 22.234375 -24.34375 C 22.234375 -23.4375 21.929688 -22.671875 21.328125 -22.046875 C 20.722656 -21.429688 19.925781 -20.96875 18.9375 -20.65625 C 17.957031 -20.34375 16.890625 -20.1875 15.734375 -20.1875 L 15.03125 -20.1875 L 15.03125 -19.734375 L 15.6875 -19.734375 C 18 -19.734375 20.046875 -19.3125 21.828125 -18.46875 C 23.609375 -17.632812 25.003906 -16.472656 26.015625 -14.984375 C 27.035156 -13.503906 27.546875 -11.804688 27.546875 -9.890625 C 27.546875 -7.929688 27.113281 -6.171875 26.25 -4.609375 C 25.382812 -3.046875 24.109375 -1.800781 22.421875 -0.875 C 20.734375 0.0390625 18.640625 0.5 16.140625 0.5 Z M 7.53125 -20.390625 L 12.03125 -20.390625 C 13.675781 -20.390625 14.941406 -20.753906 15.828125 -21.484375 C 16.722656 -22.210938 17.171875 -23.125 17.171875 -24.21875 C 17.171875 -25.207031 16.875 -26.078125 16.28125 -26.828125 C 15.695312 -27.585938 14.742188 -27.96875 13.421875 -27.96875 L 7.53125 -27.96875 Z M 15.40625 -0.40625 C 16.78125 -0.40625 18.015625 -0.734375 19.109375 -1.390625 C 20.210938 -2.054688 21.09375 -3.019531 21.75 -4.28125 C 22.40625 -5.539062 22.734375 -7.066406 22.734375 -8.859375 C 22.734375 -10.148438 22.523438 -11.421875 22.109375 -12.671875 C 21.703125 -13.921875 21.09375 -15.054688 20.28125 -16.078125 C 19.46875 -17.109375 18.484375 -17.925781 17.328125 -18.53125 C 16.179688 -19.132812 14.867188 -19.4375 13.390625 -19.4375 L 7.53125 -19.4375 L 7.53125 -10.015625 L 7.859375 -10.015625 C 8.160156 -11.222656 8.722656 -12.175781 9.546875 -12.875 C 10.378906 -13.570312 11.328125 -13.921875 12.390625 -13.921875 C 13.441406 -13.921875 14.304688 -13.664062 14.984375 -13.15625 C 15.671875 -12.644531 16.1875 -12 16.53125 -11.21875 C 16.875 -10.4375 17.046875 -9.609375 17.046875 -8.734375 C 17.046875 -8.398438 17.003906 -7.992188 16.921875 -7.515625 C 16.835938 -7.035156 16.726562 -6.695312 16.59375 -6.5 L 16.140625 -6.5 C 16.222656 -7.21875 16.15625 -7.945312 15.9375 -8.6875 C 15.71875 -9.425781 15.332031 -10.054688 14.78125 -10.578125 C 14.238281 -11.109375 13.5 -11.375 12.5625 -11.375 C 11.46875 -11.375 10.5625 -10.921875 9.84375 -10.015625 C 9.125 -9.109375 8.765625 -7.867188 8.765625 -6.296875 C 8.765625 -5.253906 9.046875 -4.285156 9.609375 -3.390625 C 10.179688 -2.503906 10.96875 -1.785156 11.96875 -1.234375 C 12.96875 -0.679688 14.113281 -0.40625 15.40625 -0.40625 Z M 15.40625 -0.40625 "/></g></g></g><g fill="#c25c61" fill-opacity="1"><g transform="translate(111.652143, 203.291706)"><g><path d="M 13.265625 0.5 C 10.953125 0.5 8.875 -0.00390625 7.03125 -1.015625 C 5.195312 -2.035156 3.742188 -3.4375 2.671875 -5.21875 C 1.609375 -7.007812 1.078125 -9.046875 1.078125 -11.328125 C 1.078125 -13.609375 1.609375 -15.640625 2.671875 -17.421875 C 3.742188 -19.203125 5.195312 -20.597656 7.03125 -21.609375 C 8.875 -22.628906 10.953125 -23.140625 13.265625 -23.140625 C 15.597656 -23.140625 17.675781 -22.628906 19.5 -21.609375 C 21.320312 -20.597656 22.757812 -19.203125 23.8125 -17.421875 C 24.875 -15.640625 25.40625 -13.609375 25.40625 -11.328125 C 25.40625 -9.046875 24.875 -7.007812 23.8125 -5.21875 C 22.757812 -3.4375 21.320312 -2.035156 19.5 -1.015625 C 17.675781 -0.00390625 15.597656 0.5 13.265625 0.5 Z M 13.265625 -0.40625 C 14.742188 -0.40625 16.070312 -0.851562 17.25 -1.75 C 18.4375 -2.644531 19.375 -3.90625 20.0625 -5.53125 C 20.75 -7.164062 21.09375 -9.097656 21.09375 -11.328125 C 21.09375 -13.546875 20.75 -15.472656 20.0625 -17.109375 C 19.375 -18.742188 18.4375 -20.003906 17.25 -20.890625 C 16.070312 -21.785156 14.742188 -22.234375 13.265625 -22.234375 C 11.773438 -22.234375 10.441406 -21.785156 9.265625 -20.890625 C 8.085938 -20.003906 7.15625 -18.742188 6.46875 -17.109375 C 5.78125 -15.472656 5.4375 -13.546875 5.4375 -11.328125 C 5.4375 -9.097656 5.78125 -7.164062 6.46875 -5.53125 C 7.15625 -3.90625 8.085938 -2.644531 9.265625 -1.75 C 10.441406 -0.851562 11.773438 -0.40625 13.265625 -0.40625 Z M 13.265625 -0.40625 "/></g></g></g><g fill="#c25c61" fill-opacity="1"><g transform="translate(138.130737, 203.291706)"><g><path d="M 1.28125 -0.046875 L 1.28125 -0.53125 C 2.125 -1.082031 3.164062 -2.097656 4.40625 -3.578125 C 5.644531 -5.066406 7.15625 -7.140625 8.9375 -9.796875 L 10.375 -11.734375 L 9.59375 -12.84375 C 8.6875 -14.082031 7.800781 -15.335938 6.9375 -16.609375 C 6.070312 -17.890625 5.253906 -19.03125 4.484375 -20.03125 C 3.722656 -21.039062 3 -21.738281 2.3125 -22.125 L 2.3125 -22.65625 L 9.640625 -22.65625 L 9.640625 -22.15625 C 9.660156 -21.601562 10 -20.65625 10.65625 -19.3125 C 11.320312 -17.96875 12.410156 -16.101562 13.921875 -13.71875 L 14.375 -13.71875 C 15.851562 -16.019531 16.9375 -17.835938 17.625 -19.171875 C 18.3125 -20.503906 18.640625 -21.5 18.609375 -22.15625 L 18.609375 -22.65625 L 22.234375 -22.65625 L 22.234375 -22.15625 C 21.390625 -21.601562 20.410156 -20.597656 19.296875 -19.140625 C 18.179688 -17.691406 16.734375 -15.773438 14.953125 -13.390625 L 14.546875 -12.8125 L 16.5625 -9.796875 C 17.488281 -8.566406 18.40625 -7.304688 19.3125 -6.015625 C 20.21875 -4.722656 21.066406 -3.578125 21.859375 -2.578125 C 22.660156 -1.578125 23.363281 -0.882812 23.96875 -0.5 L 23.96875 0 L 16.59375 0 L 16.59375 -0.5 C 16.59375 -0.882812 16.421875 -1.472656 16.078125 -2.265625 C 15.734375 -3.054688 15.15625 -4.144531 14.34375 -5.53125 C 13.539062 -6.925781 12.425781 -8.707031 11 -10.875 L 10.578125 -10.875 C 9.148438 -8.726562 8.03125 -6.960938 7.21875 -5.578125 C 6.414062 -4.191406 5.847656 -3.097656 5.515625 -2.296875 C 5.191406 -1.503906 5.015625 -0.914062 4.984375 -0.53125 L 4.984375 -0.046875 Z M 1.28125 -0.046875 "/></g></g></g><g fill="#ad3542" fill-opacity="1"><g transform="translate(93.329603, 231.619907)"><g><path d="M 1.171875 0 L 1.171875 -9.796875 L 5.015625 -9.796875 C 5.804688 -9.796875 6.488281 -9.648438 7.0625 -9.359375 C 7.644531 -9.078125 8.097656 -8.671875 8.421875 -8.140625 C 8.742188 -7.609375 8.90625 -6.984375 8.90625 -6.265625 C 8.90625 -5.546875 8.742188 -4.921875 8.421875 -4.390625 C 8.097656 -3.859375 7.644531 -3.445312 7.0625 -3.15625 C 6.488281 -2.875 5.804688 -2.734375 5.015625 -2.734375 L 3.40625 -2.734375 L 3.40625 0 Z M 3.390625 -4.640625 L 4.828125 -4.640625 C 5.410156 -4.640625 5.859375 -4.773438 6.171875 -5.046875 C 6.484375 -5.328125 6.640625 -5.726562 6.640625 -6.25 C 6.640625 -6.757812 6.484375 -7.15625 6.171875 -7.4375 C 5.859375 -7.71875 5.410156 -7.859375 4.828125 -7.859375 L 3.390625 -7.859375 Z M 3.390625 -4.640625 "/></g></g></g><g fill="#ad3542" fill-opacity="1"><g transform="translate(102.634405, 231.619907)"><g><path d="M 4.53125 0.203125 C 3.75 0.203125 3.054688 0.0390625 2.453125 -0.28125 C 1.847656 -0.613281 1.378906 -1.070312 1.046875 -1.65625 C 0.710938 -2.238281 0.546875 -2.914062 0.546875 -3.6875 C 0.546875 -4.445312 0.710938 -5.113281 1.046875 -5.6875 C 1.390625 -6.269531 1.863281 -6.722656 2.46875 -7.046875 C 3.070312 -7.378906 3.769531 -7.546875 4.5625 -7.546875 C 5.40625 -7.546875 6.128906 -7.359375 6.734375 -6.984375 C 7.347656 -6.609375 7.816406 -6.082031 8.140625 -5.40625 C 8.460938 -4.738281 8.597656 -3.957031 8.546875 -3.0625 L 2.65625 -3.0625 C 2.757812 -2.5625 2.984375 -2.175781 3.328125 -1.90625 C 3.671875 -1.644531 4.085938 -1.515625 4.578125 -1.515625 C 4.929688 -1.515625 5.253906 -1.582031 5.546875 -1.71875 C 5.835938 -1.851562 6.078125 -2.039062 6.265625 -2.28125 L 8.40625 -2.28125 C 8.09375 -1.507812 7.59375 -0.898438 6.90625 -0.453125 C 6.226562 -0.015625 5.4375 0.203125 4.53125 0.203125 Z M 2.671875 -4.40625 L 6.5 -4.40625 C 6.375 -4.851562 6.144531 -5.207031 5.8125 -5.46875 C 5.476562 -5.726562 5.066406 -5.859375 4.578125 -5.859375 C 4.109375 -5.859375 3.703125 -5.726562 3.359375 -5.46875 C 3.023438 -5.207031 2.796875 -4.851562 2.671875 -4.40625 Z M 2.671875 -4.40625 "/></g></g></g><g fill="#ad3542" fill-opacity="1"><g transform="translate(111.715337, 231.619907)"><g><path d="M 1.0625 0 L 1.0625 -7.34375 L 2.640625 -7.34375 L 2.921875 -6.375 C 3.171875 -6.71875 3.472656 -6.960938 3.828125 -7.109375 C 4.179688 -7.265625 4.628906 -7.34375 5.171875 -7.34375 L 5.96875 -7.34375 L 5.96875 -5.421875 L 5.15625 -5.421875 C 4.539062 -5.421875 4.054688 -5.253906 3.703125 -4.921875 C 3.359375 -4.597656 3.1875 -4.039062 3.1875 -3.25 L 3.1875 0 Z M 1.0625 0 "/></g></g></g><g fill="#ad3542" fill-opacity="1"><g transform="translate(118.151745, 231.619907)"><g><path d="M 3.890625 0.203125 C 3.222656 0.203125 2.640625 0.09375 2.140625 -0.125 C 1.640625 -0.34375 1.25 -0.640625 0.96875 -1.015625 C 0.695312 -1.398438 0.5625 -1.847656 0.5625 -2.359375 L 2.640625 -2.359375 C 2.648438 -2.066406 2.765625 -1.832031 2.984375 -1.65625 C 3.210938 -1.476562 3.523438 -1.390625 3.921875 -1.390625 C 4.253906 -1.390625 4.515625 -1.453125 4.703125 -1.578125 C 4.890625 -1.703125 4.984375 -1.875 4.984375 -2.09375 C 4.984375 -2.320312 4.859375 -2.507812 4.609375 -2.65625 C 4.359375 -2.8125 3.945312 -2.9375 3.375 -3.03125 C 2.4375 -3.207031 1.75 -3.476562 1.3125 -3.84375 C 0.875 -4.21875 0.65625 -4.707031 0.65625 -5.3125 C 0.65625 -6.03125 0.921875 -6.582031 1.453125 -6.96875 C 1.992188 -7.351562 2.757812 -7.546875 3.75 -7.546875 C 4.726562 -7.546875 5.492188 -7.332031 6.046875 -6.90625 C 6.609375 -6.488281 6.910156 -5.894531 6.953125 -5.125 L 4.921875 -5.125 C 4.910156 -5.40625 4.796875 -5.617188 4.578125 -5.765625 C 4.367188 -5.921875 4.085938 -6 3.734375 -6 C 3.421875 -6 3.171875 -5.9375 2.984375 -5.8125 C 2.804688 -5.695312 2.71875 -5.53125 2.71875 -5.3125 C 2.71875 -5.09375 2.835938 -4.921875 3.078125 -4.796875 C 3.316406 -4.671875 3.75 -4.539062 4.375 -4.40625 C 6.175781 -4.039062 7.078125 -3.265625 7.078125 -2.078125 C 7.078125 -1.367188 6.796875 -0.8125 6.234375 -0.40625 C 5.671875 0 4.890625 0.203125 3.890625 0.203125 Z M 3.890625 0.203125 "/></g></g></g><g fill="#ad3542" fill-opacity="1"><g transform="translate(125.805473, 231.619907)"><g><path d="M 4.671875 0.203125 C 3.859375 0.203125 3.140625 0.0390625 2.515625 -0.28125 C 1.898438 -0.613281 1.414062 -1.070312 1.0625 -1.65625 C 0.71875 -2.238281 0.546875 -2.914062 0.546875 -3.6875 C 0.546875 -4.445312 0.71875 -5.113281 1.0625 -5.6875 C 1.414062 -6.269531 1.898438 -6.722656 2.515625 -7.046875 C 3.140625 -7.378906 3.859375 -7.546875 4.671875 -7.546875 C 5.484375 -7.546875 6.195312 -7.378906 6.8125 -7.046875 C 7.4375 -6.722656 7.921875 -6.269531 8.265625 -5.6875 C 8.617188 -5.113281 8.796875 -4.445312 8.796875 -3.6875 C 8.796875 -2.914062 8.617188 -2.238281 8.265625 -1.65625 C 7.921875 -1.070312 7.4375 -0.613281 6.8125 -0.28125 C 6.195312 0.0390625 5.484375 0.203125 4.671875 0.203125 Z M 2.640625 -3.6875 C 2.640625 -3.082031 2.828125 -2.585938 3.203125 -2.203125 C 3.585938 -1.828125 4.078125 -1.640625 4.671875 -1.640625 C 5.273438 -1.640625 5.757812 -1.828125 6.125 -2.203125 C 6.5 -2.585938 6.6875 -3.082031 6.6875 -3.6875 C 6.6875 -4.289062 6.5 -4.78125 6.125 -5.15625 C 5.757812 -5.53125 5.273438 -5.71875 4.671875 -5.71875 C 4.078125 -5.71875 3.585938 -5.53125 3.203125 -5.15625 C 2.828125 -4.78125 2.640625 -4.289062 2.640625 -3.6875 Z M 2.640625 -3.6875 "/></g></g></g><g fill="#ad3542" fill-opacity="1"><g transform="translate(135.138267, 231.619907)"><g><path d="M 1.0625 0 L 1.0625 -7.34375 L 2.640625 -7.34375 L 2.875 -6.53125 C 3.164062 -6.875 3.523438 -7.128906 3.953125 -7.296875 C 4.378906 -7.460938 4.832031 -7.546875 5.3125 -7.546875 C 6.28125 -7.546875 7.035156 -7.242188 7.578125 -6.640625 C 8.128906 -6.046875 8.40625 -5.242188 8.40625 -4.234375 L 8.40625 0 L 6.265625 0 L 6.265625 -4 C 6.265625 -4.539062 6.132812 -4.960938 5.875 -5.265625 C 5.625 -5.566406 5.269531 -5.71875 4.8125 -5.71875 C 4.332031 -5.71875 3.941406 -5.550781 3.640625 -5.21875 C 3.335938 -4.882812 3.1875 -4.425781 3.1875 -3.84375 L 3.1875 0 Z M 1.0625 0 "/></g></g></g><g fill="#ad3542" fill-opacity="1"><g transform="translate(144.457064, 231.619907)"><g><path d="M 3.515625 0.140625 C 2.648438 0.140625 1.960938 -0.0625 1.453125 -0.46875 C 0.953125 -0.875 0.703125 -1.429688 0.703125 -2.140625 C 0.703125 -2.816406 0.925781 -3.359375 1.375 -3.765625 C 1.832031 -4.171875 2.441406 -4.375 3.203125 -4.375 L 5.859375 -4.375 L 5.859375 -4.71875 C 5.859375 -5.082031 5.726562 -5.375 5.46875 -5.59375 C 5.207031 -5.8125 4.867188 -5.921875 4.453125 -5.921875 C 4.109375 -5.921875 3.8125 -5.84375 3.5625 -5.6875 C 3.320312 -5.53125 3.171875 -5.316406 3.109375 -5.046875 L 1.0625 -5.046875 C 1.195312 -5.859375 1.554688 -6.476562 2.140625 -6.90625 C 2.734375 -7.332031 3.5 -7.546875 4.4375 -7.546875 C 5.539062 -7.546875 6.398438 -7.265625 7.015625 -6.703125 C 7.640625 -6.148438 7.953125 -5.390625 7.953125 -4.421875 L 7.953125 0 L 6.375 0 L 6.125 -0.859375 C 5.488281 -0.191406 4.617188 0.140625 3.515625 0.140625 Z M 2.796875 -2.21875 C 2.796875 -1.96875 2.90625 -1.765625 3.125 -1.609375 C 3.34375 -1.460938 3.632812 -1.390625 4 -1.390625 C 4.53125 -1.390625 4.972656 -1.539062 5.328125 -1.84375 C 5.679688 -2.15625 5.863281 -2.554688 5.875 -3.046875 L 3.859375 -3.046875 C 3.546875 -3.046875 3.289062 -2.972656 3.09375 -2.828125 C 2.894531 -2.679688 2.796875 -2.476562 2.796875 -2.21875 Z M 2.796875 -2.21875 "/></g></g></g><g fill="#ad3542" fill-opacity="1"><g transform="translate(153.328112, 231.619907)"><g><path d="M 1.0625 0 L 1.0625 -10.359375 L 3.1875 -10.359375 L 3.1875 0 Z M 1.0625 0 "/></g></g></g><g fill="#ad3542" fill-opacity="1"><g transform="translate(157.581743, 231.619907)"><g><path d="M 1.0625 0 L 1.0625 -7.34375 L 3.1875 -7.34375 L 3.1875 0 Z M 0.75 -9.734375 C 0.75 -10.117188 0.878906 -10.4375 1.140625 -10.6875 C 1.398438 -10.9375 1.726562 -11.0625 2.125 -11.0625 C 2.539062 -11.0625 2.875 -10.9375 3.125 -10.6875 C 3.375 -10.4375 3.5 -10.117188 3.5 -9.734375 C 3.5 -9.335938 3.375 -9.015625 3.125 -8.765625 C 2.875 -8.523438 2.539062 -8.40625 2.125 -8.40625 C 1.726562 -8.40625 1.398438 -8.523438 1.140625 -8.765625 C 0.878906 -9.015625 0.75 -9.335938 0.75 -9.734375 Z M 0.75 -9.734375 "/></g></g></g><g fill="#ad3542" fill-opacity="1"><g transform="translate(161.835374, 231.619907)"><g><path d="M 0.53125 0 L 0.53125 -1.453125 L 4.15625 -5.609375 L 0.65625 -5.609375 L 0.65625 -7.34375 L 6.921875 -7.34375 L 6.921875 -5.90625 L 3.328125 -1.75 L 7 -1.75 L 7 0 Z M 0.53125 0 "/></g></g></g><g fill="#ad3542" fill-opacity="1"><g transform="translate(169.363172, 231.619907)"><g><path d="M 4.53125 0.203125 C 3.75 0.203125 3.054688 0.0390625 2.453125 -0.28125 C 1.847656 -0.613281 1.378906 -1.070312 1.046875 -1.65625 C 0.710938 -2.238281 0.546875 -2.914062 0.546875 -3.6875 C 0.546875 -4.445312 0.710938 -5.113281 1.046875 -5.6875 C 1.390625 -6.269531 1.863281 -6.722656 2.46875 -7.046875 C 3.070312 -7.378906 3.769531 -7.546875 4.5625 -7.546875 C 5.40625 -7.546875 6.128906 -7.359375 6.734375 -6.984375 C 7.347656 -6.609375 7.816406 -6.082031 8.140625 -5.40625 C 8.460938 -4.738281 8.597656 -3.957031 8.546875 -3.0625 L 2.65625 -3.0625 C 2.757812 -2.5625 2.984375 -2.175781 3.328125 -1.90625 C 3.671875 -1.644531 4.085938 -1.515625 4.578125 -1.515625 C 4.929688 -1.515625 5.253906 -1.582031 5.546875 -1.71875 C 5.835938 -1.851562 6.078125 -2.039062 6.265625 -2.28125 L 8.40625 -2.28125 C 8.09375 -1.507812 7.59375 -0.898438 6.90625 -0.453125 C 6.226562 -0.015625 5.4375 0.203125 4.53125 0.203125 Z M 2.671875 -4.40625 L 6.5 -4.40625 C 6.375 -4.851562 6.144531 -5.207031 5.8125 -5.46875 C 5.476562 -5.726562 5.066406 -5.859375 4.578125 -5.859375 C 4.109375 -5.859375 3.703125 -5.726562 3.359375 -5.46875 C 3.023438 -5.207031 2.796875 -4.851562 2.671875 -4.40625 Z M 2.671875 -4.40625 "/></g></g></g><g fill="#ad3542" fill-opacity="1"><g transform="translate(178.444104, 231.619907)"><g/></g></g><g fill="#ad3542" fill-opacity="1"><g transform="translate(181.732266, 231.619907)"><g><path d="M 1.09375 2.796875 L 1.09375 0.96875 L 1.9375 0.96875 C 2.375 0.96875 2.6875 0.898438 2.875 0.765625 C 3.0625 0.628906 3.21875 0.378906 3.34375 0.015625 L 3.4375 -0.234375 L 0.125 -7.34375 L 2.484375 -7.34375 L 4.453125 -2.796875 L 5.125 -4.671875 L 6.109375 -7.34375 L 8.390625 -7.34375 L 5.109375 0.875 C 4.910156 1.375 4.6875 1.765625 4.4375 2.046875 C 4.1875 2.328125 3.875 2.519531 3.5 2.625 C 3.125 2.738281 2.65625 2.796875 2.09375 2.796875 Z M 1.09375 2.796875 "/></g></g></g><g fill="#ad3542" fill-opacity="1"><g transform="translate(190.225521, 231.619907)"><g><path d="M 4.671875 0.203125 C 3.859375 0.203125 3.140625 0.0390625 2.515625 -0.28125 C 1.898438 -0.613281 1.414062 -1.070312 1.0625 -1.65625 C 0.71875 -2.238281 0.546875 -2.914062 0.546875 -3.6875 C 0.546875 -4.445312 0.71875 -5.113281 1.0625 -5.6875 C 1.414062 -6.269531 1.898438 -6.722656 2.515625 -7.046875 C 3.140625 -7.378906 3.859375 -7.546875 4.671875 -7.546875 C 5.484375 -7.546875 6.195312 -7.378906 6.8125 -7.046875 C 7.4375 -6.722656 7.921875 -6.269531 8.265625 -5.6875 C 8.617188 -5.113281 8.796875 -4.445312 8.796875 -3.6875 C 8.796875 -2.914062 8.617188 -2.238281 8.265625 -1.65625 C 7.921875 -1.070312 7.4375 -0.613281 6.8125 -0.28125 C 6.195312 0.0390625 5.484375 0.203125 4.671875 0.203125 Z M 2.640625 -3.6875 C 2.640625 -3.082031 2.828125 -2.585938 3.203125 -2.203125 C 3.585938 -1.828125 4.078125 -1.640625 4.671875 -1.640625 C 5.273438 -1.640625 5.757812 -1.828125 6.125 -2.203125 C 6.5 -2.585938 6.6875 -3.082031 6.6875 -3.6875 C 6.6875 -4.289062 6.5 -4.78125 6.125 -5.15625 C 5.757812 -5.53125 5.273438 -5.71875 4.671875 -5.71875 C 4.078125 -5.71875 3.585938 -5.53125 3.203125 -5.15625 C 2.828125 -4.78125 2.640625 -4.289062 2.640625 -3.6875 Z M 2.640625 -3.6875 "/></g></g></g><g fill="#ad3542" fill-opacity="1"><g transform="translate(199.558314, 231.619907)"><g><path d="M 3.984375 0.203125 C 3.035156 0.203125 2.285156 -0.0976562 1.734375 -0.703125 C 1.191406 -1.304688 0.921875 -2.117188 0.921875 -3.140625 L 0.921875 -7.34375 L 3.046875 -7.34375 L 3.046875 -3.34375 C 3.046875 -2.800781 3.175781 -2.378906 3.4375 -2.078125 C 3.695312 -1.785156 4.050781 -1.640625 4.5 -1.640625 C 4.976562 -1.640625 5.363281 -1.804688 5.65625 -2.140625 C 5.945312 -2.472656 6.09375 -2.929688 6.09375 -3.515625 L 6.09375 -7.34375 L 8.21875 -7.34375 L 8.21875 0 L 6.640625 0 L 6.40625 -0.828125 C 6.125 -0.484375 5.769531 -0.222656 5.34375 -0.046875 C 4.925781 0.117188 4.472656 0.203125 3.984375 0.203125 Z M 3.984375 0.203125 "/></g></g></g><g fill="#ad3542" fill-opacity="1"><g transform="translate(208.835135, 231.619907)"><g><path d="M 1.0625 0 L 1.0625 -7.34375 L 2.640625 -7.34375 L 2.921875 -6.375 C 3.171875 -6.71875 3.472656 -6.960938 3.828125 -7.109375 C 4.179688 -7.265625 4.628906 -7.34375 5.171875 -7.34375 L 5.96875 -7.34375 L 5.96875 -5.421875 L 5.15625 -5.421875 C 4.539062 -5.421875 4.054688 -5.253906 3.703125 -4.921875 C 3.359375 -4.597656 3.1875 -4.039062 3.1875 -3.25 L 3.1875 0 Z M 1.0625 0 "/></g></g></g><g fill="#ad3542" fill-opacity="1"><g transform="translate(215.271543, 231.619907)"><g/></g></g><g fill="#ad3542" fill-opacity="1"><g transform="translate(218.559705, 231.619907)"><g><path d="M 4.671875 0.203125 C 3.859375 0.203125 3.140625 0.0390625 2.515625 -0.28125 C 1.898438 -0.613281 1.414062 -1.070312 1.0625 -1.65625 C 0.71875 -2.238281 0.546875 -2.914062 0.546875 -3.6875 C 0.546875 -4.445312 0.71875 -5.113281 1.0625 -5.6875 C 1.414062 -6.269531 1.898438 -6.722656 2.515625 -7.046875 C 3.140625 -7.378906 3.859375 -7.546875 4.671875 -7.546875 C 5.484375 -7.546875 6.195312 -7.378906 6.8125 -7.046875 C 7.4375 -6.722656 7.921875 -6.269531 8.265625 -5.6875 C 8.617188 -5.113281 8.796875 -4.445312 8.796875 -3.6875 C 8.796875 -2.914062 8.617188 -2.238281 8.265625 -1.65625 C 7.921875 -1.070312 7.4375 -0.613281 6.8125 -0.28125 C 6.195312 0.0390625 5.484375 0.203125 4.671875 0.203125 Z M 2.640625 -3.6875 C 2.640625 -3.082031 2.828125 -2.585938 3.203125 -2.203125 C 3.585938 -1.828125 4.078125 -1.640625 4.671875 -1.640625 C 5.273438 -1.640625 5.757812 -1.828125 6.125 -2.203125 C 6.5 -2.585938 6.6875 -3.082031 6.6875 -3.6875 C 6.6875 -4.289062 6.5 -4.78125 6.125 -5.15625 C 5.757812 -5.53125 5.273438 -5.71875 4.671875 -5.71875 C 4.078125 -5.71875 3.585938 -5.53125 3.203125 -5.15625 C 2.828125 -4.78125 2.640625 -4.289062 2.640625 -3.6875 Z M 2.640625 -3.6875 "/></g></g></g><g fill="#ad3542" fill-opacity="1"><g transform="translate(227.892499, 231.619907)"><g><path d="M 2.84375 0 L 0.125 -7.34375 L 2.375 -7.34375 L 3.234375 -4.90625 L 3.96875 -2.859375 L 4.71875 -4.90625 L 5.625 -7.34375 L 7.34375 -7.34375 L 8.265625 -4.90625 L 9.015625 -2.84375 L 9.75 -4.90625 L 10.609375 -7.34375 L 12.859375 -7.34375 L 10.140625 0 L 8.15625 0 L 6.5 -4.484375 L 4.8125 0 Z M 2.84375 0 "/></g></g></g><g fill="#ad3542" fill-opacity="1"><g transform="translate(240.863255, 231.619907)"><g><path d="M 1.0625 0 L 1.0625 -7.34375 L 2.640625 -7.34375 L 2.875 -6.53125 C 3.164062 -6.875 3.523438 -7.128906 3.953125 -7.296875 C 4.378906 -7.460938 4.832031 -7.546875 5.3125 -7.546875 C 6.28125 -7.546875 7.035156 -7.242188 7.578125 -6.640625 C 8.128906 -6.046875 8.40625 -5.242188 8.40625 -4.234375 L 8.40625 0 L 6.265625 0 L 6.265625 -4 C 6.265625 -4.539062 6.132812 -4.960938 5.875 -5.265625 C 5.625 -5.566406 5.269531 -5.71875 4.8125 -5.71875 C 4.332031 -5.71875 3.941406 -5.550781 3.640625 -5.21875 C 3.335938 -4.882812 3.1875 -4.425781 3.1875 -3.84375 L 3.1875 0 Z M 1.0625 0 "/></g></g></g><g fill="#ad3542" fill-opacity="1"><g transform="translate(250.182052, 231.619907)"><g/></g></g><g fill="#ad3542" fill-opacity="1"><g transform="translate(253.470214, 231.619907)"><g><path d="M 4.640625 3.109375 C 3.578125 3.109375 2.710938 2.863281 2.046875 2.375 C 1.378906 1.894531 1 1.226562 0.90625 0.375 L 2.984375 0.375 C 3.054688 0.695312 3.234375 0.945312 3.515625 1.125 C 3.804688 1.300781 4.171875 1.390625 4.609375 1.390625 C 5.785156 1.390625 6.375 0.789062 6.375 -0.40625 L 6.375 -0.921875 C 6.070312 -0.691406 5.726562 -0.515625 5.34375 -0.390625 C 4.957031 -0.265625 4.546875 -0.203125 4.109375 -0.203125 C 3.410156 -0.203125 2.789062 -0.359375 2.25 -0.671875 C 1.71875 -0.984375 1.300781 -1.414062 1 -1.96875 C 0.695312 -2.519531 0.546875 -3.15625 0.546875 -3.875 C 0.546875 -4.59375 0.695312 -5.226562 1 -5.78125 C 1.300781 -6.332031 1.71875 -6.765625 2.25 -7.078125 C 2.789062 -7.390625 3.410156 -7.546875 4.109375 -7.546875 C 4.628906 -7.546875 5.109375 -7.457031 5.546875 -7.28125 C 5.992188 -7.113281 6.375 -6.863281 6.6875 -6.53125 L 6.921875 -7.34375 L 8.5 -7.34375 L 8.5 -0.40625 C 8.5 0.320312 8.34375 0.945312 8.03125 1.46875 C 7.71875 2 7.269531 2.40625 6.6875 2.6875 C 6.113281 2.96875 5.429688 3.109375 4.640625 3.109375 Z M 2.640625 -3.875 C 2.640625 -3.3125 2.816406 -2.847656 3.171875 -2.484375 C 3.523438 -2.128906 3.984375 -1.953125 4.546875 -1.953125 C 5.109375 -1.953125 5.566406 -2.128906 5.921875 -2.484375 C 6.285156 -2.847656 6.46875 -3.3125 6.46875 -3.875 C 6.46875 -4.4375 6.285156 -4.894531 5.921875 -5.25 C 5.566406 -5.601562 5.109375 -5.78125 4.546875 -5.78125 C 3.984375 -5.78125 3.523438 -5.601562 3.171875 -5.25 C 2.816406 -4.894531 2.640625 -4.4375 2.640625 -3.875 Z M 2.640625 -3.875 "/></g></g></g><g fill="#ad3542" fill-opacity="1"><g transform="translate(263.040873, 231.619907)"><g><path d="M 1.0625 0 L 1.0625 -7.34375 L 3.1875 -7.34375 L 3.1875 0 Z M 0.75 -9.734375 C 0.75 -10.117188 0.878906 -10.4375 1.140625 -10.6875 C 1.398438 -10.9375 1.726562 -11.0625 2.125 -11.0625 C 2.539062 -11.0625 2.875 -10.9375 3.125 -10.6875 C 3.375 -10.4375 3.5 -10.117188 3.5 -9.734375 C 3.5 -9.335938 3.375 -9.015625 3.125 -8.765625 C 2.875 -8.523438 2.539062 -8.40625 2.125 -8.40625 C 1.726562 -8.40625 1.398438 -8.523438 1.140625 -8.765625 C 0.878906 -9.015625 0.75 -9.335938 0.75 -9.734375 Z M 0.75 -9.734375 "/></g></g></g><g fill="#ad3542" fill-opacity="1"><g transform="translate(267.294504, 231.619907)"><g><path d="M 1.796875 -7.9375 C 1.796875 -8.800781 2.03125 -9.460938 2.5 -9.921875 C 2.96875 -10.390625 3.640625 -10.625 4.515625 -10.625 L 6.140625 -10.625 L 6.140625 -8.953125 L 4.984375 -8.953125 C 4.597656 -8.953125 4.316406 -8.859375 4.140625 -8.671875 C 3.960938 -8.492188 3.875 -8.210938 3.875 -7.828125 L 3.875 -7.34375 L 6.078125 -7.34375 L 6.078125 -5.609375 L 3.921875 -5.609375 L 3.921875 0 L 1.796875 0 L 1.796875 -5.609375 L 0.328125 -5.609375 L 0.328125 -7.34375 L 1.796875 -7.34375 Z M 1.796875 -7.9375 "/></g></g></g><g fill="#ad3542" fill-opacity="1"><g transform="translate(273.577001, 231.619907)"><g><path d="M 4.609375 0 C 3.671875 0 2.953125 -0.238281 2.453125 -0.71875 C 1.953125 -1.195312 1.703125 -1.882812 1.703125 -2.78125 L 1.703125 -5.609375 L 0.28125 -5.609375 L 0.28125 -7.34375 L 0.9375 -7.34375 C 1.34375 -7.34375 1.613281 -7.40625 1.75 -7.53125 C 1.894531 -7.664062 2 -7.921875 2.0625 -8.296875 L 2.1875 -9.25 L 3.84375 -9.25 L 3.84375 -7.34375 L 5.859375 -7.34375 L 5.859375 -5.609375 L 3.84375 -5.609375 L 3.84375 -3.109375 C 3.84375 -2.265625 4.25 -1.84375 5.0625 -1.84375 L 5.953125 -1.84375 L 5.953125 0 Z M 4.609375 0 "/></g></g></g><g clip-path="url(#6573496aaa)"><path fill="#fbc943" d="M 66.1875 113.363281 C 67.703125 113.363281 66.304688 122.394531 68.914062 125.875 C 70.789062 128.375 77.4375 127.453125 77.4375 128.363281 C 77.4375 129.269531 70.308594 128.191406 68.4375 130.691406 C 65.824219 134.171875 67.359375 143.359375 66.1875 143.359375 C 65.019531 143.359375 66.523438 134.007812 63.910156 130.527344 C 62.035156 128.03125 54.9375 129.273438 54.9375 128.363281 C 54.9375 127.449219 61.898438 128.375 63.769531 125.875 C 66.382812 122.394531 64.671875 113.363281 66.1875 113.363281 Z M 66.1875 113.363281 " fill-opacity="1" fill-rule="evenodd"/></g></svg>