<svg xmlns="http://www.w3.org/2000/svg" xmlns:xlink="http://www.w3.org/1999/xlink" width="1080" zoomAndPan="magnify" viewBox="0 0 810 809.999993" height="1080" preserveAspectRatio="xMidYMid meet" version="1.2"><g id="1390d76672"><path style=" stroke:none;fill-rule:nonzero;fill:#ffc3bd;fill-opacity:1;" d="M 52.523438 181.347656 C 53.515625 182.234375 54.546875 183.171875 55.015625 184.417969 C 55.648438 186.089844 55.136719 187.976562 54.433594 189.628906 C 53.6875 191.363281 52.71875 193.003906 51.566406 194.496094 C 50.617188 192.984375 49.699219 191.445312 49.167969 189.742188 C 48.628906 188.039062 48.558594 186.109375 49.363281 184.507812 C 49.984375 183.246094 51.351562 182.144531 52.523438 181.347656 Z M 52.523438 181.347656 "/><path style=" stroke:none;fill-rule:nonzero;fill:#ffc3bd;fill-opacity:1;" d="M 60.777344 207.621094 C 59.453125 207.589844 58.054688 207.539062 56.890625 206.898438 C 55.320312 206.03125 54.484375 204.265625 53.941406 202.5625 C 53.382812 200.757812 53.054688 198.890625 52.972656 197.003906 C 54.675781 197.535156 56.371094 198.117188 57.890625 199.054688 C 59.410156 200.003906 60.71875 201.421875 61.144531 203.15625 C 61.480469 204.53125 61.15625 206.253906 60.777344 207.621094 Z M 60.777344 207.621094 "/><path style=" stroke:none;fill-rule:nonzero;fill:#ffc3bd;fill-opacity:1;" d="M 42.90625 207.671875 C 44.230469 207.621094 45.628906 207.550781 46.78125 206.898438 C 48.34375 206.011719 49.160156 204.234375 49.667969 202.523438 C 50.199219 200.714844 50.503906 198.828125 50.566406 196.953125 C 48.863281 197.503906 47.191406 198.105469 45.679688 199.074219 C 44.179688 200.042969 42.882812 201.472656 42.488281 203.214844 C 42.160156 204.59375 42.507812 206.316406 42.90625 207.671875 Z M 42.90625 207.671875 "/><path style=" stroke:none;fill-rule:nonzero;fill:#ffc3bd;fill-opacity:1;" d="M 37.3125 190.773438 C 37.703125 192.046875 38.109375 193.371094 39.039062 194.332031 C 40.292969 195.617188 42.210938 195.964844 44.007812 196.023438 C 45.894531 196.085938 47.792969 195.914062 49.628906 195.496094 C 48.660156 193.984375 47.660156 192.515625 46.34375 191.300781 C 45.027344 190.089844 43.3125 189.199219 41.527344 189.253906 C 40.109375 189.273438 38.539062 190.046875 37.3125 190.773438 Z M 37.3125 190.773438 "/><path style=" stroke:none;fill-rule:nonzero;fill:#ffc3bd;fill-opacity:1;" d="M 66.011719 190.773438 C 65.625 192.046875 65.214844 193.371094 64.289062 194.332031 C 63.03125 195.617188 61.113281 195.964844 59.320312 196.023438 C 57.433594 196.085938 55.535156 195.914062 53.699219 195.496094 C 54.667969 193.984375 55.667969 192.515625 56.984375 191.300781 C 58.300781 190.089844 60.011719 189.199219 61.796875 189.253906 C 63.214844 189.273438 64.789062 190.046875 66.011719 190.773438 Z M 66.011719 190.773438 "/><path style=" stroke:none;fill-rule:nonzero;fill:#ffc3bd;fill-opacity:1;" d="M 53.984375 46.515625 C 54.972656 47.402344 56.003906 48.339844 56.472656 49.585938 C 57.105469 51.257812 56.59375 53.144531 55.890625 54.796875 C 55.148438 56.53125 54.179688 58.171875 53.023438 59.664062 C 52.078125 58.152344 51.15625 56.613281 50.628906 54.910156 C 50.085938 53.207031 50.015625 51.277344 50.820312 49.675781 C 51.433594 48.402344 52.800781 47.308594 53.984375 46.515625 Z M 53.984375 46.515625 "/><path style=" stroke:none;fill-rule:nonzero;fill:#ffc3bd;fill-opacity:1;" d="M 62.226562 72.789062 C 60.902344 72.757812 59.503906 72.707031 58.339844 72.066406 C 56.769531 71.199219 55.933594 69.433594 55.390625 67.730469 C 54.832031 65.925781 54.503906 64.058594 54.421875 62.171875 C 56.125 62.703125 57.820312 63.285156 59.339844 64.222656 C 60.859375 65.171875 62.164062 66.589844 62.59375 68.320312 C 62.941406 69.699219 62.613281 71.421875 62.226562 72.789062 Z M 62.226562 72.789062 "/><path style=" stroke:none;fill-rule:nonzero;fill:#ffc3bd;fill-opacity:1;" d="M 44.363281 72.839844 C 45.691406 72.789062 47.085938 72.71875 48.242188 72.066406 C 49.800781 71.179688 50.617188 69.402344 51.128906 67.691406 C 51.65625 65.882812 51.964844 63.996094 52.023438 62.121094 C 50.320312 62.671875 48.648438 63.273438 47.136719 64.242188 C 45.640625 65.210938 44.34375 66.640625 43.945312 68.382812 C 43.617188 69.761719 43.964844 71.472656 44.363281 72.839844 Z M 44.363281 72.839844 "/><path style=" stroke:none;fill-rule:nonzero;fill:#ffc3bd;fill-opacity:1;" d="M 38.773438 55.929688 C 39.160156 57.203125 39.570312 58.53125 40.496094 59.488281 C 41.753906 60.773438 43.671875 61.121094 45.464844 61.183594 C 47.351562 61.242188 49.25 61.070312 51.085938 60.652344 C 50.117188 59.140625 49.117188 57.671875 47.800781 56.460938 C 46.484375 55.246094 44.773438 54.359375 42.988281 54.410156 C 41.570312 54.429688 39.996094 55.207031 38.773438 55.929688 Z M 38.773438 55.929688 "/><path style=" stroke:none;fill-rule:nonzero;fill:#ffc3bd;fill-opacity:1;" d="M 67.460938 55.929688 C 67.074219 57.203125 66.664062 58.53125 65.734375 59.488281 C 64.480469 60.773438 62.5625 61.121094 60.769531 61.183594 C 58.878906 61.242188 56.984375 61.070312 55.148438 60.652344 C 56.117188 59.140625 57.117188 57.671875 58.433594 56.460938 C 59.746094 55.246094 61.460938 54.359375 63.246094 54.410156 C 64.664062 54.429688 66.246094 55.207031 67.460938 55.929688 Z M 67.460938 55.929688 "/><path style=" stroke:none;fill-rule:nonzero;fill:#ffc3bd;fill-opacity:1;" d="M 53.625 337.527344 C 54.617188 338.414062 55.648438 339.351562 56.117188 340.597656 C 56.75 342.269531 56.238281 344.15625 55.535156 345.808594 C 54.789062 347.542969 53.820312 349.1875 52.667969 350.675781 C 51.71875 349.164062 50.800781 347.625 50.269531 345.921875 C 49.730469 344.21875 49.660156 342.289062 50.464844 340.691406 C 51.078125 339.425781 52.445312 338.324219 53.625 337.527344 Z M 53.625 337.527344 "/><path style=" stroke:none;fill-rule:nonzero;fill:#ffc3bd;fill-opacity:1;" d="M 61.871094 363.800781 C 60.542969 363.773438 59.144531 363.722656 57.984375 363.078125 C 56.410156 362.210938 55.574219 360.445312 55.035156 358.742188 C 54.472656 356.9375 54.148438 355.070312 54.066406 353.183594 C 55.769531 353.714844 57.460938 354.296875 58.984375 355.234375 C 60.503906 356.183594 61.808594 357.601562 62.238281 359.335938 C 62.574219 360.710938 62.246094 362.4375 61.871094 363.800781 Z M 61.871094 363.800781 "/><path style=" stroke:none;fill-rule:nonzero;fill:#ffc3bd;fill-opacity:1;" d="M 44.007812 363.855469 C 45.332031 363.800781 46.730469 363.730469 47.882812 363.078125 C 49.445312 362.191406 50.261719 360.417969 50.769531 358.703125 C 51.300781 356.898438 51.605469 355.011719 51.667969 353.132812 C 49.964844 353.683594 48.292969 354.285156 46.78125 355.253906 C 45.28125 356.222656 43.984375 357.652344 43.589844 359.394531 C 43.25 360.773438 43.609375 362.488281 44.007812 363.855469 Z M 44.007812 363.855469 "/><path style=" stroke:none;fill-rule:nonzero;fill:#ffc3bd;fill-opacity:1;" d="M 38.417969 346.953125 C 38.804688 348.226562 39.210938 349.554688 40.140625 350.511719 C 41.394531 351.796875 43.3125 352.144531 45.109375 352.207031 C 46.996094 352.265625 48.894531 352.09375 50.730469 351.675781 C 49.761719 350.164062 48.761719 348.695312 47.445312 347.484375 C 46.128906 346.269531 44.414062 345.382812 42.628906 345.433594 C 41.210938 345.453125 39.628906 346.21875 38.417969 346.953125 Z M 38.417969 346.953125 "/><path style=" stroke:none;fill-rule:nonzero;fill:#ffc3bd;fill-opacity:1;" d="M 67.101562 346.953125 C 66.714844 348.226562 66.308594 349.554688 65.378906 350.511719 C 64.132812 351.796875 62.207031 352.144531 60.410156 352.207031 C 58.523438 352.265625 56.625 352.09375 54.789062 351.675781 C 55.757812 350.164062 56.757812 348.695312 58.074219 347.484375 C 59.390625 346.269531 61.105469 345.382812 62.890625 345.433594 C 64.308594 345.453125 65.878906 346.21875 67.101562 346.953125 Z M 67.101562 346.953125 "/><path style=" stroke:none;fill-rule:nonzero;fill:#ffc3bd;fill-opacity:1;" d="M 506.582031 207.988281 C 507.570312 208.875 508.601562 209.816406 509.070312 211.058594 C 509.703125 212.730469 509.191406 214.617188 508.488281 216.269531 C 507.746094 218.003906 506.773438 219.648438 505.621094 221.136719 C 504.671875 219.628906 503.753906 218.085938 503.226562 216.382812 C 502.695312 214.679688 502.613281 212.753906 503.417969 211.152344 C 504.03125 209.886719 505.398438 208.785156 506.582031 207.988281 Z M 506.582031 207.988281 "/><path style=" stroke:none;fill-rule:nonzero;fill:#ffc3bd;fill-opacity:1;" d="M 514.824219 234.265625 C 513.496094 234.234375 512.101562 234.183594 510.9375 233.539062 C 509.367188 232.671875 508.53125 230.910156 507.988281 229.203125 C 507.429688 227.398438 507.101562 225.53125 507.019531 223.644531 C 508.722656 224.175781 510.417969 224.757812 511.9375 225.695312 C 513.457031 226.644531 514.761719 228.0625 515.191406 229.796875 C 515.527344 231.171875 515.203125 232.898438 514.824219 234.265625 Z M 514.824219 234.265625 "/><path style=" stroke:none;fill-rule:nonzero;fill:#ffc3bd;fill-opacity:1;" d="M 496.960938 234.316406 C 498.289062 234.265625 499.683594 234.191406 500.835938 233.539062 C 502.398438 232.652344 503.214844 230.878906 503.726562 229.164062 C 504.253906 227.359375 504.5625 225.472656 504.621094 223.59375 C 502.917969 224.144531 501.246094 224.746094 499.734375 225.714844 C 498.234375 226.683594 496.941406 228.113281 496.542969 229.859375 C 496.207031 231.234375 496.5625 232.949219 496.960938 234.316406 Z M 496.960938 234.316406 "/><path style=" stroke:none;fill-rule:nonzero;fill:#ffc3bd;fill-opacity:1;" d="M 491.371094 217.414062 C 491.757812 218.6875 492.167969 220.015625 493.09375 220.972656 C 494.347656 222.257812 496.265625 222.605469 498.0625 222.667969 C 499.949219 222.726562 501.847656 222.554688 503.683594 222.136719 C 502.714844 220.625 501.714844 219.15625 500.398438 217.945312 C 499.082031 216.730469 497.367188 215.84375 495.582031 215.894531 C 494.164062 215.914062 492.585938 216.679688 491.371094 217.414062 Z M 491.371094 217.414062 "/><path style=" stroke:none;fill-rule:nonzero;fill:#ffc3bd;fill-opacity:1;" d="M 520.058594 217.414062 C 519.667969 218.6875 519.261719 220.015625 518.332031 220.972656 C 517.089844 222.257812 515.160156 222.605469 513.367188 222.667969 C 511.476562 222.726562 509.582031 222.554688 507.746094 222.136719 C 508.714844 220.625 509.714844 219.15625 511.027344 217.945312 C 512.34375 216.730469 514.058594 215.84375 515.84375 215.894531 C 517.261719 215.914062 518.832031 216.679688 520.058594 217.414062 Z M 520.058594 217.414062 "/><path style=" stroke:none;fill-rule:nonzero;fill:#ffc3bd;fill-opacity:1;" d="M 411.960938 490.769531 C 412.949219 491.65625 413.980469 492.597656 414.449219 493.839844 C 415.082031 495.515625 414.574219 497.402344 413.867188 499.054688 C 413.125 500.785156 412.15625 502.429688 411 503.917969 C 410.054688 502.410156 409.136719 500.867188 408.605469 499.164062 C 408.0625 497.460938 407.992188 495.535156 408.796875 493.933594 C 409.410156 492.667969 410.777344 491.566406 411.960938 490.769531 Z M 411.960938 490.769531 "/><path style=" stroke:none;fill-rule:nonzero;fill:#ffc3bd;fill-opacity:1;" d="M 420.203125 517.046875 C 418.878906 517.015625 417.480469 516.964844 416.316406 516.320312 C 414.746094 515.453125 413.910156 513.691406 413.367188 511.988281 C 412.808594 510.179688 412.480469 508.316406 412.398438 506.425781 C 414.101562 506.957031 415.796875 507.539062 417.316406 508.476562 C 418.835938 509.425781 420.140625 510.84375 420.570312 512.578125 C 420.90625 513.957031 420.589844 515.679688 420.203125 517.046875 Z M 420.203125 517.046875 "/><path style=" stroke:none;fill-rule:nonzero;fill:#ffc3bd;fill-opacity:1;" d="M 402.339844 517.097656 C 403.667969 517.046875 405.0625 516.972656 406.21875 516.320312 C 407.777344 515.433594 408.59375 513.660156 409.105469 511.945312 C 409.632812 510.140625 409.941406 508.253906 410 506.375 C 408.296875 506.925781 406.625 507.527344 405.117188 508.5 C 403.617188 509.46875 402.320312 510.894531 401.921875 512.640625 C 401.597656 514.015625 401.941406 515.738281 402.339844 517.097656 Z M 402.339844 517.097656 "/><path style=" stroke:none;fill-rule:nonzero;fill:#ffc3bd;fill-opacity:1;" d="M 396.75 500.195312 C 397.136719 501.46875 397.546875 502.796875 398.472656 503.753906 C 399.730469 505.039062 401.648438 505.386719 403.441406 505.449219 C 405.328125 505.507812 407.226562 505.335938 409.0625 504.917969 C 408.09375 503.410156 407.09375 501.941406 405.777344 500.726562 C 404.460938 499.511719 402.75 498.625 400.964844 498.675781 C 399.546875 498.695312 397.972656 499.472656 396.75 500.195312 Z M 396.75 500.195312 "/><path style=" stroke:none;fill-rule:nonzero;fill:#ffc3bd;fill-opacity:1;" d="M 425.4375 500.195312 C 425.050781 501.46875 424.640625 502.796875 423.714844 503.753906 C 422.457031 505.039062 420.539062 505.386719 418.746094 505.449219 C 416.859375 505.507812 414.960938 505.335938 413.125 504.917969 C 414.09375 503.410156 415.09375 501.941406 416.410156 500.726562 C 417.722656 499.511719 419.4375 498.625 421.222656 498.675781 C 422.640625 498.695312 424.222656 499.472656 425.4375 500.195312 Z M 425.4375 500.195312 "/><path style=" stroke:none;fill-rule:nonzero;fill:#ffc3bd;fill-opacity:1;" d="M 6.953125 797.789062 C 7.945312 798.675781 8.972656 799.613281 9.445312 800.855469 C 10.074219 802.53125 9.566406 804.417969 8.863281 806.070312 C 8.117188 807.804688 7.148438 809.445312 5.996094 810.933594 C 5.046875 809.425781 4.128906 807.886719 3.597656 806.183594 C 3.058594 804.476562 2.984375 802.550781 3.792969 800.949219 C 4.402344 799.683594 5.769531 798.582031 6.953125 797.789062 Z M 6.953125 797.789062 "/><path style=" stroke:none;fill-rule:nonzero;fill:#ffc3bd;fill-opacity:1;" d="M -8.257812 807.210938 C -7.867188 808.488281 -7.460938 809.8125 -6.53125 810.773438 C -5.277344 812.058594 -3.359375 812.402344 -1.5625 812.464844 C 0.324219 812.527344 2.21875 812.351562 4.058594 811.933594 C 3.085938 810.425781 2.089844 808.957031 0.773438 807.742188 C -0.542969 806.527344 -2.257812 805.640625 -4.042969 805.691406 C -5.460938 805.710938 -7.03125 806.488281 -8.257812 807.210938 Z M -8.257812 807.210938 "/><path style=" stroke:none;fill-rule:nonzero;fill:#ffc3bd;fill-opacity:1;" d="M 20.429688 807.210938 C 20.042969 808.488281 19.636719 809.8125 18.707031 810.773438 C 17.453125 812.058594 15.535156 812.402344 13.738281 812.464844 C 11.851562 812.527344 9.953125 812.351562 8.117188 811.933594 C 9.085938 810.425781 10.085938 808.957031 11.402344 807.742188 C 12.71875 806.527344 14.433594 805.640625 16.21875 805.691406 C 17.636719 805.710938 19.214844 806.488281 20.429688 807.210938 Z M 20.429688 807.210938 "/><path style=" stroke:none;fill-rule:nonzero;fill:#ffc3bd;fill-opacity:1;" d="M 495.390625 727.664062 C 496.378906 728.550781 497.410156 729.488281 497.878906 730.734375 C 498.511719 732.40625 498 734.292969 497.296875 735.945312 C 496.554688 737.679688 495.582031 739.320312 494.429688 740.8125 C 493.480469 739.300781 492.5625 737.761719 492.035156 736.058594 C 491.492188 734.355469 491.421875 732.425781 492.21875 730.824219 C 492.839844 729.558594 494.207031 728.457031 495.390625 727.664062 Z M 495.390625 727.664062 "/><path style=" stroke:none;fill-rule:nonzero;fill:#ffc3bd;fill-opacity:1;" d="M 503.632812 753.9375 C 502.308594 753.90625 500.910156 753.855469 499.746094 753.214844 C 498.175781 752.347656 497.339844 750.582031 496.796875 748.878906 C 496.238281 747.074219 495.910156 745.207031 495.828125 743.320312 C 497.53125 743.851562 499.226562 744.429688 500.746094 745.371094 C 502.265625 746.320312 503.570312 747.738281 504 749.46875 C 504.347656 750.847656 504.019531 752.570312 503.632812 753.9375 Z M 503.632812 753.9375 "/><path style=" stroke:none;fill-rule:nonzero;fill:#ffc3bd;fill-opacity:1;" d="M 485.769531 753.988281 C 487.097656 753.9375 488.492188 753.867188 489.644531 753.214844 C 491.207031 752.328125 492.023438 750.550781 492.535156 748.839844 C 493.0625 747.03125 493.371094 745.144531 493.429688 743.269531 C 491.726562 743.820312 490.054688 744.421875 488.542969 745.390625 C 487.046875 746.359375 485.75 747.789062 485.351562 749.53125 C 485.023438 750.910156 485.371094 752.621094 485.769531 753.988281 Z M 485.769531 753.988281 "/><path style=" stroke:none;fill-rule:nonzero;fill:#ffc3bd;fill-opacity:1;" d="M 480.179688 737.085938 C 480.566406 738.363281 480.976562 739.6875 481.902344 740.648438 C 483.15625 741.933594 485.074219 742.28125 486.871094 742.339844 C 488.757812 742.402344 490.65625 742.226562 492.492188 741.808594 C 491.523438 740.300781 490.523438 738.832031 489.207031 737.617188 C 487.890625 736.40625 486.179688 735.515625 484.390625 735.566406 C 482.972656 735.589844 481.402344 736.351562 480.179688 737.085938 Z M 480.179688 737.085938 "/><path style=" stroke:none;fill-rule:nonzero;fill:#ffc3bd;fill-opacity:1;" d="M 508.875 737.085938 C 508.488281 738.363281 508.082031 739.6875 507.152344 740.648438 C 505.898438 741.933594 503.980469 742.28125 502.183594 742.339844 C 500.296875 742.402344 498.398438 742.226562 496.5625 741.808594 C 497.53125 740.300781 498.53125 738.832031 499.847656 737.617188 C 501.164062 736.40625 502.878906 735.515625 504.664062 735.566406 C 506.070312 735.589844 507.652344 736.351562 508.875 737.085938 Z M 508.875 737.085938 "/><path style=" stroke:none;fill-rule:nonzero;fill:#ffc3bd;fill-opacity:1;" d="M 274.441406 411.242188 C 275.433594 412.128906 276.460938 413.066406 276.929688 414.3125 C 277.5625 415.984375 277.054688 417.871094 276.351562 419.523438 C 275.605469 421.257812 274.636719 422.902344 273.484375 424.390625 C 272.535156 422.878906 271.617188 421.339844 271.085938 419.636719 C 270.546875 417.933594 270.472656 416.003906 271.28125 414.402344 C 271.902344 413.140625 273.269531 412.039062 274.441406 411.242188 Z M 274.441406 411.242188 "/><path style=" stroke:none;fill-rule:nonzero;fill:#ffc3bd;fill-opacity:1;" d="M 282.695312 437.527344 C 281.367188 437.496094 279.972656 437.445312 278.808594 436.804688 C 277.238281 435.9375 276.402344 434.171875 275.859375 432.46875 C 275.300781 430.664062 274.972656 428.796875 274.890625 426.910156 C 276.59375 427.441406 278.289062 428.019531 279.808594 428.960938 C 281.328125 429.90625 282.632812 431.324219 283.0625 433.058594 C 283.398438 434.425781 283.074219 436.148438 282.695312 437.527344 Z M 282.695312 437.527344 "/><path style=" stroke:none;fill-rule:nonzero;fill:#ffc3bd;fill-opacity:1;" d="M 264.832031 437.578125 C 266.160156 437.527344 267.554688 437.457031 268.707031 436.804688 C 270.269531 435.914062 271.085938 434.140625 271.597656 432.425781 C 272.125 430.621094 272.433594 428.734375 272.492188 426.859375 C 270.789062 427.410156 269.117188 428.011719 267.605469 428.980469 C 266.105469 429.949219 264.8125 431.375 264.414062 433.121094 C 264.078125 434.488281 264.433594 436.210938 264.832031 437.578125 Z M 264.832031 437.578125 "/><path style=" stroke:none;fill-rule:nonzero;fill:#ffc3bd;fill-opacity:1;" d="M 259.242188 420.667969 C 259.628906 421.941406 260.039062 423.269531 260.964844 424.226562 C 262.21875 425.511719 264.136719 425.859375 265.933594 425.917969 C 267.820312 425.980469 269.71875 425.808594 271.554688 425.390625 C 270.585938 423.878906 269.585938 422.410156 268.269531 421.199219 C 266.953125 419.984375 265.238281 419.097656 263.453125 419.148438 C 262.035156 419.167969 260.457031 419.941406 259.242188 420.667969 Z M 259.242188 420.667969 "/><path style=" stroke:none;fill-rule:nonzero;fill:#ffc3bd;fill-opacity:1;" d="M 287.929688 420.667969 C 287.542969 421.941406 287.132812 423.269531 286.203125 424.226562 C 284.960938 425.511719 283.03125 425.859375 281.238281 425.917969 C 279.347656 425.980469 277.453125 425.808594 275.617188 425.390625 C 276.585938 423.878906 277.585938 422.410156 278.898438 421.199219 C 280.214844 419.984375 281.929688 419.097656 283.714844 419.148438 C 285.132812 419.167969 286.703125 419.941406 287.929688 420.667969 Z M 287.929688 420.667969 "/><path style=" stroke:none;fill-rule:nonzero;fill:#ffc3bd;fill-opacity:1;" d="M 517.027344 342.035156 C 518.015625 342.921875 519.046875 343.863281 519.515625 345.105469 C 520.148438 346.777344 519.640625 348.664062 518.933594 350.316406 C 518.191406 352.050781 517.222656 353.695312 516.070312 355.183594 C 515.121094 353.675781 514.203125 352.132812 513.671875 350.429688 C 513.128906 348.726562 513.058594 346.800781 513.863281 345.199219 C 514.476562 343.933594 515.84375 342.832031 517.027344 342.035156 Z M 517.027344 342.035156 "/><path style=" stroke:none;fill-rule:nonzero;fill:#ffc3bd;fill-opacity:1;" d="M 525.269531 368.3125 C 523.945312 368.28125 522.546875 368.230469 521.382812 367.585938 C 519.8125 366.71875 518.976562 364.957031 518.433594 363.25 C 517.875 361.445312 517.546875 359.578125 517.464844 357.691406 C 519.171875 358.222656 520.863281 358.804688 522.382812 359.742188 C 523.902344 360.691406 525.210938 362.109375 525.636719 363.84375 C 525.984375 365.21875 525.660156 366.945312 525.269531 368.3125 Z M 525.269531 368.3125 "/><path style=" stroke:none;fill-rule:nonzero;fill:#ffc3bd;fill-opacity:1;" d="M 507.40625 368.363281 C 508.734375 368.3125 510.132812 368.238281 511.285156 367.585938 C 512.84375 366.699219 513.660156 364.925781 514.171875 363.210938 C 514.703125 361.40625 515.007812 359.519531 515.070312 357.640625 C 513.367188 358.191406 511.691406 358.792969 510.183594 359.761719 C 508.683594 360.730469 507.386719 362.160156 506.988281 363.90625 C 506.664062 365.28125 507.007812 367.003906 507.40625 368.363281 Z M 507.40625 368.363281 "/><path style=" stroke:none;fill-rule:nonzero;fill:#ffc3bd;fill-opacity:1;" d="M 501.816406 351.460938 C 502.203125 352.734375 502.613281 354.0625 503.542969 355.019531 C 504.796875 356.304688 506.714844 356.652344 508.507812 356.714844 C 510.398438 356.773438 512.292969 356.601562 514.128906 356.183594 C 513.160156 354.671875 512.160156 353.203125 510.84375 351.992188 C 509.53125 350.777344 507.816406 349.890625 506.03125 349.941406 C 504.613281 349.960938 503.042969 350.726562 501.816406 351.460938 Z M 501.816406 351.460938 "/><path style=" stroke:none;fill-rule:nonzero;fill:#ffc3bd;fill-opacity:1;" d="M 530.515625 351.460938 C 530.125 352.734375 529.71875 354.0625 528.789062 355.019531 C 527.535156 356.304688 525.617188 356.652344 523.820312 356.714844 C 521.933594 356.773438 520.039062 356.601562 518.199219 356.183594 C 519.171875 354.671875 520.167969 353.203125 521.484375 351.992188 C 522.800781 350.777344 524.515625 349.890625 526.300781 349.941406 C 527.707031 349.960938 529.289062 350.726562 530.515625 351.460938 Z M 530.515625 351.460938 "/><path style=" stroke:none;fill-rule:nonzero;fill:#ffc3bd;fill-opacity:1;" d="M 350.742188 255.335938 C 351.730469 256.222656 352.761719 257.164062 353.230469 258.40625 C 353.863281 260.078125 353.351562 261.96875 352.648438 263.621094 C 351.902344 265.351562 350.933594 266.996094 349.78125 268.484375 C 348.832031 266.976562 347.914062 265.433594 347.382812 263.730469 C 346.84375 262.027344 346.773438 260.101562 347.578125 258.5 C 348.191406 257.234375 349.558594 256.132812 350.742188 255.335938 Z M 350.742188 255.335938 "/><path style=" stroke:none;fill-rule:nonzero;fill:#ffc3bd;fill-opacity:1;" d="M 358.984375 281.613281 C 357.65625 281.582031 356.257812 281.53125 355.097656 280.886719 C 353.527344 280.019531 352.6875 278.257812 352.148438 276.554688 C 351.585938 274.746094 351.261719 272.878906 351.179688 270.992188 C 352.882812 271.523438 354.578125 272.105469 356.097656 273.042969 C 357.617188 273.992188 358.921875 275.410156 359.351562 277.144531 C 359.699219 278.519531 359.371094 280.246094 358.984375 281.613281 Z M 358.984375 281.613281 "/><path style=" stroke:none;fill-rule:nonzero;fill:#ffc3bd;fill-opacity:1;" d="M 341.121094 281.664062 C 342.445312 281.613281 343.84375 281.539062 344.996094 280.886719 C 346.558594 280 347.375 278.226562 347.882812 276.511719 C 348.414062 274.707031 348.71875 272.820312 348.78125 270.941406 C 347.078125 271.492188 345.40625 272.09375 343.894531 273.0625 C 342.394531 274.035156 341.101562 275.460938 340.703125 277.207031 C 340.375 278.582031 340.722656 280.304688 341.121094 281.664062 Z M 341.121094 281.664062 "/><path style=" stroke:none;fill-rule:nonzero;fill:#ffc3bd;fill-opacity:1;" d="M 335.53125 264.761719 C 335.917969 266.035156 336.324219 267.363281 337.253906 268.320312 C 338.507812 269.605469 340.425781 269.953125 342.222656 270.015625 C 344.109375 270.074219 346.007812 269.902344 347.84375 269.484375 C 346.875 267.976562 345.875 266.507812 344.558594 265.292969 C 343.242188 264.078125 341.527344 263.191406 339.742188 263.242188 C 338.324219 263.261719 336.753906 264.027344 335.53125 264.761719 Z M 335.53125 264.761719 "/><path style=" stroke:none;fill-rule:nonzero;fill:#ffc3bd;fill-opacity:1;" d="M 364.226562 264.761719 C 363.839844 266.035156 363.429688 267.363281 362.503906 268.320312 C 361.25 269.605469 359.332031 269.953125 357.535156 270.015625 C 355.648438 270.074219 353.75 269.902344 351.914062 269.484375 C 352.882812 267.976562 353.882812 266.507812 355.199219 265.292969 C 356.515625 264.078125 358.226562 263.191406 360.015625 263.242188 C 361.421875 263.261719 363.003906 264.027344 364.226562 264.761719 Z M 364.226562 264.761719 "/><path style=" stroke:none;fill-rule:nonzero;fill:#ffc3bd;fill-opacity:1;" d="M 804.714844 224.738281 C 805.703125 225.625 806.734375 226.5625 807.203125 227.808594 C 807.835938 229.480469 807.328125 231.367188 806.621094 233.019531 C 805.878906 234.753906 804.910156 236.394531 803.757812 237.886719 C 802.808594 236.375 801.890625 234.835938 801.359375 233.132812 C 800.816406 231.429688 800.746094 229.5 801.550781 227.898438 C 802.164062 226.632812 803.53125 225.53125 804.714844 224.738281 Z M 804.714844 224.738281 "/><path style=" stroke:none;fill-rule:nonzero;fill:#ffc3bd;fill-opacity:1;" d="M 812.957031 251.011719 C 811.632812 250.980469 810.234375 250.929688 809.070312 250.289062 C 807.5 249.421875 806.664062 247.65625 806.121094 245.953125 C 805.5625 244.148438 805.234375 242.28125 805.152344 240.394531 C 806.855469 240.925781 808.550781 241.507812 810.070312 242.445312 C 811.589844 243.394531 812.898438 244.8125 813.324219 246.542969 C 813.671875 247.921875 813.34375 249.644531 812.957031 251.011719 Z M 812.957031 251.011719 "/><path style=" stroke:none;fill-rule:nonzero;fill:#ffc3bd;fill-opacity:1;" d="M 795.09375 251.0625 C 796.421875 251.011719 797.820312 250.941406 798.972656 250.289062 C 800.53125 249.402344 801.347656 247.625 801.859375 245.914062 C 802.390625 244.105469 802.695312 242.21875 802.757812 240.34375 C 801.050781 240.894531 799.378906 241.496094 797.871094 242.464844 C 796.371094 243.433594 795.074219 244.863281 794.675781 246.605469 C 794.351562 247.984375 794.695312 249.707031 795.09375 251.0625 Z M 795.09375 251.0625 "/><path style=" stroke:none;fill-rule:nonzero;fill:#ffc3bd;fill-opacity:1;" d="M 789.503906 234.160156 C 789.890625 235.4375 790.300781 236.761719 791.226562 237.722656 C 792.484375 239.007812 794.402344 239.355469 796.195312 239.414062 C 798.082031 239.476562 799.980469 239.304688 801.816406 238.882812 C 800.847656 237.375 799.847656 235.90625 798.53125 234.691406 C 797.214844 233.480469 795.503906 232.589844 793.71875 232.640625 C 792.300781 232.664062 790.726562 233.425781 789.503906 234.160156 Z M 789.503906 234.160156 "/><path style=" stroke:none;fill-rule:nonzero;fill:#ffc3bd;fill-opacity:1;" d="M 818.203125 234.160156 C 817.8125 235.4375 817.40625 236.761719 816.476562 237.722656 C 815.222656 239.007812 813.304688 239.355469 811.507812 239.414062 C 809.621094 239.476562 807.722656 239.304688 805.886719 238.882812 C 806.855469 237.375 807.855469 235.90625 809.171875 234.691406 C 810.488281 233.480469 812.203125 232.589844 813.988281 232.640625 C 815.394531 232.664062 816.976562 233.425781 818.203125 234.160156 Z M 818.203125 234.160156 "/><path style=" stroke:none;fill-rule:nonzero;fill:#ffc3bd;fill-opacity:1;" d="M 801.082031 382.082031 C 802.074219 382.96875 803.101562 383.90625 803.570312 385.152344 C 804.203125 386.824219 803.695312 388.710938 802.992188 390.363281 C 802.246094 392.097656 801.277344 393.738281 800.125 395.226562 C 799.175781 393.71875 798.257812 392.179688 797.726562 390.476562 C 797.1875 388.773438 797.113281 386.84375 797.921875 385.242188 C 798.53125 383.976562 799.898438 382.875 801.082031 382.082031 Z M 801.082031 382.082031 "/><path style=" stroke:none;fill-rule:nonzero;fill:#ffc3bd;fill-opacity:1;" d="M 809.324219 408.355469 C 808 408.324219 806.601562 408.273438 805.4375 407.632812 C 803.867188 406.765625 803.03125 405 802.492188 403.296875 C 801.929688 401.492188 801.601562 399.625 801.523438 397.738281 C 803.226562 398.269531 804.917969 398.847656 806.4375 399.789062 C 807.957031 400.738281 809.265625 402.152344 809.691406 403.886719 C 810.03125 405.265625 809.703125 406.988281 809.324219 408.355469 Z M 809.324219 408.355469 "/><path style=" stroke:none;fill-rule:nonzero;fill:#ffc3bd;fill-opacity:1;" d="M 791.460938 408.40625 C 792.789062 408.355469 794.1875 408.285156 795.339844 407.632812 C 796.898438 406.742188 797.714844 404.96875 798.226562 403.253906 C 798.757812 401.449219 799.0625 399.5625 799.125 397.6875 C 797.421875 398.238281 795.746094 398.839844 794.238281 399.808594 C 792.738281 400.777344 791.441406 402.207031 791.042969 403.949219 C 790.707031 405.328125 791.066406 407.050781 791.460938 408.40625 Z M 791.460938 408.40625 "/><path style=" stroke:none;fill-rule:nonzero;fill:#ffc3bd;fill-opacity:1;" d="M 785.871094 391.503906 C 786.261719 392.78125 786.667969 394.105469 787.597656 395.066406 C 788.851562 396.351562 790.769531 396.695312 792.566406 396.757812 C 794.453125 396.820312 796.347656 396.644531 798.1875 396.226562 C 797.214844 394.71875 796.21875 393.25 794.902344 392.035156 C 793.585938 390.820312 791.871094 389.933594 790.085938 389.984375 C 788.667969 390.007812 787.085938 390.78125 785.871094 391.503906 Z M 785.871094 391.503906 "/><path style=" stroke:none;fill-rule:nonzero;fill:#ffc3bd;fill-opacity:1;" d="M 814.558594 391.503906 C 814.171875 392.78125 813.765625 394.105469 812.835938 395.066406 C 811.582031 396.351562 809.664062 396.695312 807.867188 396.757812 C 805.980469 396.820312 804.082031 396.644531 802.246094 396.226562 C 803.214844 394.71875 804.214844 393.25 805.53125 392.035156 C 806.847656 390.820312 808.5625 389.933594 810.347656 389.984375 C 811.765625 390.007812 813.34375 390.78125 814.558594 391.503906 Z M 814.558594 391.503906 "/><path style=" stroke:none;fill-rule:nonzero;fill:#ffc3bd;fill-opacity:1;" d="M 609.292969 621.777344 C 610.28125 622.664062 611.3125 623.605469 611.78125 624.847656 C 612.414062 626.519531 611.902344 628.40625 611.199219 630.058594 C 610.453125 631.792969 609.484375 633.4375 608.332031 634.925781 C 607.382812 633.417969 606.464844 631.875 605.933594 630.171875 C 605.394531 628.46875 605.324219 626.542969 606.128906 624.941406 C 606.742188 623.675781 608.109375 622.574219 609.292969 621.777344 Z M 609.292969 621.777344 "/><path style=" stroke:none;fill-rule:nonzero;fill:#ffc3bd;fill-opacity:1;" d="M 617.535156 648.054688 C 616.207031 648.023438 614.8125 647.972656 613.648438 647.328125 C 612.078125 646.460938 611.238281 644.695312 610.699219 642.992188 C 610.136719 641.1875 609.8125 639.320312 609.730469 637.433594 C 611.433594 637.964844 613.128906 638.546875 614.648438 639.484375 C 616.167969 640.433594 617.472656 641.851562 617.902344 643.585938 C 618.238281 644.960938 617.910156 646.6875 617.535156 648.054688 Z M 617.535156 648.054688 "/><path style=" stroke:none;fill-rule:nonzero;fill:#ffc3bd;fill-opacity:1;" d="M 599.671875 648.105469 C 600.996094 648.054688 602.394531 647.980469 603.546875 647.328125 C 605.109375 646.441406 605.925781 644.667969 606.433594 642.953125 C 606.964844 641.148438 607.273438 639.261719 607.332031 637.382812 C 605.628906 637.933594 603.957031 638.535156 602.445312 639.503906 C 600.945312 640.472656 599.652344 641.902344 599.253906 643.648438 C 598.917969 645.023438 599.273438 646.746094 599.671875 648.105469 Z M 599.671875 648.105469 "/><path style=" stroke:none;fill-rule:nonzero;fill:#ffc3bd;fill-opacity:1;" d="M 594.082031 631.203125 C 594.46875 632.476562 594.875 633.804688 595.804688 634.761719 C 597.058594 636.046875 598.976562 636.394531 600.773438 636.457031 C 602.660156 636.515625 604.558594 636.34375 606.394531 635.925781 C 605.425781 634.414062 604.425781 632.945312 603.109375 631.734375 C 601.792969 630.519531 600.078125 629.632812 598.292969 629.683594 C 596.875 629.703125 595.292969 630.480469 594.082031 631.203125 Z M 594.082031 631.203125 "/><path style=" stroke:none;fill-rule:nonzero;fill:#ffc3bd;fill-opacity:1;" d="M 622.769531 631.203125 C 622.378906 632.476562 621.972656 633.804688 621.042969 634.761719 C 619.789062 636.046875 617.871094 636.394531 616.074219 636.457031 C 614.1875 636.515625 612.289062 636.34375 610.453125 635.925781 C 611.421875 634.414062 612.421875 632.945312 613.738281 631.734375 C 615.054688 630.519531 616.769531 629.632812 618.554688 629.683594 C 619.972656 629.703125 621.554688 630.480469 622.769531 631.203125 Z M 622.769531 631.203125 "/><path style=" stroke:none;fill-rule:nonzero;fill:#ffc3bd;fill-opacity:1;" d="M 415.460938 655.4375 C 416.449219 656.324219 417.480469 657.261719 417.949219 658.507812 C 418.582031 660.179688 418.070312 662.066406 417.367188 663.71875 C 416.621094 665.453125 415.652344 667.097656 414.5 668.585938 C 413.550781 667.074219 412.632812 665.535156 412.101562 663.832031 C 411.5625 662.128906 411.492188 660.199219 412.296875 658.601562 C 412.910156 657.335938 414.277344 656.234375 415.460938 655.4375 Z M 415.460938 655.4375 "/><path style=" stroke:none;fill-rule:nonzero;fill:#ffc3bd;fill-opacity:1;" d="M 423.703125 681.710938 C 422.375 681.683594 420.980469 681.632812 419.816406 680.988281 C 418.246094 680.121094 417.410156 678.355469 416.867188 676.652344 C 416.304688 674.847656 415.980469 672.980469 415.898438 671.09375 C 417.601562 671.625 419.296875 672.207031 420.816406 673.144531 C 422.335938 674.09375 423.640625 675.511719 424.070312 677.246094 C 424.40625 678.621094 424.082031 680.347656 423.703125 681.710938 Z M 423.703125 681.710938 "/><path style=" stroke:none;fill-rule:nonzero;fill:#ffc3bd;fill-opacity:1;" d="M 405.839844 681.761719 C 407.164062 681.710938 408.5625 681.640625 409.714844 680.988281 C 411.277344 680.101562 412.09375 678.324219 412.601562 676.613281 C 413.132812 674.808594 413.441406 672.921875 413.5 671.042969 C 411.796875 671.59375 410.125 672.195312 408.613281 673.164062 C 407.113281 674.132812 405.820312 675.5625 405.421875 677.304688 C 405.085938 678.683594 405.441406 680.40625 405.839844 681.761719 Z M 405.839844 681.761719 "/><path style=" stroke:none;fill-rule:nonzero;fill:#ffc3bd;fill-opacity:1;" d="M 400.25 664.863281 C 400.636719 666.136719 401.042969 667.464844 401.972656 668.421875 C 403.226562 669.707031 405.144531 670.054688 406.941406 670.113281 C 408.828125 670.175781 410.726562 670.003906 412.5625 669.585938 C 411.59375 668.074219 410.59375 666.605469 409.277344 665.394531 C 407.960938 664.179688 406.246094 663.292969 404.460938 663.34375 C 403.042969 663.363281 401.464844 664.136719 400.25 664.863281 Z M 400.25 664.863281 "/><path style=" stroke:none;fill-rule:nonzero;fill:#ffc3bd;fill-opacity:1;" d="M 428.9375 664.863281 C 428.546875 666.136719 428.140625 667.464844 427.210938 668.421875 C 425.957031 669.707031 424.039062 670.054688 422.242188 670.113281 C 420.355469 670.175781 418.460938 670.003906 416.621094 669.585938 C 417.59375 668.074219 418.589844 666.605469 419.90625 665.394531 C 421.222656 664.179688 422.9375 663.292969 424.722656 663.34375 C 426.140625 663.363281 427.722656 664.136719 428.9375 664.863281 Z M 428.9375 664.863281 "/><path style=" stroke:none;fill-rule:nonzero;fill:#ffc3bd;fill-opacity:1;" d="M 756.195312 546.300781 C 757.183594 547.1875 758.214844 548.125 758.683594 549.367188 C 759.316406 551.042969 758.808594 552.929688 758.101562 554.582031 C 757.359375 556.316406 756.390625 557.957031 755.238281 559.445312 C 754.289062 557.9375 753.371094 556.398438 752.839844 554.695312 C 752.296875 552.988281 752.226562 551.0625 753.03125 549.460938 C 753.644531 548.195312 755.011719 547.09375 756.195312 546.300781 Z M 756.195312 546.300781 "/><path style=" stroke:none;fill-rule:nonzero;fill:#ffc3bd;fill-opacity:1;" d="M 764.4375 572.574219 C 763.113281 572.542969 761.714844 572.492188 760.550781 571.847656 C 758.980469 570.984375 758.144531 569.21875 757.601562 567.515625 C 757.042969 565.710938 756.714844 563.84375 756.632812 561.957031 C 758.339844 562.484375 760.03125 563.066406 761.550781 564.007812 C 763.070312 564.953125 764.378906 566.371094 764.804688 568.105469 C 765.140625 569.484375 764.816406 571.207031 764.4375 572.574219 Z M 764.4375 572.574219 "/><path style=" stroke:none;fill-rule:nonzero;fill:#ffc3bd;fill-opacity:1;" d="M 746.574219 572.625 C 747.902344 572.574219 749.300781 572.503906 750.453125 571.847656 C 752.011719 570.960938 752.828125 569.1875 753.339844 567.472656 C 753.871094 565.667969 754.175781 563.78125 754.238281 561.90625 C 752.535156 562.457031 750.859375 563.058594 749.351562 564.027344 C 747.851562 564.996094 746.554688 566.421875 746.15625 568.167969 C 745.820312 569.542969 746.175781 571.269531 746.574219 572.625 Z M 746.574219 572.625 "/><path style=" stroke:none;fill-rule:nonzero;fill:#ffc3bd;fill-opacity:1;" d="M 740.984375 555.722656 C 741.371094 557 741.78125 558.324219 742.710938 559.285156 C 743.964844 560.570312 745.882812 560.914062 747.675781 560.976562 C 749.566406 561.039062 751.460938 560.863281 753.296875 560.445312 C 752.328125 558.9375 751.328125 557.46875 750.011719 556.253906 C 748.699219 555.039062 746.984375 554.152344 745.199219 554.203125 C 743.78125 554.222656 742.199219 555 740.984375 555.722656 Z M 740.984375 555.722656 "/><path style=" stroke:none;fill-rule:nonzero;fill:#ffc3bd;fill-opacity:1;" d="M 769.671875 555.722656 C 769.285156 557 768.875 558.324219 767.949219 559.285156 C 766.691406 560.570312 764.773438 560.914062 762.980469 560.976562 C 761.09375 561.039062 759.195312 560.863281 757.359375 560.445312 C 758.328125 558.9375 759.328125 557.46875 760.644531 556.253906 C 761.960938 555.039062 763.671875 554.152344 765.457031 554.203125 C 766.875 554.222656 768.457031 555 769.671875 555.722656 Z M 769.671875 555.722656 "/><path style=" stroke:none;fill-rule:nonzero;fill:#ffc3bd;fill-opacity:1;" d="M 676.960938 72.535156 C 677.949219 73.421875 678.980469 74.359375 679.449219 75.605469 C 680.082031 77.277344 679.570312 79.164062 678.867188 80.816406 C 678.121094 82.550781 677.152344 84.191406 676 85.683594 C 675.050781 84.171875 674.132812 82.632812 673.601562 80.929688 C 673.0625 79.226562 672.992188 77.296875 673.796875 75.695312 C 674.417969 74.433594 675.785156 73.332031 676.960938 72.535156 Z M 676.960938 72.535156 "/><path style=" stroke:none;fill-rule:nonzero;fill:#ffc3bd;fill-opacity:1;" d="M 685.210938 98.808594 C 683.886719 98.777344 682.488281 98.726562 681.324219 98.085938 C 679.753906 97.21875 678.917969 95.453125 678.378906 93.75 C 677.816406 91.945312 677.488281 90.078125 677.40625 88.191406 C 679.113281 88.722656 680.804688 89.304688 682.324219 90.242188 C 683.84375 91.191406 685.152344 92.609375 685.578125 94.34375 C 685.917969 95.71875 685.589844 97.441406 685.210938 98.808594 Z M 685.210938 98.808594 "/><path style=" stroke:none;fill-rule:nonzero;fill:#ffc3bd;fill-opacity:1;" d="M 667.339844 98.859375 C 668.664062 98.808594 670.0625 98.738281 671.214844 98.085938 C 672.777344 97.199219 673.59375 95.421875 674.101562 93.710938 C 674.632812 91.90625 674.9375 90.015625 675 88.140625 C 673.296875 88.691406 671.625 89.292969 670.113281 90.261719 C 668.613281 91.230469 667.320312 92.660156 666.921875 94.402344 C 666.59375 95.78125 666.941406 97.492188 667.339844 98.859375 Z M 667.339844 98.859375 "/><path style=" stroke:none;fill-rule:nonzero;fill:#ffc3bd;fill-opacity:1;" d="M 661.75 81.960938 C 662.136719 83.234375 662.542969 84.558594 663.472656 85.519531 C 664.726562 86.804688 666.644531 87.152344 668.441406 87.210938 C 670.328125 87.273438 672.226562 87.101562 674.0625 86.683594 C 673.09375 85.171875 672.09375 83.703125 670.777344 82.488281 C 669.460938 81.277344 667.746094 80.386719 665.960938 80.441406 C 664.542969 80.460938 662.972656 81.226562 661.75 81.960938 Z M 661.75 81.960938 "/><path style=" stroke:none;fill-rule:nonzero;fill:#ffc3bd;fill-opacity:1;" d="M 690.445312 81.960938 C 690.058594 83.234375 689.648438 84.558594 688.722656 85.519531 C 687.476562 86.804688 685.550781 87.152344 683.753906 87.210938 C 681.867188 87.273438 679.96875 87.101562 678.132812 86.683594 C 679.101562 85.171875 680.101562 83.703125 681.417969 82.488281 C 682.734375 81.277344 684.445312 80.386719 686.234375 80.441406 C 687.652344 80.460938 689.222656 81.226562 690.445312 81.960938 Z M 690.445312 81.960938 "/><path style=" stroke:none;fill-rule:nonzero;fill:#ffc3bd;fill-opacity:1;" d="M 212.78125 135.773438 C 213.773438 136.660156 214.804688 137.601562 215.273438 138.84375 C 215.90625 140.515625 215.394531 142.402344 214.691406 144.054688 C 213.945312 145.789062 212.976562 147.433594 211.824219 148.921875 C 210.875 147.410156 209.957031 145.871094 209.425781 144.167969 C 208.886719 142.464844 208.816406 140.539062 209.621094 138.9375 C 210.242188 137.671875 211.609375 136.570312 212.78125 135.773438 Z M 212.78125 135.773438 "/><path style=" stroke:none;fill-rule:nonzero;fill:#ffc3bd;fill-opacity:1;" d="M 221.035156 162.050781 C 219.710938 162.019531 218.3125 161.96875 217.148438 161.324219 C 215.578125 160.457031 214.742188 158.691406 214.203125 156.988281 C 213.640625 155.183594 213.3125 153.316406 213.230469 151.429688 C 214.9375 151.960938 216.628906 152.542969 218.148438 153.480469 C 219.667969 154.429688 220.976562 155.847656 221.402344 157.582031 C 221.742188 158.957031 221.414062 160.683594 221.035156 162.050781 Z M 221.035156 162.050781 "/><path style=" stroke:none;fill-rule:nonzero;fill:#ffc3bd;fill-opacity:1;" d="M 203.164062 162.101562 C 204.488281 162.050781 205.886719 161.976562 207.039062 161.324219 C 208.601562 160.4375 209.417969 158.664062 209.925781 156.949219 C 210.457031 155.144531 210.761719 153.257812 210.824219 151.378906 C 209.121094 151.929688 207.449219 152.53125 205.9375 153.5 C 204.4375 154.46875 203.144531 155.898438 202.746094 157.640625 C 202.417969 159.019531 202.765625 160.734375 203.164062 162.101562 Z M 203.164062 162.101562 "/><path style=" stroke:none;fill-rule:nonzero;fill:#ffc3bd;fill-opacity:1;" d="M 197.574219 145.199219 C 197.960938 146.472656 198.367188 147.800781 199.296875 148.757812 C 200.550781 150.042969 202.46875 150.390625 204.265625 150.453125 C 206.152344 150.511719 208.050781 150.339844 209.886719 149.921875 C 208.917969 148.410156 207.917969 146.941406 206.601562 145.730469 C 205.285156 144.515625 203.570312 143.628906 201.785156 143.679688 C 200.367188 143.699219 198.796875 144.464844 197.574219 145.199219 Z M 197.574219 145.199219 "/><path style=" stroke:none;fill-rule:nonzero;fill:#ffc3bd;fill-opacity:1;" d="M 226.269531 145.199219 C 225.882812 146.472656 225.472656 147.800781 224.546875 148.757812 C 223.300781 150.042969 221.371094 150.390625 219.578125 150.453125 C 217.691406 150.511719 215.792969 150.339844 213.957031 149.921875 C 214.925781 148.410156 215.925781 146.941406 217.242188 145.730469 C 218.558594 144.515625 220.269531 143.628906 222.054688 143.679688 C 223.472656 143.699219 225.046875 144.464844 226.269531 145.199219 Z M 226.269531 145.199219 "/><path style=" stroke:none;fill-rule:nonzero;fill:#ffc3bd;fill-opacity:1;" d="M 185.238281 592.730469 C 186.226562 593.617188 187.257812 594.554688 187.726562 595.800781 C 188.359375 597.472656 187.851562 599.359375 187.144531 601.011719 C 186.402344 602.746094 185.433594 604.386719 184.28125 605.875 C 183.332031 604.367188 182.414062 602.828125 181.882812 601.125 C 181.339844 599.421875 181.269531 597.492188 182.074219 595.890625 C 182.699219 594.625 184.066406 593.523438 185.238281 592.730469 Z M 185.238281 592.730469 "/><path style=" stroke:none;fill-rule:nonzero;fill:#ffc3bd;fill-opacity:1;" d="M 193.492188 619.003906 C 192.164062 618.972656 190.769531 618.921875 189.605469 618.28125 C 188.035156 617.414062 187.199219 615.648438 186.65625 613.945312 C 186.09375 612.140625 185.769531 610.273438 185.6875 608.386719 C 187.390625 608.914062 189.085938 609.496094 190.605469 610.4375 C 192.125 611.382812 193.429688 612.800781 193.859375 614.535156 C 194.195312 615.914062 193.871094 617.636719 193.492188 619.003906 Z M 193.492188 619.003906 "/><path style=" stroke:none;fill-rule:nonzero;fill:#ffc3bd;fill-opacity:1;" d="M 175.617188 619.054688 C 176.945312 619.003906 178.34375 618.933594 179.496094 618.28125 C 181.054688 617.390625 181.871094 615.617188 182.382812 613.902344 C 182.914062 612.097656 183.21875 610.210938 183.28125 608.335938 C 181.578125 608.886719 179.902344 609.488281 178.394531 610.457031 C 176.894531 611.425781 175.597656 612.851562 175.199219 614.597656 C 174.875 615.972656 175.21875 617.6875 175.617188 619.054688 Z M 175.617188 619.054688 "/><path style=" stroke:none;fill-rule:nonzero;fill:#ffc3bd;fill-opacity:1;" d="M 170.027344 602.152344 C 170.414062 603.429688 170.824219 604.753906 171.753906 605.714844 C 173.007812 607 174.925781 607.34375 176.71875 607.40625 C 178.609375 607.46875 180.503906 607.292969 182.339844 606.875 C 181.371094 605.367188 180.371094 603.898438 179.054688 602.683594 C 177.742188 601.46875 176.027344 600.582031 174.242188 600.632812 C 172.824219 600.652344 171.253906 601.417969 170.027344 602.152344 Z M 170.027344 602.152344 "/><path style=" stroke:none;fill-rule:nonzero;fill:#ffc3bd;fill-opacity:1;" d="M 198.726562 602.152344 C 198.335938 603.429688 197.929688 604.753906 197 605.714844 C 195.757812 607 193.828125 607.34375 192.03125 607.40625 C 190.144531 607.46875 188.25 607.292969 186.410156 606.875 C 187.382812 605.367188 188.378906 603.898438 189.695312 602.683594 C 191.011719 601.46875 192.726562 600.582031 194.511719 600.632812 C 195.929688 600.652344 197.5 601.417969 198.726562 602.152344 Z M 198.726562 602.152344 "/><path style=" stroke:none;fill-rule:nonzero;fill:#ffc3bd;fill-opacity:1;" d="M 369.429688 122.871094 C 370.417969 123.757812 371.449219 124.695312 371.917969 125.941406 C 372.550781 127.613281 372.042969 129.5 371.335938 131.152344 C 370.59375 132.886719 369.625 134.53125 368.472656 136.019531 C 367.523438 134.507812 366.605469 132.96875 366.074219 131.265625 C 365.53125 129.5625 365.460938 127.632812 366.265625 126.03125 C 366.890625 124.757812 368.257812 123.667969 369.429688 122.871094 Z M 369.429688 122.871094 "/><path style=" stroke:none;fill-rule:nonzero;fill:#ffc3bd;fill-opacity:1;" d="M 377.683594 149.144531 C 376.355469 149.117188 374.960938 149.066406 373.796875 148.421875 C 372.226562 147.554688 371.386719 145.789062 370.847656 144.085938 C 370.285156 142.28125 369.960938 140.414062 369.878906 138.527344 C 371.582031 139.058594 373.277344 139.640625 374.796875 140.578125 C 376.316406 141.527344 377.621094 142.945312 378.050781 144.679688 C 378.386719 146.054688 378.058594 147.777344 377.683594 149.144531 Z M 377.683594 149.144531 "/><path style=" stroke:none;fill-rule:nonzero;fill:#ffc3bd;fill-opacity:1;" d="M 359.808594 149.195312 C 361.136719 149.144531 362.535156 149.074219 363.6875 148.421875 C 365.246094 147.535156 366.0625 145.757812 366.574219 144.046875 C 367.105469 142.242188 367.410156 140.355469 367.472656 138.476562 C 365.765625 139.027344 364.09375 139.628906 362.585938 140.597656 C 361.085938 141.566406 359.789062 142.996094 359.390625 144.738281 C 359.066406 146.117188 359.410156 147.832031 359.808594 149.195312 Z M 359.808594 149.195312 "/><path style=" stroke:none;fill-rule:nonzero;fill:#ffc3bd;fill-opacity:1;" d="M 354.21875 132.285156 C 354.605469 133.5625 355.015625 134.886719 355.941406 135.84375 C 357.199219 137.128906 359.117188 137.476562 360.910156 137.539062 C 362.796875 137.601562 364.695312 137.425781 366.53125 137.007812 C 365.5625 135.5 364.5625 134.03125 363.246094 132.816406 C 361.929688 131.601562 360.21875 130.714844 358.433594 130.765625 C 357.015625 130.796875 355.445312 131.5625 354.21875 132.285156 Z M 354.21875 132.285156 "/><path style=" stroke:none;fill-rule:nonzero;fill:#ffc3bd;fill-opacity:1;" d="M 382.917969 132.285156 C 382.527344 133.5625 382.121094 134.886719 381.191406 135.84375 C 379.9375 137.128906 378.019531 137.476562 376.222656 137.539062 C 374.335938 137.601562 372.4375 137.425781 370.601562 137.007812 C 371.570312 135.5 372.570312 134.03125 373.886719 132.816406 C 375.203125 131.601562 376.917969 130.714844 378.703125 130.765625 C 380.121094 130.796875 381.691406 131.5625 382.917969 132.285156 Z M 382.917969 132.285156 "/><path style=" stroke:none;fill-rule:nonzero;fill:#ffc3bd;fill-opacity:1;" d="M 15.09375 288.792969 C 15.09375 290.8125 13.464844 292.445312 11.441406 292.445312 C 9.421875 292.445312 7.789062 290.8125 7.789062 288.792969 C 7.789062 286.773438 9.421875 285.140625 11.441406 285.140625 C 13.453125 285.140625 15.09375 286.773438 15.09375 288.792969 Z M 15.09375 288.792969 "/><path style=" stroke:none;fill-rule:nonzero;fill:#ffc3bd;fill-opacity:1;" d="M 130.375 320.726562 C 130.375 321.210938 130.28125 321.679688 130.097656 322.125 C 129.910156 322.574219 129.648438 322.96875 129.304688 323.308594 C 128.960938 323.652344 128.566406 323.917969 128.121094 324.101562 C 127.671875 324.289062 127.207031 324.378906 126.722656 324.378906 C 126.238281 324.378906 125.773438 324.289062 125.324219 324.101562 C 124.875 323.917969 124.480469 323.652344 124.140625 323.308594 C 123.796875 322.96875 123.53125 322.574219 123.347656 322.125 C 123.164062 321.679688 123.070312 321.210938 123.070312 320.726562 C 123.070312 320.246094 123.164062 319.777344 123.347656 319.332031 C 123.53125 318.882812 123.796875 318.488281 124.140625 318.144531 C 124.480469 317.804688 124.875 317.539062 125.324219 317.355469 C 125.773438 317.167969 126.238281 317.078125 126.722656 317.078125 C 127.207031 317.078125 127.671875 317.167969 128.121094 317.355469 C 128.566406 317.539062 128.960938 317.804688 129.304688 318.144531 C 129.648438 318.488281 129.910156 318.882812 130.097656 319.332031 C 130.28125 319.777344 130.375 320.246094 130.375 320.726562 Z M 130.375 320.726562 "/><path style=" stroke:none;fill-rule:nonzero;fill:#ffc3bd;fill-opacity:1;" d="M 18.746094 107.082031 C 18.746094 109.101562 17.113281 110.734375 15.09375 110.734375 C 13.074219 110.734375 11.441406 109.101562 11.441406 107.082031 C 11.441406 105.0625 13.074219 103.429688 15.09375 103.429688 C 17.113281 103.421875 18.746094 105.0625 18.746094 107.082031 Z M 18.746094 107.082031 "/><path style=" stroke:none;fill-rule:nonzero;fill:#ffc3bd;fill-opacity:1;" d="M 422.9375 382.304688 C 422.9375 382.789062 422.84375 383.253906 422.660156 383.703125 C 422.472656 384.148438 422.210938 384.542969 421.867188 384.886719 C 421.527344 385.230469 421.128906 385.492188 420.683594 385.679688 C 420.234375 385.863281 419.769531 385.957031 419.285156 385.957031 C 418.800781 385.957031 418.335938 385.863281 417.886719 385.679688 C 417.441406 385.492188 417.046875 385.230469 416.703125 384.886719 C 416.359375 384.542969 416.097656 384.148438 415.910156 383.703125 C 415.726562 383.253906 415.632812 382.789062 415.632812 382.304688 C 415.632812 381.820312 415.726562 381.355469 415.910156 380.90625 C 416.097656 380.460938 416.359375 380.066406 416.703125 379.722656 C 417.046875 379.378906 417.441406 379.117188 417.886719 378.929688 C 418.335938 378.746094 418.800781 378.652344 419.285156 378.652344 C 419.769531 378.652344 420.234375 378.746094 420.683594 378.929688 C 421.128906 379.117188 421.527344 379.378906 421.867188 379.722656 C 422.210938 380.066406 422.472656 380.460938 422.660156 380.90625 C 422.84375 381.355469 422.9375 381.820312 422.9375 382.304688 Z M 422.9375 382.304688 "/><path style=" stroke:none;fill-rule:nonzero;fill:#ffc3bd;fill-opacity:1;" d="M 543.144531 490.769531 C 543.144531 491.253906 543.050781 491.71875 542.867188 492.167969 C 542.679688 492.617188 542.417969 493.011719 542.074219 493.351562 C 541.730469 493.695312 541.335938 493.957031 540.890625 494.144531 C 540.441406 494.328125 539.976562 494.421875 539.492188 494.421875 C 539.007812 494.421875 538.542969 494.328125 538.09375 494.144531 C 537.648438 493.957031 537.25 493.695312 536.910156 493.351562 C 536.566406 493.011719 536.304688 492.617188 536.117188 492.167969 C 535.933594 491.71875 535.839844 491.253906 535.839844 490.769531 C 535.839844 490.285156 535.933594 489.820312 536.117188 489.375 C 536.304688 488.925781 536.566406 488.53125 536.910156 488.1875 C 537.25 487.847656 537.648438 487.582031 538.09375 487.398438 C 538.542969 487.210938 539.007812 487.117188 539.492188 487.117188 C 539.976562 487.117188 540.441406 487.210938 540.890625 487.398438 C 541.335938 487.582031 541.730469 487.847656 542.074219 488.1875 C 542.417969 488.53125 542.679688 488.925781 542.867188 489.375 C 543.050781 489.820312 543.144531 490.285156 543.144531 490.769531 Z M 543.144531 490.769531 "/><path style=" stroke:none;fill-rule:nonzero;fill:#ffc3bd;fill-opacity:1;" d="M 671.683594 738.628906 C 671.683594 739.113281 671.59375 739.578125 671.40625 740.023438 C 671.222656 740.472656 670.957031 740.867188 670.613281 741.210938 C 670.273438 741.550781 669.878906 741.816406 669.429688 742 C 668.984375 742.1875 668.515625 742.28125 668.03125 742.28125 C 667.546875 742.28125 667.082031 742.1875 666.636719 742 C 666.1875 741.816406 665.792969 741.550781 665.449219 741.210938 C 665.109375 740.867188 664.84375 740.472656 664.660156 740.023438 C 664.472656 739.578125 664.378906 739.113281 664.378906 738.628906 C 664.378906 738.144531 664.472656 737.675781 664.660156 737.230469 C 664.84375 736.78125 665.109375 736.386719 665.449219 736.046875 C 665.792969 735.703125 666.1875 735.441406 666.636719 735.253906 C 667.082031 735.070312 667.546875 734.976562 668.03125 734.976562 C 668.515625 734.976562 668.984375 735.070312 669.429688 735.253906 C 669.878906 735.441406 670.273438 735.703125 670.613281 736.046875 C 670.957031 736.386719 671.222656 736.78125 671.40625 737.230469 C 671.59375 737.675781 671.683594 738.144531 671.683594 738.628906 Z M 671.683594 738.628906 "/><path style=" stroke:none;fill-rule:nonzero;fill:#ffc3bd;fill-opacity:1;" d="M 684.945312 494.851562 C 684.945312 495.335938 684.855469 495.800781 684.667969 496.246094 C 684.484375 496.695312 684.21875 497.089844 683.878906 497.433594 C 683.535156 497.773438 683.140625 498.039062 682.691406 498.222656 C 682.246094 498.410156 681.777344 498.503906 681.296875 498.503906 C 680.8125 498.503906 680.34375 498.410156 679.898438 498.222656 C 679.449219 498.039062 679.054688 497.773438 678.710938 497.433594 C 678.371094 497.089844 678.105469 496.695312 677.921875 496.246094 C 677.734375 495.800781 677.644531 495.335938 677.644531 494.851562 C 677.644531 494.367188 677.734375 493.902344 677.921875 493.453125 C 678.105469 493.003906 678.371094 492.609375 678.710938 492.269531 C 679.054688 491.925781 679.449219 491.664062 679.898438 491.476562 C 680.34375 491.292969 680.8125 491.199219 681.296875 491.199219 C 681.777344 491.199219 682.246094 491.292969 682.691406 491.476562 C 683.140625 491.664062 683.535156 491.925781 683.878906 492.269531 C 684.21875 492.609375 684.484375 493.003906 684.667969 493.453125 C 684.855469 493.902344 684.945312 494.367188 684.945312 494.851562 Z M 684.945312 494.851562 "/><path style=" stroke:none;fill-rule:nonzero;fill:#ffc3bd;fill-opacity:1;" d="M 1.539062 551.316406 C 1.539062 553.335938 -0.09375 554.96875 -2.113281 554.96875 C -4.136719 554.96875 -5.765625 553.335938 -5.765625 551.316406 C -5.765625 549.296875 -4.136719 547.664062 -2.113281 547.664062 C -0.105469 547.664062 1.539062 549.296875 1.539062 551.316406 Z M 1.539062 551.316406 "/><path style=" stroke:none;fill-rule:nonzero;fill:#ffc3bd;fill-opacity:1;" d="M 542.777344 46.617188 C 542.777344 47.101562 542.683594 47.566406 542.5 48.015625 C 542.3125 48.460938 542.050781 48.855469 541.707031 49.199219 C 541.363281 49.542969 540.96875 49.804688 540.523438 49.992188 C 540.074219 50.175781 539.609375 50.269531 539.125 50.269531 C 538.640625 50.269531 538.175781 50.175781 537.726562 49.992188 C 537.28125 49.804688 536.882812 49.542969 536.542969 49.199219 C 536.199219 48.855469 535.9375 48.460938 535.75 48.015625 C 535.566406 47.566406 535.472656 47.101562 535.472656 46.617188 C 535.472656 46.132812 535.566406 45.667969 535.75 45.21875 C 535.9375 44.773438 536.199219 44.378906 536.542969 44.035156 C 536.882812 43.691406 537.28125 43.429688 537.726562 43.242188 C 538.175781 43.058594 538.640625 42.964844 539.125 42.964844 C 539.609375 42.964844 540.074219 43.058594 540.523438 43.242188 C 540.96875 43.429688 541.363281 43.691406 541.707031 44.035156 C 542.050781 44.378906 542.3125 44.773438 542.5 45.21875 C 542.683594 45.667969 542.777344 46.132812 542.777344 46.617188 Z M 542.777344 46.617188 "/><path style=" stroke:none;fill-rule:nonzero;fill:#ffc3bd;fill-opacity:1;" d="M 481.464844 129.398438 C 481.464844 131.417969 479.832031 133.050781 477.8125 133.050781 C 475.792969 133.050781 474.160156 131.417969 474.160156 129.398438 C 474.160156 127.378906 475.792969 125.746094 477.8125 125.746094 C 479.832031 125.746094 481.464844 127.378906 481.464844 129.398438 Z M 481.464844 129.398438 "/><path style=" stroke:none;fill-rule:nonzero;fill:#ffc3bd;fill-opacity:1;" d="M 437.558594 214.292969 C 437.554688 214.777344 437.464844 215.242188 437.277344 215.691406 C 437.09375 216.136719 436.828125 216.53125 436.488281 216.875 C 436.144531 217.21875 435.75 217.480469 435.300781 217.667969 C 434.855469 217.851562 434.390625 217.945312 433.90625 217.945312 C 433.421875 217.945312 432.953125 217.851562 432.507812 217.667969 C 432.058594 217.480469 431.664062 217.21875 431.320312 216.875 C 430.980469 216.53125 430.714844 216.136719 430.53125 215.691406 C 430.34375 215.242188 430.253906 214.777344 430.253906 214.292969 C 430.253906 213.808594 430.34375 213.34375 430.53125 212.894531 C 430.714844 212.449219 430.980469 212.054688 431.320312 211.710938 C 431.664062 211.367188 432.058594 211.105469 432.507812 210.917969 C 432.953125 210.734375 433.421875 210.640625 433.90625 210.640625 C 434.390625 210.640625 434.855469 210.734375 435.300781 210.917969 C 435.75 211.105469 436.144531 211.367188 436.488281 211.710938 C 436.828125 212.054688 437.09375 212.449219 437.277344 212.894531 C 437.464844 213.34375 437.554688 213.808594 437.558594 214.292969 Z M 437.558594 214.292969 "/><path style=" stroke:none;fill-rule:nonzero;fill:#ffc3bd;fill-opacity:1;" d="M 452.175781 286.171875 C 452.175781 288.191406 450.542969 289.824219 448.523438 289.824219 C 446.503906 289.824219 444.871094 288.191406 444.871094 286.171875 C 444.871094 284.152344 446.503906 282.519531 448.523438 282.519531 C 450.542969 282.507812 452.175781 284.152344 452.175781 286.171875 Z M 452.175781 286.171875 "/><path style=" stroke:none;fill-rule:nonzero;fill:#ffc3bd;fill-opacity:1;" d="M 714.359375 181.113281 C 714.359375 183.132812 712.726562 184.765625 710.707031 184.765625 C 708.6875 184.765625 707.054688 183.132812 707.054688 181.113281 C 707.054688 179.09375 708.6875 177.460938 710.707031 177.460938 C 712.726562 177.449219 714.359375 179.09375 714.359375 181.113281 Z M 714.359375 181.113281 "/><path style=" stroke:none;fill-rule:nonzero;fill:#ffc3bd;fill-opacity:1;" d="M 792.910156 117.875 C 792.910156 119.894531 791.277344 121.523438 789.257812 121.523438 C 787.238281 121.523438 785.605469 119.894531 785.605469 117.875 C 785.605469 115.855469 787.238281 114.222656 789.257812 114.222656 C 791.277344 114.210938 792.910156 115.855469 792.910156 117.875 Z M 792.910156 117.875 "/><path style=" stroke:none;fill-rule:nonzero;fill:#ffc3bd;fill-opacity:1;" d="M 329.082031 347.625 C 329.082031 348.109375 328.988281 348.574219 328.804688 349.023438 C 328.617188 349.46875 328.355469 349.863281 328.011719 350.207031 C 327.671875 350.550781 327.273438 350.8125 326.828125 351 C 326.378906 351.183594 325.914062 351.277344 325.429688 351.277344 C 324.945312 351.277344 324.480469 351.183594 324.03125 351 C 323.585938 350.8125 323.191406 350.550781 322.847656 350.207031 C 322.503906 349.863281 322.242188 349.46875 322.054688 349.023438 C 321.871094 348.574219 321.777344 348.109375 321.777344 347.625 C 321.777344 347.140625 321.871094 346.675781 322.054688 346.226562 C 322.242188 345.78125 322.503906 345.386719 322.847656 345.042969 C 323.191406 344.699219 323.585938 344.4375 324.03125 344.253906 C 324.480469 344.066406 324.945312 343.972656 325.429688 343.972656 C 325.914062 343.972656 326.378906 344.066406 326.828125 344.253906 C 327.273438 344.4375 327.671875 344.699219 328.011719 345.042969 C 328.355469 345.386719 328.617188 345.78125 328.804688 346.226562 C 328.988281 346.675781 329.082031 347.140625 329.082031 347.625 Z M 329.082031 347.625 "/><path style=" stroke:none;fill-rule:nonzero;fill:#ffc3bd;fill-opacity:1;" d="M 352.003906 30.296875 C 352.003906 30.78125 351.914062 31.246094 351.726562 31.695312 C 351.542969 32.140625 351.277344 32.535156 350.9375 32.878906 C 350.59375 33.222656 350.199219 33.484375 349.75 33.671875 C 349.304688 33.855469 348.835938 33.949219 348.351562 33.949219 C 347.867188 33.949219 347.402344 33.855469 346.957031 33.671875 C 346.507812 33.484375 346.113281 33.222656 345.769531 32.878906 C 345.429688 32.535156 345.164062 32.140625 344.980469 31.695312 C 344.792969 31.246094 344.699219 30.78125 344.699219 30.296875 C 344.699219 29.8125 344.792969 29.347656 344.980469 28.898438 C 345.164062 28.453125 345.429688 28.058594 345.769531 27.714844 C 346.113281 27.371094 346.507812 27.109375 346.957031 26.921875 C 347.402344 26.738281 347.867188 26.644531 348.351562 26.644531 C 348.835938 26.644531 349.304688 26.738281 349.75 26.921875 C 350.199219 27.109375 350.59375 27.371094 350.9375 27.714844 C 351.277344 28.058594 351.542969 28.453125 351.726562 28.898438 C 351.914062 29.347656 352.003906 29.8125 352.003906 30.296875 Z M 352.003906 30.296875 "/><path style=" stroke:none;fill-rule:nonzero;fill:#ffc3bd;fill-opacity:1;" d="M 184.597656 67.179688 C 184.597656 69.199219 182.964844 70.832031 180.945312 70.832031 C 178.925781 70.832031 177.292969 69.199219 177.292969 67.179688 C 177.292969 65.160156 178.925781 63.527344 180.945312 63.527344 C 182.964844 63.527344 184.597656 65.160156 184.597656 67.179688 Z M 184.597656 67.179688 "/><path style=" stroke:none;fill-rule:nonzero;fill:#ffc3bd;fill-opacity:1;" d="M 578.339844 221.433594 C 578.339844 221.917969 578.246094 222.382812 578.0625 222.828125 C 577.875 223.277344 577.613281 223.671875 577.269531 224.015625 C 576.925781 224.355469 576.53125 224.621094 576.085938 224.804688 C 575.636719 224.992188 575.171875 225.085938 574.6875 225.085938 C 574.203125 225.085938 573.738281 224.992188 573.289062 224.804688 C 572.84375 224.621094 572.449219 224.355469 572.105469 224.015625 C 571.761719 223.671875 571.5 223.277344 571.3125 222.828125 C 571.128906 222.382812 571.035156 221.917969 571.035156 221.433594 C 571.035156 220.949219 571.128906 220.484375 571.3125 220.035156 C 571.5 219.585938 571.761719 219.191406 572.105469 218.851562 C 572.449219 218.507812 572.84375 218.246094 573.289062 218.058594 C 573.738281 217.875 574.203125 217.78125 574.6875 217.78125 C 575.171875 217.78125 575.636719 217.875 576.085938 218.058594 C 576.53125 218.246094 576.925781 218.507812 577.269531 218.851562 C 577.613281 219.191406 577.875 219.585938 578.0625 220.035156 C 578.246094 220.484375 578.339844 220.949219 578.339844 221.433594 Z M 578.339844 221.433594 "/><path style=" stroke:none;fill-rule:nonzero;fill:#ffc3bd;fill-opacity:1;" d="M 279.765625 255.570312 C 279.765625 257.589844 278.136719 259.222656 276.113281 259.222656 C 274.09375 259.222656 272.464844 257.589844 272.464844 255.570312 C 272.464844 253.550781 274.09375 251.921875 276.113281 251.921875 C 278.136719 251.910156 279.765625 253.550781 279.765625 255.570312 Z M 279.765625 255.570312 "/><path style=" stroke:none;fill-rule:nonzero;fill:#ffc3bd;fill-opacity:1;" d="M 158.367188 238.230469 C 158.367188 240.25 156.734375 241.882812 154.714844 241.882812 C 152.695312 241.882812 151.0625 240.25 151.0625 238.230469 C 151.0625 236.210938 152.695312 234.582031 154.714844 234.582031 C 156.734375 234.570312 158.367188 236.210938 158.367188 238.230469 Z M 158.367188 238.230469 "/><path style=" stroke:none;fill-rule:nonzero;fill:#ffc3bd;fill-opacity:1;" d="M 316.238281 528.386719 C 316.238281 530.40625 314.605469 532.039062 312.585938 532.039062 C 310.566406 532.039062 308.933594 530.40625 308.933594 528.386719 C 308.933594 526.367188 310.566406 524.734375 312.585938 524.734375 C 314.597656 524.726562 316.238281 526.367188 316.238281 528.386719 Z M 316.238281 528.386719 "/><path style=" stroke:none;fill-rule:nonzero;fill:#ffc3bd;fill-opacity:1;" d="M 189.6875 353.125 C 189.6875 355.144531 188.054688 356.773438 186.035156 356.773438 C 184.015625 356.773438 182.382812 355.144531 182.382812 353.125 C 182.382812 351.105469 184.015625 349.472656 186.035156 349.472656 C 188.054688 349.472656 189.6875 351.105469 189.6875 353.125 Z M 189.6875 353.125 "/><path style=" stroke:none;fill-rule:nonzero;fill:#ffc3bd;fill-opacity:1;" d="M 502.246094 605.53125 C 502.246094 607.550781 500.613281 609.179688 498.59375 609.179688 C 496.574219 609.179688 494.941406 607.550781 494.941406 605.53125 C 494.941406 603.511719 496.574219 601.878906 498.59375 601.878906 C 500.601562 601.867188 502.246094 603.511719 502.246094 605.53125 Z M 502.246094 605.53125 "/><path style=" stroke:none;fill-rule:nonzero;fill:#ffc3bd;fill-opacity:1;" d="M 681.488281 372.65625 C 681.488281 373.140625 681.394531 373.605469 681.210938 374.054688 C 681.023438 374.5 680.761719 374.894531 680.417969 375.238281 C 680.078125 375.582031 679.679688 375.84375 679.234375 376.03125 C 678.785156 376.214844 678.320312 376.308594 677.835938 376.308594 C 677.351562 376.308594 676.886719 376.214844 676.4375 376.03125 C 675.992188 375.84375 675.597656 375.582031 675.253906 375.238281 C 674.910156 374.894531 674.648438 374.5 674.460938 374.054688 C 674.277344 373.605469 674.183594 373.140625 674.183594 372.65625 C 674.183594 372.171875 674.277344 371.707031 674.460938 371.257812 C 674.648438 370.8125 674.910156 370.417969 675.253906 370.074219 C 675.597656 369.730469 675.992188 369.46875 676.4375 369.28125 C 676.886719 369.097656 677.351562 369.003906 677.835938 369.003906 C 678.320312 369.003906 678.785156 369.097656 679.234375 369.28125 C 679.679688 369.46875 680.078125 369.730469 680.417969 370.074219 C 680.761719 370.417969 681.023438 370.8125 681.210938 371.257812 C 681.394531 371.707031 681.488281 372.171875 681.488281 372.65625 Z M 681.488281 372.65625 "/><path style=" stroke:none;fill-rule:nonzero;fill:#ffc3bd;fill-opacity:1;" d="M 373.019531 563.558594 C 373.019531 564.042969 372.929688 564.507812 372.742188 564.953125 C 372.558594 565.402344 372.292969 565.796875 371.949219 566.140625 C 371.609375 566.480469 371.214844 566.746094 370.765625 566.929688 C 370.320312 567.117188 369.851562 567.207031 369.367188 567.207031 C 368.882812 567.207031 368.417969 567.117188 367.972656 566.929688 C 367.523438 566.746094 367.128906 566.480469 366.785156 566.140625 C 366.445312 565.796875 366.179688 565.402344 365.996094 564.953125 C 365.808594 564.507812 365.714844 564.042969 365.714844 563.558594 C 365.714844 563.074219 365.808594 562.605469 365.996094 562.160156 C 366.179688 561.710938 366.445312 561.316406 366.785156 560.976562 C 367.128906 560.632812 367.523438 560.367188 367.972656 560.183594 C 368.417969 560 368.882812 559.90625 369.367188 559.90625 C 369.851562 559.90625 370.320312 560 370.765625 560.183594 C 371.214844 560.367188 371.609375 560.632812 371.949219 560.976562 C 372.292969 561.316406 372.558594 561.710938 372.742188 562.160156 C 372.929688 562.605469 373.019531 563.074219 373.019531 563.558594 Z M 373.019531 563.558594 "/><path style=" stroke:none;fill-rule:nonzero;fill:#ffc3bd;fill-opacity:1;" d="M 574.351562 791.472656 C 574.351562 791.957031 574.257812 792.421875 574.074219 792.871094 C 573.886719 793.316406 573.625 793.714844 573.28125 794.054688 C 572.9375 794.398438 572.542969 794.660156 572.097656 794.847656 C 571.648438 795.03125 571.183594 795.125 570.699219 795.125 C 570.214844 795.125 569.75 795.03125 569.300781 794.847656 C 568.851562 794.660156 568.457031 794.398438 568.117188 794.054688 C 567.773438 793.714844 567.507812 793.316406 567.324219 792.871094 C 567.140625 792.421875 567.046875 791.957031 567.046875 791.472656 C 567.046875 790.988281 567.140625 790.523438 567.324219 790.074219 C 567.507812 789.628906 567.773438 789.234375 568.117188 788.890625 C 568.457031 788.550781 568.851562 788.285156 569.300781 788.101562 C 569.75 787.914062 570.214844 787.820312 570.699219 787.820312 C 571.183594 787.820312 571.648438 787.914062 572.097656 788.101562 C 572.542969 788.285156 572.9375 788.550781 573.28125 788.890625 C 573.625 789.234375 573.886719 789.628906 574.074219 790.074219 C 574.257812 790.523438 574.351562 790.988281 574.351562 791.472656 Z M 574.351562 791.472656 "/><path style=" stroke:none;fill-rule:nonzero;fill:#ffc3bd;fill-opacity:1;" d="M 264.320312 795.910156 C 264.320312 796.394531 264.230469 796.859375 264.042969 797.308594 C 263.859375 797.753906 263.59375 798.148438 263.253906 798.492188 C 262.910156 798.835938 262.515625 799.097656 262.066406 799.285156 C 261.621094 799.46875 261.152344 799.5625 260.667969 799.5625 C 260.183594 799.5625 259.71875 799.46875 259.273438 799.285156 C 258.824219 799.097656 258.429688 798.835938 258.085938 798.492188 C 257.746094 798.148438 257.480469 797.753906 257.296875 797.308594 C 257.109375 796.859375 257.019531 796.394531 257.019531 795.910156 C 257.019531 795.425781 257.109375 794.960938 257.296875 794.511719 C 257.480469 794.066406 257.746094 793.671875 258.085938 793.328125 C 258.429688 792.984375 258.824219 792.722656 259.273438 792.535156 C 259.71875 792.351562 260.183594 792.257812 260.667969 792.257812 C 261.152344 792.257812 261.621094 792.351562 262.066406 792.535156 C 262.515625 792.722656 262.910156 792.984375 263.253906 793.328125 C 263.59375 793.671875 263.859375 794.066406 264.042969 794.511719 C 264.230469 794.960938 264.320312 795.425781 264.320312 795.910156 Z M 264.320312 795.910156 "/><path style=" stroke:none;fill-rule:nonzero;fill:#ffc3bd;fill-opacity:1;" d="M 14.769531 635.382812 C 14.769531 635.867188 14.675781 636.335938 14.492188 636.78125 C 14.304688 637.230469 14.042969 637.625 13.699219 637.964844 C 13.355469 638.308594 12.960938 638.574219 12.515625 638.757812 C 12.066406 638.945312 11.601562 639.035156 11.117188 639.035156 C 10.632812 639.035156 10.167969 638.945312 9.71875 638.757812 C 9.269531 638.574219 8.875 638.308594 8.535156 637.964844 C 8.191406 637.625 7.925781 637.230469 7.742188 636.78125 C 7.558594 636.335938 7.464844 635.867188 7.464844 635.382812 C 7.464844 634.898438 7.558594 634.433594 7.742188 633.988281 C 7.925781 633.539062 8.191406 633.144531 8.535156 632.800781 C 8.875 632.460938 9.269531 632.195312 9.71875 632.011719 C 10.167969 631.824219 10.632812 631.734375 11.117188 631.734375 C 11.601562 631.734375 12.066406 631.824219 12.515625 632.011719 C 12.960938 632.195312 13.355469 632.460938 13.699219 632.800781 C 14.042969 633.144531 14.304688 633.539062 14.492188 633.988281 C 14.675781 634.433594 14.769531 634.898438 14.769531 635.382812 Z M 14.769531 635.382812 "/><path style=" stroke:none;fill-rule:nonzero;fill:#ffc3bd;fill-opacity:1;" d="M 324.898438 651.703125 C 324.898438 652.1875 324.808594 652.65625 324.621094 653.101562 C 324.4375 653.550781 324.171875 653.945312 323.828125 654.285156 C 323.488281 654.628906 323.09375 654.894531 322.644531 655.078125 C 322.199219 655.261719 321.730469 655.355469 321.246094 655.355469 C 320.761719 655.355469 320.296875 655.261719 319.851562 655.078125 C 319.402344 654.894531 319.007812 654.628906 318.664062 654.285156 C 318.324219 653.945312 318.058594 653.550781 317.875 653.101562 C 317.6875 652.65625 317.59375 652.1875 317.59375 651.703125 C 317.59375 651.21875 317.6875 650.753906 317.875 650.308594 C 318.058594 649.859375 318.324219 649.464844 318.664062 649.121094 C 319.007812 648.78125 319.402344 648.515625 319.851562 648.332031 C 320.296875 648.144531 320.761719 648.054688 321.246094 648.054688 C 321.730469 648.054688 322.199219 648.144531 322.644531 648.332031 C 323.09375 648.515625 323.488281 648.78125 323.828125 649.121094 C 324.171875 649.464844 324.4375 649.859375 324.621094 650.308594 C 324.808594 650.753906 324.898438 651.21875 324.898438 651.703125 Z M 324.898438 651.703125 "/><path style=" stroke:none;fill-rule:nonzero;fill:#ffc3bd;fill-opacity:1;" d="M 259.609375 593.566406 C 259.609375 594.050781 259.515625 594.515625 259.332031 594.960938 C 259.144531 595.410156 258.882812 595.804688 258.539062 596.148438 C 258.195312 596.488281 257.800781 596.753906 257.355469 596.9375 C 256.90625 597.125 256.441406 597.214844 255.957031 597.214844 C 255.472656 597.214844 255.007812 597.125 254.558594 596.9375 C 254.113281 596.753906 253.714844 596.488281 253.375 596.148438 C 253.03125 595.804688 252.769531 595.410156 252.582031 594.960938 C 252.398438 594.515625 252.304688 594.050781 252.304688 593.566406 C 252.304688 593.082031 252.398438 592.613281 252.582031 592.167969 C 252.769531 591.71875 253.03125 591.324219 253.375 590.984375 C 253.714844 590.640625 254.113281 590.375 254.558594 590.191406 C 255.007812 590.007812 255.472656 589.914062 255.957031 589.914062 C 256.441406 589.914062 256.90625 590.007812 257.355469 590.191406 C 257.800781 590.375 258.195312 590.640625 258.539062 590.984375 C 258.882812 591.324219 259.144531 591.71875 259.332031 592.167969 C 259.515625 592.613281 259.609375 593.082031 259.609375 593.566406 Z M 259.609375 593.566406 "/><path style=" stroke:none;fill-rule:nonzero;fill:#ffc3bd;fill-opacity:1;" d="M 51.210938 517.097656 C 51.210938 517.582031 51.117188 518.046875 50.929688 518.492188 C 50.746094 518.941406 50.480469 519.335938 50.140625 519.679688 C 49.796875 520.019531 49.402344 520.285156 48.953125 520.46875 C 48.507812 520.65625 48.042969 520.75 47.558594 520.75 C 47.074219 520.75 46.605469 520.65625 46.160156 520.46875 C 45.710938 520.285156 45.316406 520.019531 44.972656 519.679688 C 44.632812 519.335938 44.367188 518.941406 44.183594 518.492188 C 43.996094 518.046875 43.90625 517.582031 43.90625 517.097656 C 43.90625 516.613281 43.996094 516.144531 44.183594 515.699219 C 44.367188 515.25 44.632812 514.855469 44.972656 514.515625 C 45.316406 514.171875 45.710938 513.910156 46.160156 513.722656 C 46.605469 513.539062 47.074219 513.445312 47.558594 513.445312 C 48.042969 513.445312 48.507812 513.539062 48.953125 513.722656 C 49.402344 513.910156 49.796875 514.171875 50.140625 514.515625 C 50.480469 514.855469 50.746094 515.25 50.929688 515.699219 C 51.117188 516.144531 51.210938 516.613281 51.210938 517.097656 Z M 51.210938 517.097656 "/><path style=" stroke:none;fill-rule:nonzero;fill:#ffc3bd;fill-opacity:1;" d="M 90.996094 648.675781 C 90.996094 649.160156 90.902344 649.625 90.71875 650.074219 C 90.53125 650.519531 90.269531 650.914062 89.925781 651.257812 C 89.582031 651.597656 89.1875 651.863281 88.742188 652.046875 C 88.292969 652.234375 87.828125 652.328125 87.34375 652.328125 C 86.859375 652.328125 86.394531 652.234375 85.945312 652.046875 C 85.5 651.863281 85.101562 651.597656 84.761719 651.257812 C 84.417969 650.914062 84.15625 650.519531 83.96875 650.074219 C 83.785156 649.625 83.691406 649.160156 83.691406 648.675781 C 83.691406 648.191406 83.785156 647.726562 83.96875 647.277344 C 84.15625 646.832031 84.417969 646.433594 84.761719 646.09375 C 85.101562 645.75 85.5 645.488281 85.945312 645.300781 C 86.394531 645.117188 86.859375 645.023438 87.34375 645.023438 C 87.828125 645.023438 88.292969 645.117188 88.742188 645.300781 C 89.1875 645.488281 89.582031 645.75 89.925781 646.09375 C 90.269531 646.433594 90.53125 646.832031 90.71875 647.277344 C 90.902344 647.726562 90.996094 648.191406 90.996094 648.675781 Z M 90.996094 648.675781 "/><path style=" stroke:none;fill-rule:nonzero;fill:#ffc3bd;fill-opacity:1;" d="M 95.078125 572.175781 C 95.078125 572.660156 94.984375 573.125 94.796875 573.574219 C 94.613281 574.019531 94.347656 574.414062 94.007812 574.757812 C 93.664062 575.101562 93.269531 575.363281 92.820312 575.550781 C 92.375 575.734375 91.910156 575.828125 91.425781 575.828125 C 90.941406 575.828125 90.472656 575.734375 90.027344 575.550781 C 89.578125 575.363281 89.183594 575.101562 88.839844 574.757812 C 88.5 574.414062 88.234375 574.019531 88.050781 573.574219 C 87.863281 573.125 87.773438 572.660156 87.773438 572.175781 C 87.773438 571.691406 87.863281 571.226562 88.050781 570.777344 C 88.234375 570.332031 88.5 569.9375 88.839844 569.59375 C 89.183594 569.25 89.578125 568.988281 90.027344 568.800781 C 90.472656 568.617188 90.941406 568.523438 91.425781 568.523438 C 91.910156 568.523438 92.375 568.617188 92.820312 568.800781 C 93.269531 568.988281 93.664062 569.25 94.007812 569.59375 C 94.347656 569.9375 94.613281 570.332031 94.796875 570.777344 C 94.984375 571.226562 95.078125 571.691406 95.078125 572.175781 Z M 95.078125 572.175781 "/><path style=" stroke:none;fill-rule:nonzero;fill:#ffc3bd;fill-opacity:1;" d="M 178.730469 503.835938 C 178.730469 504.320312 178.636719 504.785156 178.453125 505.234375 C 178.265625 505.679688 178.003906 506.078125 177.660156 506.417969 C 177.316406 506.761719 176.921875 507.023438 176.476562 507.210938 C 176.027344 507.394531 175.5625 507.488281 175.078125 507.488281 C 174.59375 507.488281 174.128906 507.394531 173.679688 507.210938 C 173.234375 507.023438 172.835938 506.761719 172.496094 506.417969 C 172.152344 506.078125 171.890625 505.679688 171.703125 505.234375 C 171.519531 504.785156 171.425781 504.320312 171.425781 503.835938 C 171.425781 503.351562 171.519531 502.886719 171.703125 502.4375 C 171.890625 501.992188 172.152344 501.597656 172.496094 501.253906 C 172.835938 500.914062 173.234375 500.648438 173.679688 500.464844 C 174.128906 500.277344 174.59375 500.183594 175.078125 500.183594 C 175.5625 500.183594 176.027344 500.277344 176.476562 500.464844 C 176.921875 500.648438 177.316406 500.914062 177.660156 501.253906 C 178.003906 501.597656 178.265625 501.992188 178.453125 502.4375 C 178.636719 502.886719 178.730469 503.351562 178.730469 503.835938 Z M 178.730469 503.835938 "/><path style=" stroke:none;fill-rule:nonzero;fill:#ffc3bd;fill-opacity:1;" d="M 120.582031 437.539062 C 120.582031 438.023438 120.488281 438.488281 120.300781 438.933594 C 120.117188 439.382812 119.851562 439.777344 119.511719 440.121094 C 119.167969 440.460938 118.773438 440.726562 118.324219 440.910156 C 117.878906 441.097656 117.414062 441.1875 116.929688 441.1875 C 116.445312 441.1875 115.976562 441.097656 115.53125 440.910156 C 115.082031 440.726562 114.6875 440.460938 114.347656 440.121094 C 114.003906 439.777344 113.738281 439.382812 113.554688 438.933594 C 113.367188 438.488281 113.277344 438.023438 113.277344 437.539062 C 113.277344 437.054688 113.367188 436.585938 113.554688 436.140625 C 113.738281 435.691406 114.003906 435.296875 114.347656 434.957031 C 114.6875 434.613281 115.082031 434.347656 115.53125 434.164062 C 115.976562 433.980469 116.445312 433.886719 116.929688 433.886719 C 117.414062 433.886719 117.878906 433.980469 118.324219 434.164062 C 118.773438 434.347656 119.167969 434.613281 119.511719 434.957031 C 119.851562 435.296875 120.117188 435.691406 120.300781 436.140625 C 120.488281 436.585938 120.582031 437.054688 120.582031 437.539062 Z M 120.582031 437.539062 "/><path style=" stroke:none;fill-rule:nonzero;fill:#ffc3bd;fill-opacity:1;" d="M 10.617188 459.957031 C 11.605469 460.84375 12.636719 461.78125 13.105469 463.027344 C 13.738281 464.699219 13.226562 466.585938 12.523438 468.238281 C 11.78125 469.972656 10.808594 471.617188 9.65625 473.105469 C 8.707031 471.59375 7.789062 470.054688 7.261719 468.351562 C 6.71875 466.648438 6.648438 464.71875 7.453125 463.117188 C 8.066406 461.855469 9.433594 460.753906 10.617188 459.957031 Z M 10.617188 459.957031 "/><path style=" stroke:none;fill-rule:nonzero;fill:#ffc3bd;fill-opacity:1;" d="M 18.871094 486.230469 C 17.542969 486.203125 16.144531 486.148438 14.984375 485.507812 C 13.410156 484.640625 12.574219 482.875 12.035156 481.171875 C 11.472656 479.367188 11.148438 477.5 11.066406 475.613281 C 12.769531 476.144531 14.460938 476.726562 15.984375 477.664062 C 17.503906 478.613281 18.808594 480.03125 19.238281 481.765625 C 19.574219 483.140625 19.246094 484.863281 18.871094 486.230469 Z M 18.871094 486.230469 "/><path style=" stroke:none;fill-rule:nonzero;fill:#ffc3bd;fill-opacity:1;" d="M 0.996094 486.28125 C 2.324219 486.230469 3.71875 486.160156 4.875 485.507812 C 6.433594 484.621094 7.25 482.84375 7.761719 481.132812 C 8.289062 479.328125 8.597656 477.441406 8.65625 475.5625 C 6.953125 476.113281 5.28125 476.714844 3.769531 477.683594 C 2.273438 478.652344 0.976562 480.082031 0.578125 481.824219 C 0.25 483.203125 0.597656 484.914062 0.996094 486.28125 Z M 0.996094 486.28125 "/><path style=" stroke:none;fill-rule:nonzero;fill:#ffc3bd;fill-opacity:1;" d="M -4.59375 469.371094 C -4.207031 470.644531 -3.796875 471.972656 -2.871094 472.929688 C -1.613281 474.214844 0.304688 474.5625 2.097656 474.625 C 3.984375 474.683594 5.882812 474.511719 7.71875 474.09375 C 6.75 472.585938 5.75 471.117188 4.433594 469.902344 C 3.117188 468.6875 1.40625 467.800781 -0.378906 467.851562 C -1.796875 467.882812 -3.371094 468.648438 -4.59375 469.371094 Z M -4.59375 469.371094 "/><path style=" stroke:none;fill-rule:nonzero;fill:#ffc3bd;fill-opacity:1;" d="M 24.101562 469.371094 C 23.714844 470.644531 23.308594 471.972656 22.378906 472.929688 C 21.125 474.214844 19.207031 474.5625 17.410156 474.625 C 15.523438 474.683594 13.625 474.511719 11.789062 474.09375 C 12.757812 472.585938 13.757812 471.117188 15.074219 469.902344 C 16.390625 468.6875 18.105469 467.800781 19.890625 467.851562 C 21.296875 467.882812 22.878906 468.648438 24.101562 469.371094 Z M 24.101562 469.371094 "/><path style=" stroke:none;fill-rule:nonzero;fill:#ffc3bd;fill-opacity:1;" d="M 114.542969 784.894531 C 115.53125 785.78125 116.5625 786.71875 117.03125 787.964844 C 117.664062 789.636719 117.152344 791.523438 116.449219 793.175781 C 115.703125 794.910156 114.734375 796.554688 113.582031 798.042969 C 112.632812 796.53125 111.714844 794.992188 111.183594 793.289062 C 110.644531 791.585938 110.574219 789.65625 111.378906 788.054688 C 111.992188 786.792969 113.359375 785.691406 114.542969 784.894531 Z M 114.542969 784.894531 "/><path style=" stroke:none;fill-rule:nonzero;fill:#ffc3bd;fill-opacity:1;" d="M 122.785156 811.179688 C 121.457031 811.148438 120.058594 811.097656 118.898438 810.457031 C 117.324219 809.589844 116.488281 807.824219 115.949219 806.121094 C 115.386719 804.316406 115.0625 802.449219 114.980469 800.5625 C 116.683594 801.09375 118.375 801.671875 119.898438 802.613281 C 121.417969 803.558594 122.722656 804.976562 123.152344 806.710938 C 123.5 808.078125 123.171875 809.800781 122.785156 811.179688 Z M 122.785156 811.179688 "/><path style=" stroke:none;fill-rule:nonzero;fill:#ffc3bd;fill-opacity:1;" d="M 104.921875 811.230469 C 106.246094 811.179688 107.644531 811.109375 108.796875 810.457031 C 110.359375 809.566406 111.175781 807.792969 111.683594 806.078125 C 112.214844 804.273438 112.519531 802.386719 112.582031 800.511719 C 110.878906 801.0625 109.207031 801.664062 107.695312 802.632812 C 106.195312 803.601562 104.902344 805.027344 104.503906 806.773438 C 104.175781 808.140625 104.523438 809.863281 104.921875 811.230469 Z M 104.921875 811.230469 "/><path style=" stroke:none;fill-rule:nonzero;fill:#ffc3bd;fill-opacity:1;" d="M 99.332031 794.320312 C 99.71875 795.59375 100.125 796.921875 101.054688 797.878906 C 102.308594 799.164062 104.226562 799.511719 106.023438 799.570312 C 107.910156 799.632812 109.808594 799.460938 111.644531 799.042969 C 110.675781 797.53125 109.675781 796.0625 108.359375 794.851562 C 107.042969 793.636719 105.328125 792.75 103.542969 792.800781 C 102.125 792.820312 100.554688 793.59375 99.332031 794.320312 Z M 99.332031 794.320312 "/><path style=" stroke:none;fill-rule:nonzero;fill:#ffc3bd;fill-opacity:1;" d="M 128.015625 794.320312 C 127.628906 795.59375 127.222656 796.921875 126.292969 797.878906 C 125.039062 799.164062 123.121094 799.511719 121.324219 799.570312 C 119.4375 799.632812 117.539062 799.460938 115.703125 799.042969 C 116.671875 797.53125 117.671875 796.0625 118.988281 794.851562 C 120.304688 793.636719 122.019531 792.75 123.804688 792.800781 C 125.222656 792.820312 126.804688 793.59375 128.015625 794.320312 Z M 128.015625 794.320312 "/><path style=" stroke:none;fill-rule:nonzero;fill:#ffc3bd;fill-opacity:1;" d="M 784.699219 787.382812 C 785.6875 788.269531 786.71875 789.210938 787.1875 790.453125 C 787.820312 792.125 787.3125 794.011719 786.605469 795.664062 C 785.863281 797.398438 784.894531 799.042969 783.730469 800.53125 C 782.78125 799.019531 781.863281 797.480469 781.332031 795.777344 C 780.792969 794.074219 780.71875 792.148438 781.527344 790.546875 C 782.148438 789.28125 783.515625 788.179688 784.699219 787.382812 Z M 784.699219 787.382812 "/><path style=" stroke:none;fill-rule:nonzero;fill:#ffc3bd;fill-opacity:1;" d="M 792.953125 813.660156 C 791.625 813.628906 790.226562 813.578125 789.066406 812.933594 C 787.496094 812.066406 786.65625 810.300781 786.117188 808.597656 C 785.554688 806.792969 785.230469 804.925781 785.148438 803.039062 C 786.851562 803.570312 788.546875 804.152344 790.066406 805.089844 C 791.585938 806.039062 792.890625 807.457031 793.320312 809.191406 C 793.65625 810.566406 793.328125 812.292969 792.953125 813.660156 Z M 792.953125 813.660156 "/><path style=" stroke:none;fill-rule:nonzero;fill:#ffc3bd;fill-opacity:1;" d="M 775.078125 813.710938 C 776.40625 813.660156 777.804688 813.585938 778.957031 812.933594 C 780.515625 812.046875 781.332031 810.273438 781.84375 808.558594 C 782.375 806.753906 782.679688 804.867188 782.742188 802.988281 C 781.035156 803.539062 779.363281 804.140625 777.855469 805.109375 C 776.355469 806.078125 775.058594 807.507812 774.660156 809.25 C 774.335938 810.628906 774.679688 812.351562 775.078125 813.710938 Z M 775.078125 813.710938 "/><path style=" stroke:none;fill-rule:nonzero;fill:#ffc3bd;fill-opacity:1;" d="M 769.488281 796.808594 C 769.875 798.082031 770.285156 799.410156 771.210938 800.367188 C 772.46875 801.652344 774.386719 802 776.179688 802.0625 C 778.066406 802.121094 779.964844 801.949219 781.800781 801.53125 C 780.832031 800.019531 779.832031 798.550781 778.515625 797.339844 C 777.199219 796.125 775.488281 795.238281 773.703125 795.289062 C 772.285156 795.308594 770.710938 796.074219 769.488281 796.808594 Z M 769.488281 796.808594 "/><path style=" stroke:none;fill-rule:nonzero;fill:#ffc3bd;fill-opacity:1;" d="M 798.1875 796.808594 C 797.796875 798.082031 797.390625 799.410156 796.460938 800.367188 C 795.207031 801.652344 793.289062 802 791.492188 802.0625 C 789.605469 802.121094 787.707031 801.949219 785.871094 801.53125 C 786.839844 800.019531 787.839844 798.550781 789.15625 797.339844 C 790.472656 796.125 792.1875 795.238281 793.972656 795.289062 C 795.378906 795.308594 796.960938 796.074219 798.1875 796.808594 Z M 798.1875 796.808594 "/><path style=" stroke:none;fill-rule:nonzero;fill:#ffc3bd;fill-opacity:1;" d="M 295.5 711.089844 C 295.5 713.109375 293.867188 714.738281 291.847656 714.738281 C 289.828125 714.738281 288.195312 713.109375 288.195312 711.089844 C 288.195312 709.070312 289.828125 707.4375 291.847656 707.4375 C 293.855469 707.4375 295.5 709.070312 295.5 711.089844 Z M 295.5 711.089844 "/><path style=" stroke:none;fill-rule:nonzero;fill:#ffc3bd;fill-opacity:1;" d="M 470.621094 424.390625 C 470.621094 424.875 470.527344 425.339844 470.34375 425.789062 C 470.15625 426.234375 469.894531 426.628906 469.550781 426.972656 C 469.207031 427.3125 468.8125 427.578125 468.367188 427.761719 C 467.917969 427.949219 467.453125 428.042969 466.96875 428.042969 C 466.484375 428.042969 466.019531 427.949219 465.570312 427.761719 C 465.121094 427.578125 464.726562 427.3125 464.386719 426.972656 C 464.042969 426.628906 463.777344 426.234375 463.59375 425.789062 C 463.410156 425.339844 463.316406 424.875 463.316406 424.390625 C 463.316406 423.90625 463.410156 423.441406 463.59375 422.992188 C 463.777344 422.546875 464.042969 422.148438 464.386719 421.808594 C 464.726562 421.464844 465.121094 421.203125 465.570312 421.015625 C 466.019531 420.832031 466.484375 420.738281 466.96875 420.738281 C 467.453125 420.738281 467.917969 420.832031 468.367188 421.015625 C 468.8125 421.203125 469.207031 421.464844 469.550781 421.808594 C 469.894531 422.148438 470.15625 422.546875 470.34375 422.992188 C 470.527344 423.441406 470.621094 423.90625 470.621094 424.390625 Z M 470.621094 424.390625 "/><path style=" stroke:none;fill-rule:nonzero;fill:#ffc3bd;fill-opacity:1;" d="M 648.128906 284.652344 C 648.128906 285.136719 648.035156 285.601562 647.851562 286.050781 C 647.664062 286.496094 647.402344 286.890625 647.058594 287.234375 C 646.71875 287.574219 646.320312 287.839844 645.875 288.023438 C 645.425781 288.210938 644.960938 288.304688 644.476562 288.304688 C 643.992188 288.304688 643.527344 288.210938 643.078125 288.023438 C 642.632812 287.839844 642.238281 287.574219 641.894531 287.234375 C 641.550781 286.890625 641.289062 286.496094 641.101562 286.050781 C 640.917969 285.601562 640.824219 285.136719 640.824219 284.652344 C 640.824219 284.167969 640.917969 283.703125 641.101562 283.253906 C 641.289062 282.808594 641.550781 282.410156 641.894531 282.070312 C 642.238281 281.726562 642.632812 281.464844 643.078125 281.277344 C 643.527344 281.09375 643.992188 281 644.476562 281 C 644.960938 281 645.425781 281.09375 645.875 281.277344 C 646.320312 281.464844 646.71875 281.726562 647.058594 282.070312 C 647.402344 282.410156 647.664062 282.808594 647.851562 283.253906 C 648.035156 283.703125 648.128906 284.167969 648.128906 284.652344 Z M 648.128906 284.652344 "/><path style=" stroke:none;fill-rule:nonzero;fill:#ffc3bd;fill-opacity:1;" d="M 773.609375 651.847656 C 773.609375 652.332031 773.515625 652.796875 773.332031 653.246094 C 773.144531 653.691406 772.882812 654.085938 772.539062 654.429688 C 772.199219 654.773438 771.800781 655.035156 771.355469 655.222656 C 770.90625 655.40625 770.441406 655.5 769.957031 655.5 C 769.472656 655.5 769.007812 655.40625 768.558594 655.222656 C 768.113281 655.035156 767.71875 654.773438 767.375 654.429688 C 767.03125 654.085938 766.769531 653.691406 766.582031 653.246094 C 766.398438 652.796875 766.304688 652.332031 766.304688 651.847656 C 766.304688 651.363281 766.398438 650.898438 766.582031 650.449219 C 766.769531 650.003906 767.03125 649.609375 767.375 649.265625 C 767.71875 648.921875 768.113281 648.660156 768.558594 648.472656 C 769.007812 648.289062 769.472656 648.195312 769.957031 648.195312 C 770.441406 648.195312 770.90625 648.289062 771.355469 648.472656 C 771.800781 648.660156 772.199219 648.921875 772.539062 649.265625 C 772.882812 649.609375 773.144531 650.003906 773.332031 650.449219 C 773.515625 650.898438 773.609375 651.363281 773.609375 651.847656 Z M 773.609375 651.847656 "/><path style=" stroke:none;fill-rule:nonzero;fill:#ffc3bd;fill-opacity:1;" d="M 384.261719 767.199219 C 384.261719 767.683594 384.171875 768.148438 383.984375 768.59375 C 383.800781 769.042969 383.535156 769.4375 383.191406 769.78125 C 382.851562 770.121094 382.457031 770.386719 382.007812 770.570312 C 381.5625 770.757812 381.09375 770.847656 380.609375 770.847656 C 380.125 770.847656 379.660156 770.757812 379.214844 770.570312 C 378.765625 770.386719 378.371094 770.121094 378.027344 769.78125 C 377.6875 769.4375 377.421875 769.042969 377.238281 768.59375 C 377.050781 768.148438 376.957031 767.683594 376.957031 767.199219 C 376.957031 766.714844 377.050781 766.246094 377.238281 765.800781 C 377.421875 765.351562 377.6875 764.957031 378.027344 764.617188 C 378.371094 764.273438 378.765625 764.007812 379.214844 763.824219 C 379.660156 763.640625 380.125 763.546875 380.609375 763.546875 C 381.09375 763.546875 381.5625 763.640625 382.007812 763.824219 C 382.457031 764.007812 382.851562 764.273438 383.195312 764.617188 C 383.535156 764.957031 383.800781 765.351562 383.984375 765.800781 C 384.171875 766.246094 384.261719 766.714844 384.261719 767.199219 Z M 384.261719 767.199219 "/><path style=" stroke:none;fill-rule:nonzero;fill:#ffc3bd;fill-opacity:1;" d="M 791.136719 472.664062 C 791.136719 474.683594 789.503906 476.316406 787.484375 476.316406 C 785.464844 476.316406 783.832031 474.683594 783.832031 472.664062 C 783.832031 470.644531 785.464844 469.015625 787.484375 469.015625 C 789.503906 469.003906 791.136719 470.644531 791.136719 472.664062 Z M 791.136719 472.664062 "/><path style=" stroke:none;fill-rule:nonzero;fill:#ffc3bd;fill-opacity:1;" d="M 17.554688 743.308594 C 17.554688 743.792969 17.460938 744.257812 17.277344 744.707031 C 17.089844 745.152344 16.828125 745.550781 16.484375 745.890625 C 16.140625 746.234375 15.746094 746.496094 15.300781 746.683594 C 14.851562 746.867188 14.386719 746.960938 13.902344 746.960938 C 13.417969 746.960938 12.953125 746.867188 12.503906 746.683594 C 12.054688 746.496094 11.660156 746.234375 11.320312 745.890625 C 10.976562 745.550781 10.710938 745.152344 10.527344 744.707031 C 10.34375 744.257812 10.25 743.792969 10.25 743.308594 C 10.25 742.824219 10.34375 742.359375 10.527344 741.914062 C 10.710938 741.464844 10.976562 741.070312 11.320312 740.726562 C 11.660156 740.386719 12.054688 740.121094 12.503906 739.9375 C 12.953125 739.75 13.417969 739.65625 13.902344 739.65625 C 14.386719 739.65625 14.851562 739.75 15.300781 739.9375 C 15.746094 740.121094 16.140625 740.386719 16.484375 740.726562 C 16.828125 741.070312 17.089844 741.464844 17.277344 741.914062 C 17.460938 742.359375 17.554688 742.824219 17.554688 743.308594 Z M 17.554688 743.308594 "/><path style=" stroke:none;fill-rule:nonzero;fill:#ffc3bd;fill-opacity:1;" d="M 178.738281 707.609375 C 178.738281 708.09375 178.648438 708.558594 178.460938 709.007812 C 178.277344 709.453125 178.011719 709.851562 177.671875 710.191406 C 177.328125 710.535156 176.933594 710.796875 176.484375 710.984375 C 176.039062 711.167969 175.574219 711.261719 175.089844 711.261719 C 174.605469 711.261719 174.136719 711.167969 173.691406 710.984375 C 173.242188 710.796875 172.847656 710.535156 172.503906 710.191406 C 172.164062 709.851562 171.898438 709.453125 171.714844 709.007812 C 171.527344 708.558594 171.4375 708.09375 171.4375 707.609375 C 171.4375 707.125 171.527344 706.660156 171.714844 706.210938 C 171.898438 705.765625 172.164062 705.371094 172.503906 705.027344 C 172.847656 704.6875 173.242188 704.421875 173.691406 704.238281 C 174.136719 704.050781 174.605469 703.957031 175.089844 703.957031 C 175.574219 703.957031 176.039062 704.050781 176.484375 704.238281 C 176.933594 704.421875 177.328125 704.6875 177.671875 705.027344 C 178.011719 705.371094 178.277344 705.765625 178.460938 706.210938 C 178.648438 706.660156 178.738281 707.125 178.738281 707.609375 Z M 178.738281 707.609375 "/></g></svg>